%TF.GenerationSoftware,KiCad,Pcbnew,9.0.1*%
%TF.CreationDate,2025-10-10T15:40:47-03:00*%
%TF.ProjectId,minisumo,6d696e69-7375-46d6-9f2e-6b696361645f,rev?*%
%TF.SameCoordinates,Original*%
%TF.FileFunction,Copper,L1,Top*%
%TF.FilePolarity,Positive*%
%FSLAX46Y46*%
G04 Gerber Fmt 4.6, Leading zero omitted, Abs format (unit mm)*
G04 Created by KiCad (PCBNEW 9.0.1) date 2025-10-10 15:40:47*
%MOMM*%
%LPD*%
G01*
G04 APERTURE LIST*
G04 Aperture macros list*
%AMRoundRect*
0 Rectangle with rounded corners*
0 $1 Rounding radius*
0 $2 $3 $4 $5 $6 $7 $8 $9 X,Y pos of 4 corners*
0 Add a 4 corners polygon primitive as box body*
4,1,4,$2,$3,$4,$5,$6,$7,$8,$9,$2,$3,0*
0 Add four circle primitives for the rounded corners*
1,1,$1+$1,$2,$3*
1,1,$1+$1,$4,$5*
1,1,$1+$1,$6,$7*
1,1,$1+$1,$8,$9*
0 Add four rect primitives between the rounded corners*
20,1,$1+$1,$2,$3,$4,$5,0*
20,1,$1+$1,$4,$5,$6,$7,0*
20,1,$1+$1,$6,$7,$8,$9,0*
20,1,$1+$1,$8,$9,$2,$3,0*%
G04 Aperture macros list end*
%TA.AperFunction,SMDPad,CuDef*%
%ADD10RoundRect,0.250000X-0.337500X-0.475000X0.337500X-0.475000X0.337500X0.475000X-0.337500X0.475000X0*%
%TD*%
%TA.AperFunction,SMDPad,CuDef*%
%ADD11RoundRect,0.250000X-0.450000X0.325000X-0.450000X-0.325000X0.450000X-0.325000X0.450000X0.325000X0*%
%TD*%
%TA.AperFunction,SMDPad,CuDef*%
%ADD12R,1.500000X1.500000*%
%TD*%
%TA.AperFunction,SMDPad,CuDef*%
%ADD13RoundRect,0.250000X0.310000X-0.970000X0.310000X0.970000X-0.310000X0.970000X-0.310000X-0.970000X0*%
%TD*%
%TA.AperFunction,SMDPad,CuDef*%
%ADD14RoundRect,0.250000X0.337500X0.475000X-0.337500X0.475000X-0.337500X-0.475000X0.337500X-0.475000X0*%
%TD*%
%TA.AperFunction,SMDPad,CuDef*%
%ADD15RoundRect,0.099000X0.351000X-0.751000X0.351000X0.751000X-0.351000X0.751000X-0.351000X-0.751000X0*%
%TD*%
%TA.AperFunction,SMDPad,CuDef*%
%ADD16R,4.000000X4.000000*%
%TD*%
%TA.AperFunction,SMDPad,CuDef*%
%ADD17RoundRect,0.099000X0.751000X-0.351000X0.751000X0.351000X-0.751000X0.351000X-0.751000X-0.351000X0*%
%TD*%
%TA.AperFunction,SMDPad,CuDef*%
%ADD18RoundRect,0.090000X-0.660000X-0.360000X0.660000X-0.360000X0.660000X0.360000X-0.660000X0.360000X0*%
%TD*%
%TA.AperFunction,SMDPad,CuDef*%
%ADD19RoundRect,0.250000X0.350000X0.450000X-0.350000X0.450000X-0.350000X-0.450000X0.350000X-0.450000X0*%
%TD*%
%TA.AperFunction,SMDPad,CuDef*%
%ADD20RoundRect,0.250000X0.450000X-0.350000X0.450000X0.350000X-0.450000X0.350000X-0.450000X-0.350000X0*%
%TD*%
%TA.AperFunction,ComponentPad*%
%ADD21C,1.524000*%
%TD*%
%TA.AperFunction,ComponentPad*%
%ADD22O,2.200000X2.400000*%
%TD*%
%TA.AperFunction,ComponentPad*%
%ADD23RoundRect,0.250000X0.850000X-0.950000X0.850000X0.950000X-0.850000X0.950000X-0.850000X-0.950000X0*%
%TD*%
%TA.AperFunction,ComponentPad*%
%ADD24O,1.700000X1.700000*%
%TD*%
%TA.AperFunction,ComponentPad*%
%ADD25C,1.700000*%
%TD*%
%TA.AperFunction,ComponentPad*%
%ADD26RoundRect,0.250000X-0.600000X-0.600000X0.600000X-0.600000X0.600000X0.600000X-0.600000X0.600000X0*%
%TD*%
%TA.AperFunction,ComponentPad*%
%ADD27O,1.108000X2.216000*%
%TD*%
%TA.AperFunction,ComponentPad*%
%ADD28O,1.700000X1.950000*%
%TD*%
%TA.AperFunction,ComponentPad*%
%ADD29RoundRect,0.250000X-0.600000X-0.725000X0.600000X-0.725000X0.600000X0.725000X-0.600000X0.725000X0*%
%TD*%
%TA.AperFunction,ComponentPad*%
%ADD30RoundRect,0.250000X0.600000X0.750000X-0.600000X0.750000X-0.600000X-0.750000X0.600000X-0.750000X0*%
%TD*%
%TA.AperFunction,ComponentPad*%
%ADD31O,1.700000X2.000000*%
%TD*%
%TA.AperFunction,ComponentPad*%
%ADD32RoundRect,0.760000X1.140000X1.140000X-1.140000X1.140000X-1.140000X-1.140000X1.140000X-1.140000X0*%
%TD*%
%TA.AperFunction,ComponentPad*%
%ADD33C,4.000000*%
%TD*%
%TA.AperFunction,ViaPad*%
%ADD34C,0.600000*%
%TD*%
%TA.AperFunction,Conductor*%
%ADD35C,0.200000*%
%TD*%
%TA.AperFunction,Conductor*%
%ADD36C,0.500000*%
%TD*%
%TA.AperFunction,Conductor*%
%ADD37C,0.700000*%
%TD*%
G04 APERTURE END LIST*
D10*
%TO.P,C6,1*%
%TO.N,+3.3V*%
X193925000Y-79650000D03*
%TO.P,C6,2*%
%TO.N,GND*%
X196000000Y-79650000D03*
%TD*%
D11*
%TO.P,D2,1,K*%
%TO.N,GND*%
X213350000Y-72950000D03*
%TO.P,D2,2,A*%
%TO.N,Net-(D2-A)*%
X213350000Y-75000000D03*
%TD*%
D12*
%TO.P,SW1,1,1*%
%TO.N,+3.3V*%
X189800000Y-72800000D03*
%TO.P,SW1,2,2*%
%TO.N,ACT*%
X182000000Y-72800000D03*
%TD*%
D13*
%TO.P,SW2,1*%
%TO.N,+3.3V*%
X193930000Y-77105000D03*
%TO.P,SW2,2*%
X196470000Y-77105000D03*
%TO.P,SW2,3*%
%TO.N,M2*%
X196470000Y-68495000D03*
%TO.P,SW2,4*%
%TO.N,M1*%
X193930000Y-68495000D03*
%TD*%
D14*
%TO.P,C1,1*%
%TO.N,GND*%
X220100000Y-69925000D03*
%TO.P,C1,2*%
%TO.N,VCC*%
X218025000Y-69925000D03*
%TD*%
D10*
%TO.P,C7,1*%
%TO.N,+5V*%
X171775000Y-89075000D03*
%TO.P,C7,2*%
%TO.N,GND*%
X173850000Y-89075000D03*
%TD*%
D12*
%TO.P,SW3,1,1*%
%TO.N,GND*%
X189800000Y-77500000D03*
%TO.P,SW3,2,2*%
%TO.N,EN*%
X182000000Y-77500000D03*
%TD*%
D10*
%TO.P,C8,1*%
%TO.N,+5V*%
X183175000Y-89075000D03*
%TO.P,C8,2*%
%TO.N,GND*%
X185250000Y-89075000D03*
%TD*%
D14*
%TO.P,C2,1*%
%TO.N,Net-(J2-Pin_1)*%
X223105000Y-67525000D03*
%TO.P,C2,2*%
%TO.N,Net-(J2-Pin_2)*%
X221030000Y-67525000D03*
%TD*%
D15*
%TO.P,U4,1,GND*%
%TO.N,GND*%
X160645000Y-81900000D03*
D16*
%TO.P,U4,1.1,GND*%
X168055000Y-73600000D03*
D15*
%TO.P,U4,2,3V3*%
%TO.N,+3.3V*%
X161915000Y-81900000D03*
%TO.P,U4,3,EN*%
%TO.N,EN*%
X163185000Y-81900000D03*
%TO.P,U4,4,SENSOR_VP*%
%TO.N,unconnected-(U4-SENSOR_VP-Pad4)*%
X164455000Y-81900000D03*
%TO.P,U4,5,SENSOR_VN*%
%TO.N,unconnected-(U4-SENSOR_VN-Pad5)*%
X165725000Y-81900000D03*
%TO.P,U4,6,IO34*%
%TO.N,unconnected-(U4-IO34-Pad6)*%
X166995000Y-81900000D03*
%TO.P,U4,7,IO35*%
%TO.N,unconnected-(U4-IO35-Pad7)*%
X168265000Y-81900000D03*
%TO.P,U4,8,IO32*%
%TO.N,WS1*%
X169535000Y-81900000D03*
%TO.P,U4,9,IO33*%
%TO.N,WS2*%
X170805000Y-81900000D03*
%TO.P,U4,10,IO25*%
%TO.N,WS3*%
X172075000Y-81900000D03*
%TO.P,U4,11,IO26*%
%TO.N,BI_DER*%
X173345000Y-81900000D03*
%TO.P,U4,12,IO27*%
%TO.N,BI_IZQ*%
X174615000Y-81900000D03*
%TO.P,U4,13,IO14*%
%TO.N,M1*%
X175885000Y-81900000D03*
%TO.P,U4,14,IO12*%
%TO.N,unconnected-(U4-IO12-Pad14)*%
X177155000Y-81900000D03*
D17*
%TO.P,U4,15,GND*%
%TO.N,GND*%
X178655000Y-78615000D03*
%TO.P,U4,16,IO13*%
%TO.N,ACT*%
X178655000Y-77345000D03*
%TO.P,U4,17,SHD/SD2*%
%TO.N,unconnected-(U4-SHD{slash}SD2-Pad17)*%
X178655000Y-76075000D03*
%TO.P,U4,18,SWP/SD3*%
%TO.N,unconnected-(U4-SWP{slash}SD3-Pad18)*%
X178655000Y-74805000D03*
%TO.P,U4,19,SCS/CMD*%
%TO.N,unconnected-(U4-SCS{slash}CMD-Pad19)*%
X178655000Y-73535000D03*
%TO.P,U4,20,SCK/CLK*%
%TO.N,unconnected-(U4-SCK{slash}CLK-Pad20)*%
X178655000Y-72265000D03*
%TO.P,U4,21,SDO/SD0*%
%TO.N,unconnected-(U4-SDO{slash}SD0-Pad21)*%
X178655000Y-70995000D03*
%TO.P,U4,22,SDI/SD1*%
%TO.N,unconnected-(U4-SDI{slash}SD1-Pad22)*%
X178655000Y-69725000D03*
%TO.P,U4,23,IO15*%
%TO.N,unconnected-(U4-IO15-Pad23)*%
X178655000Y-68455000D03*
%TO.P,U4,24,IO2*%
%TO.N,unconnected-(U4-IO2-Pad24)*%
X178655000Y-67185000D03*
D15*
%TO.P,U4,25,IO0*%
%TO.N,BOOT*%
X177155000Y-63900000D03*
%TO.P,U4,26,IO4*%
%TO.N,M2*%
X175885000Y-63900000D03*
%TO.P,U4,27,IO16*%
%TO.N,BI_IZ*%
X174615000Y-63900000D03*
%TO.P,U4,28,IO17*%
%TO.N,FI_IZ*%
X173345000Y-63900000D03*
%TO.P,U4,29,IO5*%
%TO.N,unconnected-(U4-IO5-Pad29)*%
X172075000Y-63900000D03*
%TO.P,U4,30,IO18*%
%TO.N,P_DER*%
X170805000Y-63900000D03*
%TO.P,U4,31,IO19*%
%TO.N,F_DER*%
X169535000Y-63900000D03*
%TO.P,U4,32*%
%TO.N,N/C*%
X168265000Y-63900000D03*
%TO.P,U4,33,IO21*%
%TO.N,F_FRE*%
X166995000Y-63900000D03*
%TO.P,U4,34,RXD0*%
%TO.N,RXDO*%
X165725000Y-63900000D03*
%TO.P,U4,35,TXD0*%
%TO.N,TXDO*%
X164455000Y-63900000D03*
%TO.P,U4,36,IO22*%
%TO.N,F_IZ*%
X163185000Y-63900000D03*
%TO.P,U4,37,IO23*%
%TO.N,P_IZ*%
X161915000Y-63900000D03*
%TO.P,U4,38,GND*%
%TO.N,GND*%
X160645000Y-63900000D03*
%TD*%
D11*
%TO.P,D9,1,K*%
%TO.N,GND*%
X198600000Y-63975000D03*
%TO.P,D9,2,A*%
%TO.N,Net-(D9-A)*%
X198600000Y-66025000D03*
%TD*%
D18*
%TO.P,LED3,1,VDD*%
%TO.N,+5V*%
X187475000Y-86625000D03*
%TO.P,LED3,2,DOUT*%
%TO.N,unconnected-(LED3-DOUT-Pad2)*%
X187475000Y-89925000D03*
%TO.P,LED3,3,VSS*%
%TO.N,GND*%
X192375000Y-89925000D03*
%TO.P,LED3,4,DIN*%
%TO.N,Net-(LED3-DIN)*%
X192375000Y-86625000D03*
%TD*%
D14*
%TO.P,C4,1*%
%TO.N,Net-(J4-Pin_1)*%
X223105000Y-77625000D03*
%TO.P,C4,2*%
%TO.N,Net-(J4-Pin_2)*%
X221030000Y-77625000D03*
%TD*%
D19*
%TO.P,R3,1*%
%TO.N,WS3*%
X196575000Y-86625000D03*
%TO.P,R3,2*%
%TO.N,Net-(LED3-DIN)*%
X194575000Y-86625000D03*
%TD*%
D12*
%TO.P,SW4,1,1*%
%TO.N,GND*%
X189800000Y-68100000D03*
%TO.P,SW4,2,2*%
%TO.N,BOOT*%
X182000000Y-68100000D03*
%TD*%
D10*
%TO.P,C9,1*%
%TO.N,+5V*%
X194575000Y-89075000D03*
%TO.P,C9,2*%
%TO.N,GND*%
X196650000Y-89075000D03*
%TD*%
D11*
%TO.P,D8,1,K*%
%TO.N,GND*%
X191900000Y-63975000D03*
%TO.P,D8,2,A*%
%TO.N,Net-(D8-A)*%
X191900000Y-66025000D03*
%TD*%
D20*
%TO.P,R8,1*%
%TO.N,M1*%
X193930000Y-65975000D03*
%TO.P,R8,2*%
%TO.N,GND*%
X193930000Y-63975000D03*
%TD*%
D14*
%TO.P,C3,1*%
%TO.N,GND*%
X220100000Y-80525000D03*
%TO.P,C3,2*%
%TO.N,VCC*%
X218025000Y-80525000D03*
%TD*%
D19*
%TO.P,R2,1*%
%TO.N,WS2*%
X185175000Y-86625000D03*
%TO.P,R2,2*%
%TO.N,Net-(LED2-DIN)*%
X183175000Y-86625000D03*
%TD*%
D11*
%TO.P,D1,1,K*%
%TO.N,GND*%
X213350000Y-67950000D03*
%TO.P,D1,2,A*%
%TO.N,Net-(D1-A)*%
X213350000Y-70000000D03*
%TD*%
D21*
%TO.P,SW6,1,C*%
%TO.N,unconnected-(SW6-C-Pad1)*%
X199875000Y-90715000D03*
%TO.P,SW6,2,B*%
%TO.N,Net-(BAT1-Pin_2)*%
X199875000Y-88175000D03*
%TO.P,SW6,3,A*%
%TO.N,VCC*%
X199875000Y-85635000D03*
%TD*%
D18*
%TO.P,LED1,1,VDD*%
%TO.N,+5V*%
X164875000Y-86625000D03*
%TO.P,LED1,2,DOUT*%
%TO.N,unconnected-(LED1-DOUT-Pad2)*%
X164875000Y-89925000D03*
%TO.P,LED1,3,VSS*%
%TO.N,GND*%
X169775000Y-89925000D03*
%TO.P,LED1,4,DIN*%
%TO.N,Net-(LED1-DIN)*%
X169775000Y-86625000D03*
%TD*%
D22*
%TO.P,U6,1,IN*%
%TO.N,VCC*%
X210270000Y-80520000D03*
D23*
%TO.P,U6,2,GND*%
%TO.N,GND*%
X201130000Y-80520000D03*
X201130000Y-65280000D03*
D22*
%TO.P,U6,3,OUT*%
%TO.N,+5V*%
X210270000Y-65280000D03*
%TD*%
D24*
%TO.P,J3,1,Pin_1*%
%TO.N,+3.3V*%
X151100000Y-67820000D03*
D25*
%TO.P,J3,2,Pin_2*%
%TO.N,TXDO*%
X151100000Y-70360000D03*
%TO.P,J3,3,Pin_3*%
%TO.N,RXDO*%
X151100000Y-72900000D03*
D26*
%TO.P,J3,4,Pin_4*%
%TO.N,GND*%
X151100000Y-75440000D03*
%TD*%
D18*
%TO.P,LED2,1,VDD*%
%TO.N,+5V*%
X176075000Y-86625000D03*
%TO.P,LED2,2,DOUT*%
%TO.N,unconnected-(LED2-DOUT-Pad2)*%
X176075000Y-89925000D03*
%TO.P,LED2,3,VSS*%
%TO.N,GND*%
X180975000Y-89925000D03*
%TO.P,LED2,4,DIN*%
%TO.N,Net-(LED2-DIN)*%
X180975000Y-86625000D03*
%TD*%
D20*
%TO.P,R9,1*%
%TO.N,M2*%
X196470000Y-65975000D03*
%TO.P,R9,2*%
%TO.N,GND*%
X196470000Y-63975000D03*
%TD*%
D19*
%TO.P,R1,1*%
%TO.N,WS1*%
X173875000Y-86575000D03*
%TO.P,R1,2*%
%TO.N,Net-(LED1-DIN)*%
X171875000Y-86575000D03*
%TD*%
D27*
%TO.P,U3,BI,BI*%
%TO.N,BI_IZ*%
X225570000Y-72697000D03*
%TO.P,U3,BO1,BO1*%
%TO.N,Net-(J2-Pin_1)*%
X223030000Y-65077000D03*
%TO.P,U3,BO2,BO2*%
X225570000Y-65077000D03*
%TO.P,U3,FI,FI*%
%TO.N,FI_IZ*%
X223030000Y-72697000D03*
%TO.P,U3,FO1,FO1*%
%TO.N,Net-(J2-Pin_2)*%
X217950000Y-65077000D03*
%TO.P,U3,FO2,FO2*%
X220490000Y-65077000D03*
%TO.P,U3,GND,GND*%
%TO.N,GND*%
X220490000Y-72697000D03*
%TO.P,U3,VCC,VCC*%
%TO.N,VCC*%
X217950000Y-72697000D03*
%TD*%
D28*
%TO.P,J8,1,Pin_1*%
%TO.N,F_FRE*%
X185400000Y-60450000D03*
D29*
%TO.P,J8,2,Pin_2*%
%TO.N,GND*%
X187900000Y-60450000D03*
D28*
%TO.P,J8,3,Pin_3*%
%TO.N,+3.3V*%
X190400000Y-60450000D03*
%TD*%
%TO.P,J11,1,Pin_1*%
%TO.N,+3.3V*%
X207200000Y-60450000D03*
%TO.P,J11,2,Pin_2*%
%TO.N,P_DER*%
X209700000Y-60450000D03*
D29*
%TO.P,J11,3,Pin_3*%
%TO.N,GND*%
X212200000Y-60450000D03*
%TD*%
D27*
%TO.P,U5,BI,BI*%
%TO.N,BI_DER*%
X225570000Y-82945000D03*
%TO.P,U5,BO1,BO1*%
%TO.N,Net-(J4-Pin_1)*%
X223030000Y-75325000D03*
%TO.P,U5,BO2,BO2*%
X225570000Y-75325000D03*
%TO.P,U5,FI,FI*%
%TO.N,BI_IZQ*%
X223030000Y-82945000D03*
%TO.P,U5,FO1,FO1*%
%TO.N,Net-(J4-Pin_2)*%
X217950000Y-75325000D03*
%TO.P,U5,FO2,FO2*%
X220490000Y-75325000D03*
%TO.P,U5,GND,GND*%
%TO.N,GND*%
X220490000Y-82945000D03*
%TO.P,U5,VCC,VCC*%
%TO.N,VCC*%
X217950000Y-82945000D03*
%TD*%
D30*
%TO.P,J2,1,Pin_1*%
%TO.N,Net-(J2-Pin_1)*%
X160725000Y-87975000D03*
D31*
%TO.P,J2,2,Pin_2*%
%TO.N,Net-(J2-Pin_2)*%
X158225000Y-87975000D03*
%TD*%
D30*
%TO.P,J4,1,Pin_1*%
%TO.N,Net-(J4-Pin_1)*%
X219200000Y-87975000D03*
D31*
%TO.P,J4,2,Pin_2*%
%TO.N,Net-(J4-Pin_2)*%
X216700000Y-87975000D03*
%TD*%
D28*
%TO.P,J7,1,Pin_1*%
%TO.N,F_IZ*%
X174500000Y-60450000D03*
D29*
%TO.P,J7,2,Pin_2*%
%TO.N,GND*%
X177000000Y-60450000D03*
D28*
%TO.P,J7,3,Pin_3*%
%TO.N,+3.3V*%
X179500000Y-60450000D03*
%TD*%
D32*
%TO.P,BAT1,1,Pin_1*%
%TO.N,GND*%
X210250000Y-88175000D03*
D33*
%TO.P,BAT1,2,Pin_2*%
%TO.N,Net-(BAT1-Pin_2)*%
X205250000Y-88175000D03*
%TD*%
D28*
%TO.P,J9,1,Pin_1*%
%TO.N,+3.3V*%
X163600000Y-60450000D03*
%TO.P,J9,2,Pin_2*%
%TO.N,P_IZ*%
X166100000Y-60450000D03*
D29*
%TO.P,J9,3,Pin_3*%
%TO.N,GND*%
X168600000Y-60450000D03*
%TD*%
D28*
%TO.P,J10,1,Pin_1*%
%TO.N,F_DER*%
X196300000Y-60450000D03*
D29*
%TO.P,J10,2,Pin_2*%
%TO.N,GND*%
X198800000Y-60450000D03*
D28*
%TO.P,J10,3,Pin_3*%
%TO.N,+3.3V*%
X201300000Y-60450000D03*
%TD*%
D34*
%TO.N,GND*%
X188500000Y-68100000D03*
X188250000Y-77450000D03*
%TO.N,Net-(D1-A)*%
X211750000Y-69800000D03*
%TO.N,Net-(D2-A)*%
X211800000Y-75000000D03*
%TO.N,EN*%
X183500000Y-77500000D03*
%TO.N,BOOT*%
X183200000Y-65600000D03*
%TO.N,TXDO*%
X164455000Y-66450000D03*
%TO.N,P_IZ*%
X164422167Y-62550000D03*
%TO.N,Net-(J2-Pin_2)*%
X226250000Y-69350000D03*
%TO.N,F_IZ*%
X174500000Y-67250000D03*
%TO.N,P_DER*%
X208500000Y-61726000D03*
X205750000Y-61726000D03*
X170800000Y-65350000D03*
%TO.N,FI_IZ*%
X212200000Y-67000000D03*
%TO.N,Net-(D8-A)*%
X191900000Y-68200000D03*
%TO.N,Net-(D9-A)*%
X198600000Y-68200000D03*
%TO.N,+5V*%
X187500000Y-85200000D03*
%TO.N,ACT*%
X183400000Y-72800000D03*
%TO.N,+3.3V*%
X192475000Y-79650000D03*
X188450000Y-72800000D03*
X205850000Y-73000000D03*
X201099000Y-75971700D03*
X202675000Y-73000000D03*
%TO.N,BI_IZ*%
X208525000Y-62675000D03*
%TO.N,M1*%
X175900000Y-80350000D03*
X193930000Y-70519000D03*
%TO.N,M2*%
X192950000Y-69919000D03*
X196470000Y-70480000D03*
%TD*%
D35*
%TO.N,GND*%
X188500000Y-68100000D02*
X189800000Y-68100000D01*
X198500000Y-64000000D02*
X198600000Y-64000000D01*
%TO.N,Net-(D1-A)*%
X213150000Y-69800000D02*
X213350000Y-70000000D01*
X211750000Y-69800000D02*
X213150000Y-69800000D01*
X213325000Y-69800000D02*
X213350000Y-69825000D01*
%TO.N,Net-(D2-A)*%
X211800000Y-75000000D02*
X213350000Y-75000000D01*
%TO.N,EN*%
X183500000Y-77500000D02*
X182000000Y-77500000D01*
X182000000Y-78750000D02*
X181100000Y-79650000D01*
X182000000Y-77500000D02*
X182000000Y-78750000D01*
X164050000Y-79650000D02*
X163185000Y-80515000D01*
X163185000Y-80515000D02*
X163185000Y-81900000D01*
X181100000Y-79650000D02*
X164050000Y-79650000D01*
X183550000Y-77500000D02*
X183500000Y-77500000D01*
%TO.N,Net-(LED1-DIN)*%
X169775000Y-86625000D02*
X171875000Y-86625000D01*
%TO.N,BOOT*%
X183200000Y-65600000D02*
X182000000Y-65600000D01*
X181400000Y-63900000D02*
X177155000Y-63900000D01*
X182000000Y-64500000D02*
X181400000Y-63900000D01*
X182000000Y-68100000D02*
X182000000Y-65600000D01*
X182000000Y-65600000D02*
X182000000Y-64500000D01*
%TO.N,TXDO*%
X164455000Y-66450000D02*
X164455000Y-63900000D01*
%TO.N,RXDO*%
X165725000Y-63900000D02*
X165725000Y-62525000D01*
X149950000Y-72900000D02*
X151100000Y-72900000D01*
X153001000Y-61949000D02*
X149675000Y-65275000D01*
X149675000Y-72625000D02*
X149950000Y-72900000D01*
X149675000Y-65275000D02*
X149675000Y-72625000D01*
X165725000Y-62525000D02*
X165149000Y-61949000D01*
X165149000Y-61949000D02*
X153001000Y-61949000D01*
%TO.N,P_IZ*%
X162100000Y-62550000D02*
X164422167Y-62550000D01*
X161915000Y-63900000D02*
X161915000Y-62735000D01*
X161915000Y-62735000D02*
X162100000Y-62550000D01*
D36*
%TO.N,Net-(LED2-DIN)*%
X183175000Y-86625000D02*
X180975000Y-86625000D01*
%TO.N,Net-(LED3-DIN)*%
X194575000Y-86625000D02*
X192375000Y-86625000D01*
D37*
%TO.N,Net-(J2-Pin_1)*%
X162078000Y-92028000D02*
X221147000Y-92028000D01*
X223105000Y-67525000D02*
X223050000Y-67470000D01*
X221147000Y-92028000D02*
X227300000Y-85875000D01*
X227300000Y-85875000D02*
X227300000Y-68225000D01*
X160725000Y-90675000D02*
X162078000Y-92028000D01*
X160725000Y-87975000D02*
X160725000Y-90675000D01*
X226600000Y-67525000D02*
X223105000Y-67525000D01*
X227300000Y-68225000D02*
X226600000Y-67525000D01*
X223050000Y-65047000D02*
X225645000Y-65047000D01*
X223050000Y-67470000D02*
X223050000Y-65047000D01*
%TO.N,Net-(J2-Pin_2)*%
X222250000Y-69350000D02*
X221030000Y-68130000D01*
X226250000Y-69350000D02*
X222250000Y-69350000D01*
X221030000Y-68130000D02*
X221030000Y-67525000D01*
X221030000Y-67525000D02*
X221030000Y-65512000D01*
X220565000Y-65047000D02*
X218025000Y-65047000D01*
%TO.N,Net-(J4-Pin_2)*%
X220565000Y-75325000D02*
X218025000Y-75325000D01*
X221030000Y-75865000D02*
X220490000Y-75325000D01*
X221030000Y-77625000D02*
X221030000Y-75865000D01*
%TO.N,Net-(J4-Pin_1)*%
X223105000Y-75325000D02*
X225645000Y-75325000D01*
X223105000Y-77625000D02*
X223105000Y-75325000D01*
D35*
%TO.N,F_IZ*%
X163270000Y-66570000D02*
X163270000Y-63984500D01*
X163945500Y-67245500D02*
X163270000Y-66570000D01*
X163270000Y-63984500D02*
X163185000Y-63900000D01*
X174595500Y-67245500D02*
X163945500Y-67245500D01*
X174600000Y-67250000D02*
X174595500Y-67245500D01*
%TO.N,F_FRE*%
X170171139Y-61950000D02*
X170274139Y-61847000D01*
X181953000Y-61847000D02*
X183350000Y-60450000D01*
X167000000Y-63905000D02*
X166995000Y-63900000D01*
X166995000Y-62455000D02*
X167500000Y-61950000D01*
X183350000Y-60450000D02*
X185400000Y-60450000D01*
X167500000Y-61950000D02*
X170171139Y-61950000D01*
X166995000Y-63900000D02*
X166995000Y-62455000D01*
X170274139Y-61847000D02*
X181953000Y-61847000D01*
%TO.N,F_DER*%
X194150000Y-60450000D02*
X196300000Y-60450000D01*
X169535000Y-63900000D02*
X169535000Y-63050001D01*
X192700000Y-61900000D02*
X194150000Y-60450000D01*
X182467100Y-61900000D02*
X192700000Y-61900000D01*
X169535000Y-63050001D02*
X170410001Y-62175000D01*
X182192100Y-62175000D02*
X182467100Y-61900000D01*
X170410001Y-62175000D02*
X182192100Y-62175000D01*
%TO.N,P_DER*%
X205750000Y-61726000D02*
X208500000Y-61726000D01*
X170805000Y-63900000D02*
X170805000Y-65345000D01*
X170805000Y-65345000D02*
X170800000Y-65350000D01*
%TO.N,FI_IZ*%
X212200000Y-67000000D02*
X204900000Y-67000000D01*
X204900000Y-67000000D02*
X200778300Y-71121700D01*
X179900000Y-66300000D02*
X179100000Y-65500000D01*
X179100000Y-65500000D02*
X174100000Y-65500000D01*
X174100000Y-65500000D02*
X173345000Y-64745000D01*
X179900000Y-70200000D02*
X179900000Y-66300000D01*
X173345000Y-64745000D02*
X173345000Y-63900000D01*
X200778300Y-71121700D02*
X180821700Y-71121700D01*
X180821700Y-71121700D02*
X179900000Y-70200000D01*
%TO.N,Net-(D8-A)*%
X191900000Y-68250000D02*
X191900000Y-66025000D01*
%TO.N,Net-(D9-A)*%
X198600000Y-66025000D02*
X198600000Y-68200000D01*
D36*
%TO.N,+5V*%
X183625000Y-87850000D02*
X187225000Y-87850000D01*
X175725000Y-87800000D02*
X176075000Y-87450000D01*
X187500000Y-85200000D02*
X187500000Y-86600000D01*
X183175000Y-88300000D02*
X183625000Y-87850000D01*
X183175000Y-89075000D02*
X183175000Y-88300000D01*
X187500000Y-86600000D02*
X187475000Y-86625000D01*
X194525000Y-89025000D02*
X192225000Y-89025000D01*
X183124000Y-89024000D02*
X180924000Y-89024000D01*
X187475000Y-87600000D02*
X187475000Y-86625000D01*
X171900000Y-89075000D02*
X171900000Y-88125000D01*
X194575000Y-89075000D02*
X194525000Y-89025000D01*
X167075000Y-86625000D02*
X169474000Y-89024000D01*
X192225000Y-89025000D02*
X189825000Y-86625000D01*
X187225000Y-87850000D02*
X187475000Y-87600000D01*
X183175000Y-89075000D02*
X183124000Y-89024000D01*
X169474000Y-89024000D02*
X171849000Y-89024000D01*
X172225000Y-87800000D02*
X175725000Y-87800000D01*
X178525000Y-86625000D02*
X176075000Y-86625000D01*
X171900000Y-88125000D02*
X172225000Y-87800000D01*
X164875000Y-86625000D02*
X167075000Y-86625000D01*
X180924000Y-89024000D02*
X178525000Y-86625000D01*
X176075000Y-87450000D02*
X176075000Y-86625000D01*
X171849000Y-89024000D02*
X171900000Y-89075000D01*
X189825000Y-86625000D02*
X187475000Y-86625000D01*
D35*
%TO.N,ACT*%
X179605000Y-77345000D02*
X179837520Y-77112480D01*
X178655000Y-77345000D02*
X179605000Y-77345000D01*
X179837520Y-73462480D02*
X180500000Y-72800000D01*
X180500000Y-72800000D02*
X182000000Y-72800000D01*
X179837520Y-77112480D02*
X179837520Y-73462480D01*
X182000000Y-72800000D02*
X183400000Y-72800000D01*
D37*
%TO.N,VCC*%
X210275000Y-80525000D02*
X210270000Y-80520000D01*
X218025000Y-72667000D02*
X218025000Y-69925000D01*
X218025000Y-80525000D02*
X218025000Y-82945000D01*
X218025000Y-80525000D02*
X210275000Y-80525000D01*
D35*
%TO.N,+3.3V*%
X182550000Y-59150000D02*
X181250000Y-60450000D01*
X161650000Y-83250000D02*
X153700000Y-83250000D01*
X153700000Y-83250000D02*
X152650000Y-82200000D01*
X192050000Y-60450000D02*
X190400000Y-60450000D01*
X200800000Y-77100000D02*
X196475000Y-77100000D01*
X152320000Y-67820000D02*
X151100000Y-67820000D01*
X179500000Y-59350000D02*
X179325000Y-59175000D01*
X161915000Y-82985000D02*
X161650000Y-83250000D01*
X201125000Y-59150000D02*
X193350000Y-59150000D01*
X163600000Y-59375000D02*
X163600000Y-60450000D01*
X201300000Y-60450000D02*
X207200000Y-60450000D01*
X193930000Y-77105000D02*
X193930000Y-79645000D01*
X196470000Y-77105000D02*
X193930000Y-77105000D01*
X201300000Y-59325000D02*
X201125000Y-59150000D01*
X193000000Y-72800000D02*
X193930000Y-73730000D01*
X152650000Y-82200000D02*
X152650000Y-68150000D01*
X179325000Y-59175000D02*
X163800000Y-59175000D01*
X193930000Y-79645000D02*
X193925000Y-79650000D01*
X181250000Y-60450000D02*
X179500000Y-60450000D01*
X193930000Y-73730000D02*
X193930000Y-74770000D01*
X201099000Y-76801000D02*
X200800000Y-77100000D01*
X192475000Y-79650000D02*
X193925000Y-79650000D01*
X190400000Y-60450000D02*
X190400000Y-59350000D01*
X190200000Y-59150000D02*
X182550000Y-59150000D01*
X193930000Y-74770000D02*
X193930000Y-77105000D01*
X190400000Y-59350000D02*
X190200000Y-59150000D01*
X179500000Y-60450000D02*
X179500000Y-59350000D01*
X193350000Y-59150000D02*
X192050000Y-60450000D01*
X205850000Y-73000000D02*
X202675000Y-73000000D01*
X201300000Y-60450000D02*
X201300000Y-59325000D01*
X188450000Y-72800000D02*
X189800000Y-72800000D01*
X196475000Y-77100000D02*
X196470000Y-77105000D01*
X152650000Y-68150000D02*
X152320000Y-67820000D01*
X201099000Y-75971700D02*
X201099000Y-76801000D01*
X161915000Y-81900000D02*
X161915000Y-82985000D01*
X189800000Y-72800000D02*
X193000000Y-72800000D01*
X163800000Y-59175000D02*
X163600000Y-59375000D01*
%TO.N,BI_IZ*%
X174830000Y-62700000D02*
X174615000Y-62915000D01*
X208375000Y-62700000D02*
X174830000Y-62700000D01*
X208400000Y-62675000D02*
X208375000Y-62700000D01*
X174615000Y-62915000D02*
X174615000Y-63900000D01*
X208525000Y-62675000D02*
X208400000Y-62675000D01*
%TO.N,BI_IZQ*%
X222750000Y-84600000D02*
X217350000Y-84600000D01*
X215998000Y-83248000D02*
X174873000Y-83248000D01*
X223030000Y-82945000D02*
X223030000Y-84320000D01*
X217350000Y-84600000D02*
X215998000Y-83248000D01*
X223030000Y-84320000D02*
X222750000Y-84600000D01*
X174873000Y-83248000D02*
X174615000Y-82990000D01*
X174615000Y-82990000D02*
X174615000Y-81900000D01*
%TO.N,BI_DER*%
X225249000Y-85001000D02*
X216901000Y-85001000D01*
X173900000Y-83775000D02*
X173345000Y-83220000D01*
X215675000Y-83775000D02*
X173900000Y-83775000D01*
X173345000Y-83220000D02*
X173345000Y-81900000D01*
X225570000Y-84680000D02*
X225249000Y-85001000D01*
X216901000Y-85001000D02*
X215675000Y-83775000D01*
X225570000Y-82945000D02*
X225570000Y-84680000D01*
%TO.N,WS3*%
X172649000Y-84249000D02*
X172075000Y-83675000D01*
X172075000Y-83675000D02*
X172075000Y-81900000D01*
X196049000Y-84249000D02*
X172649000Y-84249000D01*
X196575000Y-84775000D02*
X196049000Y-84249000D01*
X196575000Y-86625000D02*
X196575000Y-84775000D01*
%TO.N,WS2*%
X184725000Y-84650000D02*
X185175000Y-85100000D01*
X171400000Y-84650000D02*
X184725000Y-84650000D01*
X170805000Y-84055000D02*
X171400000Y-84650000D01*
X170805000Y-81900000D02*
X170805000Y-84055000D01*
X185175000Y-85100000D02*
X185175000Y-86625000D01*
%TO.N,WS1*%
X169535000Y-84410000D02*
X169535000Y-81900000D01*
X173501000Y-85051000D02*
X170176000Y-85051000D01*
X170176000Y-85051000D02*
X169535000Y-84410000D01*
X173875000Y-85425000D02*
X173501000Y-85051000D01*
X173875000Y-86625000D02*
X173875000Y-85425000D01*
%TO.N,M1*%
X175885000Y-80365000D02*
X175900000Y-80350000D01*
X175885000Y-81900000D02*
X175885000Y-80365000D01*
X193930000Y-68495000D02*
X193930000Y-65975000D01*
X193930000Y-70519000D02*
X193930000Y-68495000D01*
%TO.N,M2*%
X196470000Y-68495000D02*
X196470000Y-70480000D01*
X180301000Y-69351000D02*
X180301000Y-66133900D01*
X175900000Y-63885000D02*
X175885000Y-63900000D01*
X176185001Y-65050000D02*
X175885000Y-64749999D01*
X192950000Y-69919000D02*
X192919000Y-69950000D01*
X180900000Y-69950000D02*
X180301000Y-69351000D01*
X180301000Y-66133900D02*
X179217100Y-65050000D01*
X192919000Y-69950000D02*
X180900000Y-69950000D01*
X179217100Y-65050000D02*
X176185001Y-65050000D01*
X196470000Y-68495000D02*
X196470000Y-65975000D01*
X175885000Y-64749999D02*
X175885000Y-63900000D01*
%TD*%
%TA.AperFunction,Conductor*%
%TO.N,GND*%
G36*
X149455703Y-73255384D02*
G01*
X149462159Y-73261394D01*
X149581284Y-73380520D01*
X149581286Y-73380521D01*
X149581287Y-73380522D01*
X149581290Y-73380524D01*
X149714551Y-73457461D01*
X149718216Y-73459577D01*
X149839999Y-73492209D01*
X149899657Y-73528573D01*
X149918387Y-73555687D01*
X149944949Y-73607817D01*
X150069890Y-73779786D01*
X150069896Y-73779792D01*
X150220208Y-73930104D01*
X150220209Y-73930105D01*
X150220208Y-73930105D01*
X150225598Y-73934020D01*
X150268267Y-73989348D01*
X150274249Y-74058961D01*
X150241647Y-74120758D01*
X150191729Y-74152046D01*
X150180881Y-74155641D01*
X150180875Y-74155643D01*
X150031654Y-74247684D01*
X149907684Y-74371654D01*
X149815643Y-74520875D01*
X149815641Y-74520880D01*
X149760494Y-74687302D01*
X149760493Y-74687309D01*
X149750000Y-74790013D01*
X149750000Y-75190000D01*
X150666988Y-75190000D01*
X150634075Y-75247007D01*
X150600000Y-75374174D01*
X150600000Y-75505826D01*
X150634075Y-75632993D01*
X150666988Y-75690000D01*
X149750001Y-75690000D01*
X149750001Y-76089986D01*
X149760494Y-76192697D01*
X149815641Y-76359119D01*
X149815643Y-76359124D01*
X149907684Y-76508345D01*
X150031654Y-76632315D01*
X150180875Y-76724356D01*
X150180880Y-76724358D01*
X150347302Y-76779505D01*
X150347309Y-76779506D01*
X150450019Y-76789999D01*
X150849999Y-76789999D01*
X150850000Y-76789998D01*
X150850000Y-75873012D01*
X150907007Y-75905925D01*
X151034174Y-75940000D01*
X151165826Y-75940000D01*
X151292993Y-75905925D01*
X151350000Y-75873012D01*
X151350000Y-76789999D01*
X151749972Y-76789999D01*
X151749986Y-76789998D01*
X151852697Y-76779505D01*
X151886496Y-76768306D01*
X151956324Y-76765904D01*
X152016366Y-76801636D01*
X152047559Y-76864156D01*
X152049500Y-76886012D01*
X152049500Y-82113330D01*
X152049499Y-82113348D01*
X152049499Y-82279054D01*
X152049498Y-82279054D01*
X152049499Y-82279057D01*
X152090423Y-82431785D01*
X152090424Y-82431786D01*
X152106468Y-82459577D01*
X152106469Y-82459578D01*
X152169475Y-82568709D01*
X152169481Y-82568717D01*
X152288349Y-82687585D01*
X152288355Y-82687590D01*
X153215139Y-83614374D01*
X153215149Y-83614385D01*
X153219479Y-83618715D01*
X153219480Y-83618716D01*
X153331284Y-83730520D01*
X153397035Y-83768481D01*
X153468215Y-83809577D01*
X153620942Y-83850500D01*
X153620943Y-83850500D01*
X161563331Y-83850500D01*
X161563347Y-83850501D01*
X161570943Y-83850501D01*
X161729054Y-83850501D01*
X161729057Y-83850501D01*
X161881785Y-83809577D01*
X161952965Y-83768481D01*
X162018716Y-83730520D01*
X162130520Y-83618716D01*
X162130520Y-83618715D01*
X162147948Y-83601287D01*
X162147953Y-83601280D01*
X162395520Y-83353716D01*
X162450848Y-83257883D01*
X162501412Y-83209669D01*
X162570019Y-83196445D01*
X162605684Y-83205322D01*
X162677499Y-83235069D01*
X162794708Y-83250500D01*
X162794715Y-83250500D01*
X163575285Y-83250500D01*
X163575292Y-83250500D01*
X163692501Y-83235069D01*
X163772549Y-83201911D01*
X163842016Y-83194443D01*
X163867446Y-83201910D01*
X163947499Y-83235069D01*
X164064708Y-83250500D01*
X164064715Y-83250500D01*
X164845285Y-83250500D01*
X164845292Y-83250500D01*
X164962501Y-83235069D01*
X165042549Y-83201911D01*
X165112016Y-83194443D01*
X165137446Y-83201910D01*
X165217499Y-83235069D01*
X165334708Y-83250500D01*
X165334715Y-83250500D01*
X166115285Y-83250500D01*
X166115292Y-83250500D01*
X166232501Y-83235069D01*
X166312549Y-83201911D01*
X166382016Y-83194443D01*
X166407446Y-83201910D01*
X166487499Y-83235069D01*
X166604708Y-83250500D01*
X166604715Y-83250500D01*
X167385285Y-83250500D01*
X167385292Y-83250500D01*
X167502501Y-83235069D01*
X167582549Y-83201911D01*
X167652016Y-83194443D01*
X167677446Y-83201910D01*
X167757499Y-83235069D01*
X167874708Y-83250500D01*
X167874715Y-83250500D01*
X168655285Y-83250500D01*
X168655292Y-83250500D01*
X168772501Y-83235069D01*
X168772508Y-83235065D01*
X168778406Y-83233486D01*
X168848256Y-83235149D01*
X168906118Y-83274311D01*
X168933623Y-83338539D01*
X168934500Y-83353261D01*
X168934500Y-84323330D01*
X168934499Y-84323348D01*
X168934499Y-84489054D01*
X168934498Y-84489054D01*
X168968132Y-84614577D01*
X168975423Y-84641785D01*
X168992879Y-84672019D01*
X169043129Y-84759055D01*
X169054479Y-84778714D01*
X169054481Y-84778717D01*
X169173349Y-84897585D01*
X169173355Y-84897590D01*
X169695478Y-85419713D01*
X169695480Y-85419716D01*
X169703855Y-85428091D01*
X169738584Y-85462821D01*
X169772068Y-85524144D01*
X169770144Y-85551031D01*
X169767083Y-85593834D01*
X169767082Y-85593835D01*
X169767082Y-85593836D01*
X169760549Y-85602562D01*
X169725211Y-85649767D01*
X169725210Y-85649767D01*
X169725209Y-85649769D01*
X169692384Y-85662011D01*
X169659747Y-85674184D01*
X169650901Y-85674500D01*
X169076296Y-85674500D01*
X168960857Y-85689696D01*
X168960848Y-85689699D01*
X168817205Y-85749198D01*
X168817202Y-85749199D01*
X168817202Y-85749200D01*
X168693851Y-85843851D01*
X168604789Y-85959919D01*
X168599198Y-85967205D01*
X168539699Y-86110848D01*
X168539698Y-86110850D01*
X168524500Y-86226298D01*
X168524500Y-86713770D01*
X168504815Y-86780809D01*
X168452011Y-86826564D01*
X168382853Y-86836508D01*
X168319297Y-86807483D01*
X168312819Y-86801451D01*
X167553421Y-86042052D01*
X167553414Y-86042046D01*
X167465125Y-85983054D01*
X167465124Y-85983054D01*
X167430500Y-85959919D01*
X167430488Y-85959912D01*
X167293917Y-85903343D01*
X167293907Y-85903340D01*
X167148920Y-85874500D01*
X167148918Y-85874500D01*
X166038160Y-85874500D01*
X165971121Y-85854815D01*
X165963000Y-85848271D01*
X165962596Y-85848799D01*
X165956150Y-85843853D01*
X165956149Y-85843851D01*
X165832798Y-85749200D01*
X165832794Y-85749198D01*
X165689151Y-85689699D01*
X165689149Y-85689698D01*
X165573701Y-85674500D01*
X164176296Y-85674500D01*
X164060857Y-85689696D01*
X164060848Y-85689699D01*
X163917205Y-85749198D01*
X163917202Y-85749199D01*
X163917202Y-85749200D01*
X163793851Y-85843851D01*
X163704789Y-85959919D01*
X163699198Y-85967205D01*
X163639699Y-86110848D01*
X163639698Y-86110850D01*
X163624500Y-86226298D01*
X163624500Y-87023703D01*
X163639696Y-87139142D01*
X163639699Y-87139151D01*
X163676417Y-87227797D01*
X163699200Y-87282798D01*
X163793851Y-87406149D01*
X163917202Y-87500800D01*
X164060849Y-87560301D01*
X164176299Y-87575500D01*
X165573700Y-87575499D01*
X165573703Y-87575499D01*
X165689142Y-87560303D01*
X165689146Y-87560301D01*
X165689151Y-87560301D01*
X165832798Y-87500800D01*
X165956149Y-87406149D01*
X165956150Y-87406146D01*
X165962596Y-87401201D01*
X165964759Y-87404021D01*
X166011802Y-87378334D01*
X166038160Y-87375500D01*
X166712770Y-87375500D01*
X166779809Y-87395185D01*
X166800451Y-87411819D01*
X167821585Y-88432953D01*
X168557583Y-89168950D01*
X168591068Y-89230273D01*
X168586084Y-89299965D01*
X168584463Y-89304083D01*
X168540187Y-89410975D01*
X168540185Y-89410980D01*
X168525000Y-89526329D01*
X168525000Y-89675000D01*
X169061095Y-89675000D01*
X169112418Y-89687856D01*
X169112876Y-89686753D01*
X169255082Y-89745656D01*
X169255087Y-89745658D01*
X169255091Y-89745658D01*
X169255092Y-89745659D01*
X169400079Y-89774500D01*
X169400082Y-89774500D01*
X169651000Y-89774500D01*
X169718039Y-89794185D01*
X169763794Y-89846989D01*
X169775000Y-89898500D01*
X169775000Y-89925000D01*
X169901000Y-89925000D01*
X169968039Y-89944685D01*
X170013794Y-89997489D01*
X170025000Y-90049000D01*
X170025000Y-90875000D01*
X170473671Y-90875000D01*
X170589019Y-90859814D01*
X170589024Y-90859812D01*
X170732541Y-90800366D01*
X170732542Y-90800366D01*
X170855792Y-90705792D01*
X170950366Y-90582542D01*
X170950366Y-90582541D01*
X171009812Y-90439024D01*
X171009814Y-90439018D01*
X171020527Y-90357643D01*
X171048793Y-90293746D01*
X171107117Y-90255274D01*
X171176982Y-90254442D01*
X171182407Y-90256101D01*
X171284703Y-90289999D01*
X171387491Y-90300500D01*
X172162508Y-90300499D01*
X172162516Y-90300498D01*
X172162519Y-90300498D01*
X172228616Y-90293746D01*
X172265297Y-90289999D01*
X172431834Y-90234814D01*
X172581156Y-90142712D01*
X172705212Y-90018656D01*
X172707252Y-90015347D01*
X172709245Y-90013555D01*
X172709693Y-90012989D01*
X172709789Y-90013065D01*
X172759194Y-89968623D01*
X172828156Y-89957395D01*
X172892240Y-89985234D01*
X172918329Y-90015339D01*
X172920181Y-90018341D01*
X172920183Y-90018344D01*
X173044154Y-90142315D01*
X173193375Y-90234356D01*
X173193380Y-90234358D01*
X173359802Y-90289505D01*
X173359809Y-90289506D01*
X173462519Y-90299999D01*
X173599999Y-90299999D01*
X173600000Y-90299998D01*
X173600000Y-89325000D01*
X174100000Y-89325000D01*
X174100000Y-90299999D01*
X174237472Y-90299999D01*
X174237486Y-90299998D01*
X174340197Y-90289505D01*
X174506619Y-90234358D01*
X174506630Y-90234353D01*
X174635403Y-90154925D01*
X174702795Y-90136484D01*
X174769459Y-90157406D01*
X174814228Y-90211048D01*
X174824500Y-90260461D01*
X174824500Y-90323702D01*
X174839696Y-90439142D01*
X174839699Y-90439151D01*
X174899093Y-90582541D01*
X174899200Y-90582798D01*
X174993851Y-90706149D01*
X175117202Y-90800800D01*
X175260849Y-90860301D01*
X175376299Y-90875500D01*
X176773700Y-90875499D01*
X176773703Y-90875499D01*
X176889142Y-90860303D01*
X176889146Y-90860301D01*
X176889151Y-90860301D01*
X177032798Y-90800800D01*
X177156149Y-90706149D01*
X177250800Y-90582798D01*
X177310301Y-90439151D01*
X177325500Y-90323701D01*
X177325500Y-90323670D01*
X179725000Y-90323670D01*
X179740185Y-90439019D01*
X179740187Y-90439024D01*
X179799633Y-90582541D01*
X179799633Y-90582542D01*
X179894207Y-90705792D01*
X180017458Y-90800366D01*
X180160975Y-90859812D01*
X180160980Y-90859814D01*
X180276329Y-90875000D01*
X180725000Y-90875000D01*
X180725000Y-90175000D01*
X179725000Y-90175000D01*
X179725000Y-90323670D01*
X177325500Y-90323670D01*
X177325499Y-89925000D01*
X177325499Y-89526296D01*
X177310303Y-89410857D01*
X177310301Y-89410850D01*
X177310301Y-89410849D01*
X177250800Y-89267202D01*
X177156149Y-89143851D01*
X177032798Y-89049200D01*
X177032794Y-89049198D01*
X176889151Y-88989699D01*
X176889149Y-88989698D01*
X176773701Y-88974500D01*
X175376296Y-88974500D01*
X175260857Y-88989696D01*
X175260848Y-88989699D01*
X175117205Y-89049198D01*
X175117202Y-89049199D01*
X175117202Y-89049200D01*
X174993851Y-89143851D01*
X174899200Y-89267202D01*
X174899199Y-89267204D01*
X174894253Y-89273650D01*
X174892149Y-89272036D01*
X174851057Y-89311216D01*
X174794239Y-89325000D01*
X174100000Y-89325000D01*
X173600000Y-89325000D01*
X173600000Y-89199000D01*
X173619685Y-89131961D01*
X173672489Y-89086206D01*
X173724000Y-89075000D01*
X173850000Y-89075000D01*
X173850000Y-88949000D01*
X173869685Y-88881961D01*
X173922489Y-88836206D01*
X173974000Y-88825000D01*
X174937499Y-88825000D01*
X174937499Y-88674500D01*
X174957184Y-88607461D01*
X175009988Y-88561706D01*
X175061499Y-88550500D01*
X175798920Y-88550500D01*
X175896462Y-88531096D01*
X175943913Y-88521658D01*
X176080495Y-88465084D01*
X176129823Y-88432124D01*
X176203416Y-88382952D01*
X176657952Y-87928416D01*
X176726717Y-87825500D01*
X176740084Y-87805495D01*
X176772632Y-87726918D01*
X176796659Y-87668912D01*
X176801723Y-87643451D01*
X176806723Y-87631686D01*
X176821105Y-87614167D01*
X176831612Y-87594082D01*
X176843206Y-87587249D01*
X176851059Y-87577685D01*
X176869577Y-87571708D01*
X176882037Y-87564365D01*
X176881642Y-87563411D01*
X176888426Y-87560600D01*
X176888757Y-87560406D01*
X176889145Y-87560301D01*
X176889151Y-87560301D01*
X177032798Y-87500800D01*
X177156149Y-87406149D01*
X177156150Y-87406146D01*
X177162596Y-87401201D01*
X177164759Y-87404021D01*
X177211802Y-87378334D01*
X177238160Y-87375500D01*
X178162770Y-87375500D01*
X178229809Y-87395185D01*
X178250451Y-87411819D01*
X179329758Y-88491126D01*
X179855794Y-89017161D01*
X179889279Y-89078484D01*
X179884295Y-89148176D01*
X179866489Y-89180328D01*
X179799636Y-89267453D01*
X179799633Y-89267458D01*
X179740187Y-89410975D01*
X179740185Y-89410980D01*
X179725000Y-89526329D01*
X179725000Y-89675000D01*
X180511095Y-89675000D01*
X180562418Y-89687856D01*
X180562876Y-89686753D01*
X180705082Y-89745656D01*
X180705087Y-89745658D01*
X180705091Y-89745658D01*
X180705092Y-89745659D01*
X180850079Y-89774500D01*
X180850082Y-89774500D01*
X180851000Y-89774500D01*
X180851464Y-89774636D01*
X180856142Y-89775097D01*
X180856054Y-89775984D01*
X180918039Y-89794185D01*
X180963794Y-89846989D01*
X180975000Y-89898500D01*
X180975000Y-89925000D01*
X181101000Y-89925000D01*
X181168039Y-89944685D01*
X181213794Y-89997489D01*
X181225000Y-90049000D01*
X181225000Y-90875000D01*
X181673671Y-90875000D01*
X181789019Y-90859814D01*
X181789024Y-90859812D01*
X181932541Y-90800366D01*
X181932542Y-90800366D01*
X182055792Y-90705792D01*
X182150366Y-90582542D01*
X182150366Y-90582541D01*
X182209812Y-90439024D01*
X182209814Y-90439019D01*
X182225000Y-90323670D01*
X182225000Y-90276162D01*
X182244685Y-90209123D01*
X182297489Y-90163368D01*
X182366647Y-90153424D01*
X182414092Y-90170621D01*
X182518166Y-90234814D01*
X182684703Y-90289999D01*
X182787491Y-90300500D01*
X183562508Y-90300499D01*
X183562516Y-90300498D01*
X183562519Y-90300498D01*
X183628616Y-90293746D01*
X183665297Y-90289999D01*
X183831834Y-90234814D01*
X183981156Y-90142712D01*
X184105212Y-90018656D01*
X184107252Y-90015347D01*
X184109245Y-90013555D01*
X184109693Y-90012989D01*
X184109789Y-90013065D01*
X184159194Y-89968623D01*
X184228156Y-89957395D01*
X184292240Y-89985234D01*
X184318329Y-90015339D01*
X184320181Y-90018341D01*
X184320183Y-90018344D01*
X184444154Y-90142315D01*
X184593375Y-90234356D01*
X184593380Y-90234358D01*
X184759802Y-90289505D01*
X184759809Y-90289506D01*
X184862519Y-90299999D01*
X184999999Y-90299999D01*
X185000000Y-90299998D01*
X185000000Y-89325000D01*
X185500000Y-89325000D01*
X185500000Y-90299999D01*
X185637472Y-90299999D01*
X185637486Y-90299998D01*
X185740197Y-90289505D01*
X185906619Y-90234358D01*
X185906630Y-90234353D01*
X186035403Y-90154925D01*
X186102795Y-90136484D01*
X186169459Y-90157406D01*
X186214228Y-90211048D01*
X186224500Y-90260461D01*
X186224500Y-90323702D01*
X186239696Y-90439142D01*
X186239699Y-90439151D01*
X186299093Y-90582541D01*
X186299200Y-90582798D01*
X186393851Y-90706149D01*
X186517202Y-90800800D01*
X186660849Y-90860301D01*
X186776299Y-90875500D01*
X188173700Y-90875499D01*
X188173703Y-90875499D01*
X188289142Y-90860303D01*
X188289146Y-90860301D01*
X188289151Y-90860301D01*
X188432798Y-90800800D01*
X188556149Y-90706149D01*
X188650800Y-90582798D01*
X188710301Y-90439151D01*
X188725500Y-90323701D01*
X188725500Y-90323670D01*
X191125000Y-90323670D01*
X191140185Y-90439019D01*
X191140187Y-90439024D01*
X191199633Y-90582541D01*
X191199633Y-90582542D01*
X191294207Y-90705792D01*
X191417458Y-90800366D01*
X191560975Y-90859812D01*
X191560980Y-90859814D01*
X191676329Y-90875000D01*
X192125000Y-90875000D01*
X192125000Y-90175000D01*
X191125000Y-90175000D01*
X191125000Y-90323670D01*
X188725500Y-90323670D01*
X188725499Y-89925000D01*
X188725499Y-89526296D01*
X188710303Y-89410857D01*
X188710301Y-89410850D01*
X188710301Y-89410849D01*
X188650800Y-89267202D01*
X188556149Y-89143851D01*
X188432798Y-89049200D01*
X188432794Y-89049198D01*
X188289151Y-88989699D01*
X188289149Y-88989698D01*
X188173701Y-88974500D01*
X186776296Y-88974500D01*
X186660857Y-88989696D01*
X186660848Y-88989699D01*
X186517205Y-89049198D01*
X186517202Y-89049199D01*
X186517202Y-89049200D01*
X186393851Y-89143851D01*
X186299200Y-89267202D01*
X186299199Y-89267204D01*
X186294253Y-89273650D01*
X186292149Y-89272036D01*
X186251057Y-89311216D01*
X186194239Y-89325000D01*
X185500000Y-89325000D01*
X185000000Y-89325000D01*
X185000000Y-89199000D01*
X185019685Y-89131961D01*
X185072489Y-89086206D01*
X185124000Y-89075000D01*
X185250000Y-89075000D01*
X185250000Y-88949000D01*
X185269685Y-88881961D01*
X185322489Y-88836206D01*
X185374000Y-88825000D01*
X186337499Y-88825000D01*
X186337499Y-88724500D01*
X186357184Y-88657461D01*
X186409988Y-88611706D01*
X186461499Y-88600500D01*
X187298920Y-88600500D01*
X187396462Y-88581096D01*
X187443913Y-88571658D01*
X187580495Y-88515084D01*
X187632263Y-88480494D01*
X187632263Y-88480493D01*
X187632265Y-88480493D01*
X187691013Y-88441239D01*
X187703416Y-88432952D01*
X188057951Y-88078416D01*
X188140084Y-87955495D01*
X188196658Y-87818913D01*
X188212541Y-87739064D01*
X188225500Y-87673920D01*
X188225500Y-87669519D01*
X188245185Y-87602480D01*
X188297989Y-87556725D01*
X188302007Y-87554975D01*
X188432793Y-87500802D01*
X188432794Y-87500802D01*
X188432794Y-87500801D01*
X188432798Y-87500800D01*
X188556149Y-87406149D01*
X188556150Y-87406146D01*
X188562596Y-87401201D01*
X188564759Y-87404021D01*
X188611802Y-87378334D01*
X188638160Y-87375500D01*
X189462770Y-87375500D01*
X189529809Y-87395185D01*
X189550451Y-87411819D01*
X190571585Y-88432953D01*
X191212376Y-89073743D01*
X191245861Y-89135066D01*
X191240877Y-89204758D01*
X191223073Y-89236907D01*
X191199637Y-89267451D01*
X191140186Y-89410978D01*
X191140185Y-89410980D01*
X191125000Y-89526329D01*
X191125000Y-89675000D01*
X191810224Y-89675000D01*
X191819402Y-89676896D01*
X191825311Y-89675921D01*
X191845326Y-89682253D01*
X191859376Y-89685157D01*
X191867162Y-89688518D01*
X191869505Y-89690084D01*
X191900197Y-89702797D01*
X192006088Y-89746659D01*
X192122241Y-89769763D01*
X192151082Y-89775500D01*
X192151083Y-89775500D01*
X192254298Y-89775500D01*
X192257575Y-89775674D01*
X192287556Y-89786234D01*
X192318039Y-89795185D01*
X192320266Y-89797755D01*
X192323476Y-89798886D01*
X192342991Y-89823981D01*
X192363794Y-89847989D01*
X192364622Y-89851797D01*
X192366367Y-89854041D01*
X192367253Y-89863891D01*
X192375000Y-89899500D01*
X192375000Y-89925000D01*
X192501000Y-89925000D01*
X192568039Y-89944685D01*
X192613794Y-89997489D01*
X192625000Y-90049000D01*
X192625000Y-90875000D01*
X193073671Y-90875000D01*
X193189019Y-90859814D01*
X193189024Y-90859812D01*
X193332541Y-90800366D01*
X193332542Y-90800366D01*
X193455792Y-90705792D01*
X193550366Y-90582542D01*
X193550366Y-90582541D01*
X193609812Y-90439024D01*
X193609814Y-90439019D01*
X193625000Y-90323670D01*
X193625000Y-90276162D01*
X193644685Y-90209123D01*
X193697489Y-90163368D01*
X193766647Y-90153424D01*
X193814092Y-90170621D01*
X193918166Y-90234814D01*
X194084703Y-90289999D01*
X194187491Y-90300500D01*
X194962508Y-90300499D01*
X194962516Y-90300498D01*
X194962519Y-90300498D01*
X195028616Y-90293746D01*
X195065297Y-90289999D01*
X195231834Y-90234814D01*
X195381156Y-90142712D01*
X195505212Y-90018656D01*
X195507252Y-90015347D01*
X195509245Y-90013555D01*
X195509693Y-90012989D01*
X195509789Y-90013065D01*
X195559194Y-89968623D01*
X195628156Y-89957395D01*
X195692240Y-89985234D01*
X195718329Y-90015339D01*
X195720181Y-90018341D01*
X195720183Y-90018344D01*
X195844154Y-90142315D01*
X195993375Y-90234356D01*
X195993380Y-90234358D01*
X196159802Y-90289505D01*
X196159809Y-90289506D01*
X196262519Y-90299999D01*
X196399999Y-90299999D01*
X196900000Y-90299999D01*
X197037472Y-90299999D01*
X197037486Y-90299998D01*
X197140197Y-90289505D01*
X197306619Y-90234358D01*
X197306624Y-90234356D01*
X197455845Y-90142315D01*
X197579815Y-90018345D01*
X197671856Y-89869124D01*
X197671858Y-89869119D01*
X197727005Y-89702697D01*
X197727006Y-89702690D01*
X197737499Y-89599986D01*
X197737500Y-89599973D01*
X197737500Y-89325000D01*
X196900000Y-89325000D01*
X196900000Y-90299999D01*
X196399999Y-90299999D01*
X196400000Y-90299998D01*
X196400000Y-89199000D01*
X196419685Y-89131961D01*
X196472489Y-89086206D01*
X196524000Y-89075000D01*
X196650000Y-89075000D01*
X196650000Y-88949000D01*
X196669685Y-88881961D01*
X196722489Y-88836206D01*
X196774000Y-88825000D01*
X197737499Y-88825000D01*
X197737499Y-88550028D01*
X197737498Y-88550013D01*
X197727005Y-88447302D01*
X197671858Y-88280880D01*
X197671856Y-88280875D01*
X197579815Y-88131654D01*
X197455845Y-88007684D01*
X197320264Y-87924057D01*
X197273540Y-87872109D01*
X197262317Y-87803146D01*
X197290161Y-87739064D01*
X197320262Y-87712981D01*
X197393656Y-87667712D01*
X197517712Y-87543656D01*
X197609814Y-87394334D01*
X197664999Y-87227797D01*
X197675500Y-87125009D01*
X197675499Y-86124992D01*
X197674951Y-86119632D01*
X197664999Y-86022203D01*
X197664998Y-86022200D01*
X197609814Y-85855666D01*
X197517712Y-85706344D01*
X197393656Y-85582288D01*
X197244334Y-85490186D01*
X197244332Y-85490185D01*
X197238187Y-85486395D01*
X197239290Y-85484605D01*
X197194649Y-85445290D01*
X197175500Y-85379091D01*
X197175500Y-84695941D01*
X197175499Y-84695939D01*
X197175266Y-84695068D01*
X197175173Y-84694724D01*
X197153698Y-84614577D01*
X197134577Y-84543216D01*
X197133609Y-84541539D01*
X197131013Y-84531971D01*
X197131577Y-84504650D01*
X197128658Y-84477472D01*
X197132288Y-84470220D01*
X197132456Y-84462116D01*
X197147702Y-84439436D01*
X197159939Y-84414996D01*
X197166912Y-84410859D01*
X197171436Y-84404130D01*
X197196526Y-84393292D01*
X197220031Y-84379349D01*
X197232401Y-84377795D01*
X197235577Y-84376424D01*
X197238926Y-84376976D01*
X197250686Y-84375500D01*
X199079027Y-84375500D01*
X199146066Y-84395185D01*
X199191821Y-84447989D01*
X199201765Y-84517147D01*
X199172740Y-84580703D01*
X199151912Y-84599818D01*
X199052539Y-84672016D01*
X199052535Y-84672020D01*
X198912021Y-84812533D01*
X198795213Y-84973305D01*
X198704994Y-85150367D01*
X198704993Y-85150370D01*
X198643587Y-85339362D01*
X198620182Y-85487136D01*
X198612500Y-85535639D01*
X198612500Y-85734361D01*
X198617898Y-85768440D01*
X198643587Y-85930637D01*
X198704993Y-86119629D01*
X198704994Y-86119632D01*
X198795213Y-86296694D01*
X198912019Y-86457464D01*
X199052536Y-86597981D01*
X199213306Y-86714787D01*
X199294862Y-86756342D01*
X199369780Y-86794515D01*
X199420576Y-86842490D01*
X199437371Y-86910311D01*
X199414833Y-86976446D01*
X199369780Y-87015485D01*
X199213305Y-87095213D01*
X199052533Y-87212021D01*
X198912021Y-87352533D01*
X198795213Y-87513305D01*
X198704994Y-87690367D01*
X198704993Y-87690370D01*
X198643587Y-87879362D01*
X198612500Y-88075639D01*
X198612500Y-88274360D01*
X198643587Y-88470637D01*
X198704993Y-88659629D01*
X198704994Y-88659632D01*
X198763786Y-88775016D01*
X198795213Y-88836694D01*
X198912019Y-88997464D01*
X199052536Y-89137981D01*
X199213306Y-89254787D01*
X199324054Y-89311216D01*
X199369780Y-89334515D01*
X199420576Y-89382490D01*
X199437371Y-89450311D01*
X199414833Y-89516446D01*
X199369780Y-89555485D01*
X199213305Y-89635213D01*
X199052533Y-89752021D01*
X198912021Y-89892533D01*
X198795213Y-90053305D01*
X198704994Y-90230367D01*
X198704993Y-90230370D01*
X198643587Y-90419362D01*
X198612500Y-90615639D01*
X198612500Y-90814360D01*
X198643586Y-91010636D01*
X198645063Y-91015179D01*
X198647060Y-91085020D01*
X198610981Y-91144854D01*
X198548281Y-91175683D01*
X198527133Y-91177500D01*
X162481651Y-91177500D01*
X162414612Y-91157815D01*
X162393970Y-91141181D01*
X161611819Y-90359030D01*
X161578334Y-90297707D01*
X161575500Y-90271349D01*
X161575500Y-89526298D01*
X163624500Y-89526298D01*
X163624500Y-90323703D01*
X163639696Y-90439142D01*
X163639699Y-90439151D01*
X163699093Y-90582541D01*
X163699200Y-90582798D01*
X163793851Y-90706149D01*
X163917202Y-90800800D01*
X164060849Y-90860301D01*
X164176299Y-90875500D01*
X165573700Y-90875499D01*
X165573703Y-90875499D01*
X165689142Y-90860303D01*
X165689146Y-90860301D01*
X165689151Y-90860301D01*
X165832798Y-90800800D01*
X165956149Y-90706149D01*
X166050800Y-90582798D01*
X166110301Y-90439151D01*
X166125500Y-90323701D01*
X166125500Y-90323670D01*
X168525000Y-90323670D01*
X168540185Y-90439019D01*
X168540187Y-90439024D01*
X168599633Y-90582541D01*
X168599633Y-90582542D01*
X168694207Y-90705792D01*
X168817458Y-90800366D01*
X168960975Y-90859812D01*
X168960980Y-90859814D01*
X169076329Y-90875000D01*
X169525000Y-90875000D01*
X169525000Y-90175000D01*
X168525000Y-90175000D01*
X168525000Y-90323670D01*
X166125500Y-90323670D01*
X166125499Y-89925000D01*
X166125499Y-89526296D01*
X166110303Y-89410857D01*
X166110301Y-89410850D01*
X166110301Y-89410849D01*
X166050800Y-89267202D01*
X165956149Y-89143851D01*
X165832798Y-89049200D01*
X165832794Y-89049198D01*
X165689151Y-88989699D01*
X165689149Y-88989698D01*
X165573701Y-88974500D01*
X164176296Y-88974500D01*
X164060857Y-88989696D01*
X164060848Y-88989699D01*
X163917205Y-89049198D01*
X163917202Y-89049199D01*
X163917202Y-89049200D01*
X163793851Y-89143851D01*
X163708727Y-89254787D01*
X163699198Y-89267205D01*
X163639699Y-89410848D01*
X163639698Y-89410850D01*
X163624500Y-89526298D01*
X161575500Y-89526298D01*
X161575500Y-89520908D01*
X161595185Y-89453869D01*
X161639271Y-89415363D01*
X161638187Y-89413605D01*
X161644332Y-89409814D01*
X161644334Y-89409814D01*
X161793656Y-89317712D01*
X161917712Y-89193656D01*
X162009814Y-89044334D01*
X162064999Y-88877797D01*
X162075500Y-88775009D01*
X162075499Y-87174992D01*
X162067349Y-87095213D01*
X162064999Y-87072203D01*
X162064998Y-87072200D01*
X162009814Y-86905666D01*
X161917712Y-86756344D01*
X161793656Y-86632288D01*
X161682570Y-86563770D01*
X161644336Y-86540187D01*
X161644331Y-86540185D01*
X161616033Y-86530808D01*
X161477797Y-86485001D01*
X161477795Y-86485000D01*
X161375010Y-86474500D01*
X160074998Y-86474500D01*
X160074981Y-86474501D01*
X159972203Y-86485000D01*
X159972200Y-86485001D01*
X159805668Y-86540185D01*
X159805663Y-86540187D01*
X159656342Y-86632289D01*
X159532289Y-86756342D01*
X159436821Y-86911121D01*
X159384873Y-86957845D01*
X159315910Y-86969068D01*
X159251828Y-86941224D01*
X159243601Y-86933705D01*
X159104786Y-86794890D01*
X158932820Y-86669951D01*
X158743414Y-86573444D01*
X158743413Y-86573443D01*
X158743412Y-86573443D01*
X158541243Y-86507754D01*
X158541241Y-86507753D01*
X158541240Y-86507753D01*
X158379957Y-86482208D01*
X158331287Y-86474500D01*
X158118713Y-86474500D01*
X158070042Y-86482208D01*
X157908760Y-86507753D01*
X157706585Y-86573444D01*
X157517179Y-86669951D01*
X157345213Y-86794890D01*
X157194890Y-86945213D01*
X157069951Y-87117179D01*
X156973444Y-87306585D01*
X156973443Y-87306587D01*
X156973443Y-87306588D01*
X156958514Y-87352536D01*
X156907753Y-87508760D01*
X156880490Y-87680896D01*
X156874500Y-87718713D01*
X156874500Y-88231287D01*
X156879257Y-88261321D01*
X156906440Y-88432952D01*
X156907754Y-88441243D01*
X156957554Y-88594512D01*
X156973444Y-88643414D01*
X157069951Y-88832820D01*
X157194890Y-89004786D01*
X157345213Y-89155109D01*
X157517179Y-89280048D01*
X157517181Y-89280049D01*
X157517184Y-89280051D01*
X157706588Y-89376557D01*
X157908757Y-89442246D01*
X158118713Y-89475500D01*
X158118714Y-89475500D01*
X158331286Y-89475500D01*
X158331287Y-89475500D01*
X158541243Y-89442246D01*
X158743412Y-89376557D01*
X158932816Y-89280051D01*
X159079549Y-89173444D01*
X159104784Y-89155110D01*
X159104784Y-89155109D01*
X159104792Y-89155104D01*
X159243604Y-89016291D01*
X159304923Y-88982809D01*
X159374615Y-88987793D01*
X159430549Y-89029664D01*
X159436821Y-89038878D01*
X159440185Y-89044333D01*
X159440186Y-89044334D01*
X159532288Y-89193656D01*
X159656344Y-89317712D01*
X159805666Y-89409814D01*
X159805667Y-89409814D01*
X159811813Y-89413605D01*
X159810706Y-89415399D01*
X159855337Y-89454687D01*
X159874500Y-89520908D01*
X159874500Y-90758771D01*
X159897719Y-90875501D01*
X159907181Y-90923074D01*
X159907184Y-90923083D01*
X159971296Y-91077863D01*
X159971297Y-91077866D01*
X160064372Y-91217161D01*
X160064375Y-91217165D01*
X161085030Y-92237819D01*
X161118515Y-92299142D01*
X161113531Y-92368834D01*
X161071659Y-92424767D01*
X161006195Y-92449184D01*
X160997349Y-92449500D01*
X149374500Y-92449500D01*
X149307461Y-92429815D01*
X149261706Y-92377011D01*
X149250500Y-92325500D01*
X149250500Y-90318713D01*
X149924500Y-90318713D01*
X149924500Y-90531286D01*
X149952195Y-90706149D01*
X149957754Y-90741243D01*
X150001377Y-90875501D01*
X150023444Y-90943414D01*
X150119951Y-91132820D01*
X150244890Y-91304786D01*
X150395213Y-91455109D01*
X150567179Y-91580048D01*
X150567181Y-91580049D01*
X150567184Y-91580051D01*
X150756588Y-91676557D01*
X150958757Y-91742246D01*
X151168713Y-91775500D01*
X151168714Y-91775500D01*
X151381286Y-91775500D01*
X151381287Y-91775500D01*
X151591243Y-91742246D01*
X151793412Y-91676557D01*
X151982816Y-91580051D01*
X152051640Y-91530048D01*
X152154786Y-91455109D01*
X152154788Y-91455106D01*
X152154792Y-91455104D01*
X152305104Y-91304792D01*
X152305106Y-91304788D01*
X152305109Y-91304786D01*
X152421305Y-91144854D01*
X152430051Y-91132816D01*
X152526557Y-90943412D01*
X152592246Y-90741243D01*
X152625500Y-90531287D01*
X152625500Y-90318713D01*
X152592246Y-90108757D01*
X152526557Y-89906588D01*
X152430051Y-89717184D01*
X152430049Y-89717181D01*
X152430048Y-89717179D01*
X152305109Y-89545213D01*
X152154786Y-89394890D01*
X151982820Y-89269951D01*
X151793414Y-89173444D01*
X151793413Y-89173443D01*
X151793412Y-89173443D01*
X151591243Y-89107754D01*
X151591241Y-89107753D01*
X151591240Y-89107753D01*
X151429957Y-89082208D01*
X151381287Y-89074500D01*
X151168713Y-89074500D01*
X151120042Y-89082208D01*
X150958760Y-89107753D01*
X150756585Y-89173444D01*
X150567179Y-89269951D01*
X150395213Y-89394890D01*
X150244890Y-89545213D01*
X150119951Y-89717179D01*
X150023444Y-89906585D01*
X149957753Y-90108760D01*
X149924500Y-90318713D01*
X149250500Y-90318713D01*
X149250500Y-73349097D01*
X149270185Y-73282058D01*
X149322989Y-73236303D01*
X149392147Y-73226359D01*
X149455703Y-73255384D01*
G37*
%TD.AperFunction*%
%TA.AperFunction,Conductor*%
G36*
X226380014Y-84298762D02*
G01*
X226431573Y-84345914D01*
X226449500Y-84410136D01*
X226449500Y-85471349D01*
X226429815Y-85538388D01*
X226413181Y-85559030D01*
X220831030Y-91141181D01*
X220769707Y-91174666D01*
X220743349Y-91177500D01*
X201222867Y-91177500D01*
X201155828Y-91157815D01*
X201110073Y-91105011D01*
X201100129Y-91035853D01*
X201104937Y-91015179D01*
X201106413Y-91010636D01*
X201120280Y-90923081D01*
X201137500Y-90814361D01*
X201137500Y-90615639D01*
X201106413Y-90419364D01*
X201067792Y-90300499D01*
X201045006Y-90230370D01*
X201045005Y-90230367D01*
X200954786Y-90053305D01*
X200837981Y-89892536D01*
X200697464Y-89752019D01*
X200536694Y-89635213D01*
X200380218Y-89555484D01*
X200329423Y-89507510D01*
X200312628Y-89439689D01*
X200335165Y-89373554D01*
X200380218Y-89334515D01*
X200536694Y-89254787D01*
X200697464Y-89137981D01*
X200837981Y-88997464D01*
X200954787Y-88836694D01*
X201045005Y-88659632D01*
X201106413Y-88470636D01*
X201137500Y-88274361D01*
X201137500Y-88075639D01*
X201130995Y-88034568D01*
X202749500Y-88034568D01*
X202749500Y-88315431D01*
X202780942Y-88594494D01*
X202780945Y-88594512D01*
X202843439Y-88868317D01*
X202843443Y-88868329D01*
X202936200Y-89133411D01*
X203058053Y-89386442D01*
X203093117Y-89442246D01*
X203207477Y-89624248D01*
X203382584Y-89843825D01*
X203581175Y-90042416D01*
X203800752Y-90217523D01*
X204038555Y-90366945D01*
X204291592Y-90488801D01*
X204490680Y-90558465D01*
X204556670Y-90581556D01*
X204556682Y-90581560D01*
X204830491Y-90644055D01*
X204830497Y-90644055D01*
X204830505Y-90644057D01*
X205016547Y-90665018D01*
X205109569Y-90675499D01*
X205109572Y-90675500D01*
X205109575Y-90675500D01*
X205390428Y-90675500D01*
X205390429Y-90675499D01*
X205533055Y-90659429D01*
X205669494Y-90644057D01*
X205669499Y-90644056D01*
X205669509Y-90644055D01*
X205943318Y-90581560D01*
X206208408Y-90488801D01*
X206461445Y-90366945D01*
X206699248Y-90217523D01*
X206918825Y-90042416D01*
X207117416Y-89843825D01*
X207292523Y-89624248D01*
X207441945Y-89386445D01*
X207563801Y-89133408D01*
X207608959Y-89004354D01*
X207649680Y-88947578D01*
X207714633Y-88921831D01*
X207783195Y-88935287D01*
X207833597Y-88983675D01*
X207850000Y-89045309D01*
X207850000Y-89379719D01*
X207860482Y-89512906D01*
X207860483Y-89512912D01*
X207915898Y-89732829D01*
X207915899Y-89732832D01*
X208009695Y-89939330D01*
X208009698Y-89939336D01*
X208138851Y-90125758D01*
X208138861Y-90125770D01*
X208299229Y-90286138D01*
X208299241Y-90286148D01*
X208485663Y-90415301D01*
X208485669Y-90415304D01*
X208692167Y-90509100D01*
X208692170Y-90509101D01*
X208912087Y-90564516D01*
X208912093Y-90564517D01*
X209045280Y-90574999D01*
X209045294Y-90575000D01*
X210000000Y-90575000D01*
X210000000Y-89502231D01*
X210143753Y-89525000D01*
X210356247Y-89525000D01*
X210500000Y-89502231D01*
X210500000Y-90575000D01*
X211454706Y-90575000D01*
X211454719Y-90574999D01*
X211587906Y-90564517D01*
X211587912Y-90564516D01*
X211807829Y-90509101D01*
X211807832Y-90509100D01*
X212014330Y-90415304D01*
X212014336Y-90415301D01*
X212200758Y-90286148D01*
X212200770Y-90286138D01*
X212361138Y-90125770D01*
X212361148Y-90125758D01*
X212490301Y-89939336D01*
X212490304Y-89939330D01*
X212584100Y-89732832D01*
X212584101Y-89732829D01*
X212639516Y-89512912D01*
X212639517Y-89512906D01*
X212649999Y-89379719D01*
X212650000Y-89379706D01*
X212650000Y-88425000D01*
X211577231Y-88425000D01*
X211600000Y-88281247D01*
X211600000Y-88068753D01*
X211577231Y-87925000D01*
X212650000Y-87925000D01*
X212650000Y-87718713D01*
X215349500Y-87718713D01*
X215349500Y-88231287D01*
X215354257Y-88261321D01*
X215381440Y-88432952D01*
X215382754Y-88441243D01*
X215432554Y-88594512D01*
X215448444Y-88643414D01*
X215544951Y-88832820D01*
X215669890Y-89004786D01*
X215820213Y-89155109D01*
X215992179Y-89280048D01*
X215992181Y-89280049D01*
X215992184Y-89280051D01*
X216181588Y-89376557D01*
X216383757Y-89442246D01*
X216593713Y-89475500D01*
X216593714Y-89475500D01*
X216806286Y-89475500D01*
X216806287Y-89475500D01*
X217016243Y-89442246D01*
X217218412Y-89376557D01*
X217407816Y-89280051D01*
X217554549Y-89173444D01*
X217579784Y-89155110D01*
X217579784Y-89155109D01*
X217579792Y-89155104D01*
X217718604Y-89016291D01*
X217779923Y-88982809D01*
X217849615Y-88987793D01*
X217905549Y-89029664D01*
X217911821Y-89038878D01*
X217915185Y-89044333D01*
X217915186Y-89044334D01*
X218007288Y-89193656D01*
X218131344Y-89317712D01*
X218280666Y-89409814D01*
X218447203Y-89464999D01*
X218549991Y-89475500D01*
X219850008Y-89475499D01*
X219952797Y-89464999D01*
X220119334Y-89409814D01*
X220268656Y-89317712D01*
X220392712Y-89193656D01*
X220484814Y-89044334D01*
X220539999Y-88877797D01*
X220550500Y-88775009D01*
X220550499Y-87174992D01*
X220542349Y-87095213D01*
X220539999Y-87072203D01*
X220539998Y-87072200D01*
X220484814Y-86905666D01*
X220392712Y-86756344D01*
X220268656Y-86632288D01*
X220157570Y-86563770D01*
X220119336Y-86540187D01*
X220119331Y-86540185D01*
X220091033Y-86530808D01*
X219952797Y-86485001D01*
X219952795Y-86485000D01*
X219850010Y-86474500D01*
X218549998Y-86474500D01*
X218549981Y-86474501D01*
X218447203Y-86485000D01*
X218447200Y-86485001D01*
X218280668Y-86540185D01*
X218280663Y-86540187D01*
X218131342Y-86632289D01*
X218007289Y-86756342D01*
X217911821Y-86911121D01*
X217859873Y-86957845D01*
X217790910Y-86969068D01*
X217726828Y-86941224D01*
X217718601Y-86933705D01*
X217579786Y-86794890D01*
X217407820Y-86669951D01*
X217218414Y-86573444D01*
X217218413Y-86573443D01*
X217218412Y-86573443D01*
X217016243Y-86507754D01*
X217016241Y-86507753D01*
X217016240Y-86507753D01*
X216854957Y-86482208D01*
X216806287Y-86474500D01*
X216593713Y-86474500D01*
X216545042Y-86482208D01*
X216383760Y-86507753D01*
X216181585Y-86573444D01*
X215992179Y-86669951D01*
X215820213Y-86794890D01*
X215669890Y-86945213D01*
X215544951Y-87117179D01*
X215448444Y-87306585D01*
X215448443Y-87306587D01*
X215448443Y-87306588D01*
X215433514Y-87352536D01*
X215382753Y-87508760D01*
X215355490Y-87680896D01*
X215349500Y-87718713D01*
X212650000Y-87718713D01*
X212650000Y-86970293D01*
X212649999Y-86970280D01*
X212639517Y-86837093D01*
X212639516Y-86837087D01*
X212584101Y-86617170D01*
X212584100Y-86617167D01*
X212490304Y-86410669D01*
X212490301Y-86410663D01*
X212361148Y-86224241D01*
X212361138Y-86224229D01*
X212200770Y-86063861D01*
X212200758Y-86063851D01*
X212014336Y-85934698D01*
X212014330Y-85934695D01*
X211807832Y-85840899D01*
X211807829Y-85840898D01*
X211587912Y-85785483D01*
X211587906Y-85785482D01*
X211454719Y-85775000D01*
X210500000Y-85775000D01*
X210500000Y-86847768D01*
X210356247Y-86825000D01*
X210143753Y-86825000D01*
X210000000Y-86847768D01*
X210000000Y-85775000D01*
X209045280Y-85775000D01*
X208912093Y-85785482D01*
X208912087Y-85785483D01*
X208692170Y-85840898D01*
X208692167Y-85840899D01*
X208485669Y-85934695D01*
X208485663Y-85934698D01*
X208299241Y-86063851D01*
X208299229Y-86063861D01*
X208138861Y-86224229D01*
X208138851Y-86224241D01*
X208009698Y-86410663D01*
X208009695Y-86410669D01*
X207915899Y-86617167D01*
X207915898Y-86617170D01*
X207860483Y-86837087D01*
X207860482Y-86837093D01*
X207850000Y-86970280D01*
X207850000Y-87304690D01*
X207830315Y-87371729D01*
X207777511Y-87417484D01*
X207708353Y-87427428D01*
X207644797Y-87398403D01*
X207608959Y-87345645D01*
X207586966Y-87282794D01*
X207563801Y-87216592D01*
X207441945Y-86963555D01*
X207292523Y-86725752D01*
X207117416Y-86506175D01*
X206918825Y-86307584D01*
X206905169Y-86296694D01*
X206816897Y-86226299D01*
X206699248Y-86132477D01*
X206535004Y-86029275D01*
X206461442Y-85983053D01*
X206208411Y-85861200D01*
X205943329Y-85768443D01*
X205943317Y-85768439D01*
X205669512Y-85705945D01*
X205669494Y-85705942D01*
X205390431Y-85674500D01*
X205390425Y-85674500D01*
X205109575Y-85674500D01*
X205109568Y-85674500D01*
X204830505Y-85705942D01*
X204830487Y-85705945D01*
X204556682Y-85768439D01*
X204556670Y-85768443D01*
X204291588Y-85861200D01*
X204038557Y-85983053D01*
X203800753Y-86132476D01*
X203581175Y-86307583D01*
X203382583Y-86506175D01*
X203207476Y-86725753D01*
X203058053Y-86963557D01*
X202936200Y-87216588D01*
X202843443Y-87481670D01*
X202843439Y-87481682D01*
X202780945Y-87755487D01*
X202780942Y-87755505D01*
X202749500Y-88034568D01*
X201130995Y-88034568D01*
X201106413Y-87879364D01*
X201058185Y-87730932D01*
X201045006Y-87690370D01*
X201045005Y-87690367D01*
X200986637Y-87575815D01*
X200954787Y-87513306D01*
X200837981Y-87352536D01*
X200697464Y-87212019D01*
X200536694Y-87095213D01*
X200380218Y-87015484D01*
X200329423Y-86967510D01*
X200312628Y-86899689D01*
X200335165Y-86833554D01*
X200380218Y-86794515D01*
X200536694Y-86714787D01*
X200697464Y-86597981D01*
X200837981Y-86457464D01*
X200954787Y-86296694D01*
X201045005Y-86119632D01*
X201106413Y-85930636D01*
X201137500Y-85734361D01*
X201137500Y-85535639D01*
X201106413Y-85339364D01*
X201045005Y-85150368D01*
X201045005Y-85150367D01*
X200979058Y-85020940D01*
X200954787Y-84973306D01*
X200837981Y-84812536D01*
X200697464Y-84672019D01*
X200697460Y-84672016D01*
X200598088Y-84599818D01*
X200555422Y-84544488D01*
X200549443Y-84474875D01*
X200582049Y-84413080D01*
X200642887Y-84378723D01*
X200670973Y-84375500D01*
X215374903Y-84375500D01*
X215441942Y-84395185D01*
X215462584Y-84411819D01*
X216416139Y-85365374D01*
X216416149Y-85365385D01*
X216420479Y-85369715D01*
X216420480Y-85369716D01*
X216532284Y-85481520D01*
X216618886Y-85531519D01*
X216618888Y-85531521D01*
X216669211Y-85560575D01*
X216669215Y-85560577D01*
X216821943Y-85601501D01*
X216821946Y-85601501D01*
X216987653Y-85601501D01*
X216987669Y-85601500D01*
X225162331Y-85601500D01*
X225162347Y-85601501D01*
X225169943Y-85601501D01*
X225328054Y-85601501D01*
X225328057Y-85601501D01*
X225480785Y-85560577D01*
X225497319Y-85551031D01*
X225531091Y-85531533D01*
X225531102Y-85531525D01*
X225531114Y-85531519D01*
X225617716Y-85481520D01*
X225729520Y-85369716D01*
X225729521Y-85369714D01*
X226050520Y-85048716D01*
X226129577Y-84911784D01*
X226170501Y-84759057D01*
X226170501Y-84600942D01*
X226170501Y-84593347D01*
X226170500Y-84593329D01*
X226170500Y-84432273D01*
X226190185Y-84365234D01*
X226225610Y-84329170D01*
X226242204Y-84318083D01*
X226242205Y-84318082D01*
X226246836Y-84314282D01*
X226311146Y-84286970D01*
X226380014Y-84298762D01*
G37*
%TD.AperFunction*%
%TA.AperFunction,Conductor*%
G36*
X228192474Y-56920534D02*
G01*
X228238262Y-56973309D01*
X228249500Y-57024891D01*
X228249500Y-67706395D01*
X228229815Y-67773434D01*
X228177011Y-67819189D01*
X228107853Y-67829133D01*
X228044297Y-67800108D01*
X228022398Y-67775286D01*
X227960627Y-67682839D01*
X227901929Y-67624141D01*
X227842162Y-67564374D01*
X227729072Y-67451284D01*
X227142165Y-66864375D01*
X227142161Y-66864372D01*
X227002869Y-66771299D01*
X227002856Y-66771292D01*
X226870080Y-66716296D01*
X226848082Y-66707184D01*
X226848074Y-66707182D01*
X226683771Y-66674500D01*
X226683767Y-66674500D01*
X226315114Y-66674500D01*
X226248075Y-66654815D01*
X226202320Y-66602011D01*
X226192376Y-66532853D01*
X226221401Y-66469297D01*
X226238043Y-66454613D01*
X226237496Y-66453947D01*
X226242200Y-66450085D01*
X226242204Y-66450083D01*
X226389083Y-66303204D01*
X226504486Y-66130493D01*
X226583976Y-65938586D01*
X226624500Y-65734859D01*
X226624500Y-64419141D01*
X226624500Y-64419138D01*
X226624499Y-64419136D01*
X226610744Y-64349986D01*
X226583976Y-64215414D01*
X226576109Y-64196421D01*
X226504488Y-64023511D01*
X226504487Y-64023509D01*
X226498894Y-64015139D01*
X226389083Y-63850796D01*
X226389080Y-63850792D01*
X226242207Y-63703919D01*
X226242203Y-63703916D01*
X226069490Y-63588512D01*
X226069488Y-63588511D01*
X225877590Y-63509025D01*
X225877578Y-63509022D01*
X225673862Y-63468500D01*
X225673859Y-63468500D01*
X225466141Y-63468500D01*
X225466138Y-63468500D01*
X225262421Y-63509022D01*
X225262409Y-63509025D01*
X225070511Y-63588511D01*
X225070509Y-63588512D01*
X224897796Y-63703916D01*
X224897792Y-63703919D01*
X224750919Y-63850792D01*
X224750916Y-63850796D01*
X224635512Y-64023509D01*
X224635511Y-64023511D01*
X224595565Y-64119952D01*
X224551724Y-64174356D01*
X224485430Y-64196421D01*
X224481004Y-64196500D01*
X224118996Y-64196500D01*
X224051957Y-64176815D01*
X224006202Y-64124011D01*
X224004435Y-64119952D01*
X223964488Y-64023511D01*
X223964487Y-64023509D01*
X223958894Y-64015139D01*
X223849083Y-63850796D01*
X223849080Y-63850792D01*
X223702207Y-63703919D01*
X223702203Y-63703916D01*
X223529490Y-63588512D01*
X223529488Y-63588511D01*
X223337590Y-63509025D01*
X223337578Y-63509022D01*
X223133862Y-63468500D01*
X223133859Y-63468500D01*
X222926141Y-63468500D01*
X222926138Y-63468500D01*
X222722421Y-63509022D01*
X222722409Y-63509025D01*
X222530511Y-63588511D01*
X222530509Y-63588512D01*
X222357796Y-63703916D01*
X222357792Y-63703919D01*
X222210919Y-63850792D01*
X222210916Y-63850796D01*
X222095512Y-64023509D01*
X222095511Y-64023511D01*
X222016025Y-64215409D01*
X222016022Y-64215421D01*
X221975500Y-64419136D01*
X221975500Y-64987408D01*
X221955815Y-65054447D01*
X221903011Y-65100202D01*
X221833853Y-65110146D01*
X221770297Y-65081121D01*
X221748398Y-65056299D01*
X221690626Y-64969838D01*
X221690623Y-64969834D01*
X221580819Y-64860030D01*
X221547334Y-64798707D01*
X221544500Y-64772349D01*
X221544500Y-64419138D01*
X221544499Y-64419136D01*
X221530744Y-64349986D01*
X221503976Y-64215414D01*
X221496109Y-64196421D01*
X221424488Y-64023511D01*
X221424487Y-64023509D01*
X221418894Y-64015139D01*
X221309083Y-63850796D01*
X221309080Y-63850792D01*
X221162207Y-63703919D01*
X221162203Y-63703916D01*
X220989490Y-63588512D01*
X220989488Y-63588511D01*
X220797590Y-63509025D01*
X220797578Y-63509022D01*
X220593862Y-63468500D01*
X220593859Y-63468500D01*
X220386141Y-63468500D01*
X220386138Y-63468500D01*
X220182421Y-63509022D01*
X220182409Y-63509025D01*
X219990511Y-63588511D01*
X219990509Y-63588512D01*
X219817796Y-63703916D01*
X219817792Y-63703919D01*
X219670919Y-63850792D01*
X219670916Y-63850796D01*
X219555512Y-64023509D01*
X219555511Y-64023511D01*
X219515565Y-64119952D01*
X219471724Y-64174356D01*
X219405430Y-64196421D01*
X219401004Y-64196500D01*
X219038996Y-64196500D01*
X218971957Y-64176815D01*
X218926202Y-64124011D01*
X218924435Y-64119952D01*
X218884488Y-64023511D01*
X218884487Y-64023509D01*
X218878894Y-64015139D01*
X218769083Y-63850796D01*
X218769080Y-63850792D01*
X218622207Y-63703919D01*
X218622203Y-63703916D01*
X218449490Y-63588512D01*
X218449488Y-63588511D01*
X218257590Y-63509025D01*
X218257578Y-63509022D01*
X218053862Y-63468500D01*
X218053859Y-63468500D01*
X217846141Y-63468500D01*
X217846138Y-63468500D01*
X217642421Y-63509022D01*
X217642409Y-63509025D01*
X217450511Y-63588511D01*
X217450509Y-63588512D01*
X217277796Y-63703916D01*
X217277792Y-63703919D01*
X217130919Y-63850792D01*
X217130916Y-63850796D01*
X217015512Y-64023509D01*
X217015511Y-64023511D01*
X216936025Y-64215409D01*
X216936022Y-64215421D01*
X216895500Y-64419136D01*
X216895500Y-65734863D01*
X216936022Y-65938578D01*
X216936025Y-65938590D01*
X217015511Y-66130488D01*
X217015512Y-66130490D01*
X217130916Y-66303203D01*
X217130919Y-66303207D01*
X217277792Y-66450080D01*
X217277796Y-66450083D01*
X217450507Y-66565486D01*
X217450508Y-66565486D01*
X217450509Y-66565487D01*
X217450511Y-66565488D01*
X217635533Y-66642126D01*
X217642414Y-66644976D01*
X217810090Y-66678329D01*
X217846136Y-66685499D01*
X217846139Y-66685500D01*
X217846141Y-66685500D01*
X218053861Y-66685500D01*
X218053862Y-66685499D01*
X218257586Y-66644976D01*
X218449493Y-66565486D01*
X218622204Y-66450083D01*
X218769083Y-66303204D01*
X218884486Y-66130493D01*
X218940862Y-65994388D01*
X218949288Y-65974047D01*
X218993129Y-65919644D01*
X219059423Y-65897579D01*
X219063849Y-65897500D01*
X219376151Y-65897500D01*
X219443190Y-65917185D01*
X219488945Y-65969989D01*
X219490712Y-65974047D01*
X219555512Y-66130490D01*
X219670916Y-66303203D01*
X219670919Y-66303207D01*
X219817795Y-66450083D01*
X219867553Y-66483330D01*
X219975404Y-66555394D01*
X220020207Y-66609004D01*
X220028914Y-66678329D01*
X220012053Y-66723585D01*
X220007688Y-66730662D01*
X220007686Y-66730665D01*
X219986303Y-66795194D01*
X219952501Y-66897203D01*
X219952501Y-66897204D01*
X219952500Y-66897204D01*
X219942000Y-66999983D01*
X219942000Y-68050001D01*
X219942001Y-68050019D01*
X219952500Y-68152796D01*
X219952501Y-68152799D01*
X219998973Y-68293039D01*
X220007686Y-68319334D01*
X220099788Y-68468656D01*
X220223844Y-68592712D01*
X220291098Y-68634194D01*
X220337821Y-68686139D01*
X220350000Y-68739731D01*
X220350000Y-69675000D01*
X221187498Y-69675000D01*
X221192172Y-69670326D01*
X221253494Y-69636840D01*
X221323186Y-69641824D01*
X221367535Y-69670325D01*
X221707834Y-70010624D01*
X221707842Y-70010630D01*
X221847127Y-70103697D01*
X221847130Y-70103698D01*
X221847138Y-70103704D01*
X221934333Y-70139821D01*
X222001918Y-70167816D01*
X222142901Y-70195859D01*
X222166228Y-70200499D01*
X222166232Y-70200500D01*
X226325500Y-70200500D01*
X226392539Y-70220185D01*
X226438294Y-70272989D01*
X226449500Y-70324500D01*
X226449500Y-71231863D01*
X226429815Y-71298902D01*
X226377011Y-71344657D01*
X226307853Y-71354601D01*
X226246842Y-71327722D01*
X226242206Y-71323918D01*
X226069490Y-71208512D01*
X226069488Y-71208511D01*
X225877590Y-71129025D01*
X225877578Y-71129022D01*
X225673862Y-71088500D01*
X225673859Y-71088500D01*
X225466141Y-71088500D01*
X225466138Y-71088500D01*
X225262421Y-71129022D01*
X225262409Y-71129025D01*
X225070511Y-71208511D01*
X225070509Y-71208512D01*
X224897796Y-71323916D01*
X224897792Y-71323919D01*
X224750919Y-71470792D01*
X224750916Y-71470796D01*
X224635516Y-71643504D01*
X224635511Y-71643511D01*
X224556025Y-71835409D01*
X224556022Y-71835421D01*
X224515500Y-72039136D01*
X224515500Y-73354863D01*
X224556022Y-73558578D01*
X224556025Y-73558590D01*
X224635511Y-73750488D01*
X224635512Y-73750490D01*
X224750916Y-73923203D01*
X224750919Y-73923207D01*
X224751031Y-73923319D01*
X224751070Y-73923391D01*
X224754782Y-73927914D01*
X224753924Y-73928617D01*
X224784516Y-73984642D01*
X224779532Y-74054334D01*
X224754259Y-74093657D01*
X224754782Y-74094086D01*
X224751103Y-74098568D01*
X224751031Y-74098681D01*
X224750919Y-74098792D01*
X224750916Y-74098796D01*
X224635512Y-74271509D01*
X224635511Y-74271511D01*
X224583139Y-74397952D01*
X224539299Y-74452356D01*
X224473005Y-74474421D01*
X224468578Y-74474500D01*
X224131422Y-74474500D01*
X224064383Y-74454815D01*
X224018628Y-74402011D01*
X224016861Y-74397952D01*
X223964488Y-74271511D01*
X223964487Y-74271509D01*
X223928366Y-74217451D01*
X223849083Y-74098796D01*
X223848978Y-74098691D01*
X223848939Y-74098621D01*
X223845218Y-74094086D01*
X223846077Y-74093380D01*
X223815486Y-74037372D01*
X223820462Y-73967680D01*
X223845742Y-73928344D01*
X223845218Y-73927914D01*
X223848908Y-73923416D01*
X223848978Y-73923309D01*
X223849083Y-73923204D01*
X223964486Y-73750493D01*
X224043976Y-73558586D01*
X224084500Y-73354859D01*
X224084500Y-72039141D01*
X224084500Y-72039138D01*
X224084499Y-72039136D01*
X224075374Y-71993260D01*
X224043976Y-71835414D01*
X224041619Y-71829724D01*
X223964488Y-71643511D01*
X223964484Y-71643504D01*
X223849083Y-71470796D01*
X223849080Y-71470792D01*
X223702207Y-71323919D01*
X223702203Y-71323916D01*
X223529490Y-71208512D01*
X223529488Y-71208511D01*
X223337590Y-71129025D01*
X223337578Y-71129022D01*
X223133862Y-71088500D01*
X223133859Y-71088500D01*
X222926141Y-71088500D01*
X222926138Y-71088500D01*
X222722421Y-71129022D01*
X222722409Y-71129025D01*
X222530511Y-71208511D01*
X222530509Y-71208512D01*
X222357796Y-71323916D01*
X222357792Y-71323919D01*
X222210919Y-71470792D01*
X222210916Y-71470796D01*
X222095516Y-71643504D01*
X222095511Y-71643511D01*
X222016025Y-71835409D01*
X222016022Y-71835421D01*
X221975500Y-72039136D01*
X221975500Y-73354863D01*
X222016022Y-73558578D01*
X222016025Y-73558590D01*
X222095511Y-73750488D01*
X222095512Y-73750490D01*
X222210916Y-73923203D01*
X222210919Y-73923207D01*
X222211031Y-73923319D01*
X222211070Y-73923391D01*
X222214782Y-73927914D01*
X222213924Y-73928617D01*
X222244516Y-73984642D01*
X222239532Y-74054334D01*
X222214259Y-74093657D01*
X222214782Y-74094086D01*
X222211103Y-74098568D01*
X222211031Y-74098681D01*
X222210919Y-74098792D01*
X222210916Y-74098796D01*
X222095512Y-74271509D01*
X222095511Y-74271511D01*
X222016025Y-74463409D01*
X222016022Y-74463421D01*
X221975500Y-74667136D01*
X221975500Y-75340408D01*
X221955815Y-75407447D01*
X221903011Y-75453202D01*
X221833853Y-75463146D01*
X221770297Y-75434121D01*
X221748398Y-75409299D01*
X221690626Y-75322838D01*
X221690623Y-75322834D01*
X221580819Y-75213030D01*
X221547334Y-75151707D01*
X221544500Y-75125349D01*
X221544500Y-74667138D01*
X221544499Y-74667136D01*
X221536114Y-74624980D01*
X221503976Y-74463414D01*
X221499396Y-74452356D01*
X221424488Y-74271511D01*
X221424487Y-74271509D01*
X221388366Y-74217451D01*
X221309083Y-74098796D01*
X221308624Y-74098337D01*
X221308459Y-74098035D01*
X221305218Y-74094086D01*
X221305966Y-74093471D01*
X221275133Y-74037018D01*
X221280110Y-73967326D01*
X221305362Y-73928032D01*
X221304830Y-73927596D01*
X221308578Y-73923028D01*
X221308625Y-73922956D01*
X221308696Y-73922885D01*
X221424039Y-73750262D01*
X221424044Y-73750252D01*
X221503495Y-73558441D01*
X221503497Y-73558433D01*
X221543999Y-73354814D01*
X221544000Y-73354811D01*
X221544000Y-72947000D01*
X220656988Y-72947000D01*
X220674205Y-72937060D01*
X220730060Y-72881205D01*
X220769556Y-72812796D01*
X220790000Y-72736496D01*
X220790000Y-72657504D01*
X220769556Y-72581204D01*
X220730060Y-72512795D01*
X220674205Y-72456940D01*
X220656988Y-72447000D01*
X221544000Y-72447000D01*
X221544000Y-72039189D01*
X221543999Y-72039185D01*
X221503497Y-71835566D01*
X221503495Y-71835558D01*
X221424044Y-71643747D01*
X221424039Y-71643737D01*
X221308695Y-71471114D01*
X221308692Y-71471110D01*
X221161889Y-71324307D01*
X221161885Y-71324304D01*
X220989262Y-71208960D01*
X220989252Y-71208955D01*
X220948539Y-71192091D01*
X220894135Y-71148249D01*
X220872071Y-71081955D01*
X220889351Y-71014256D01*
X220908311Y-70989848D01*
X221029817Y-70868342D01*
X221121856Y-70719124D01*
X221121858Y-70719119D01*
X221177005Y-70552697D01*
X221177006Y-70552690D01*
X221187499Y-70449986D01*
X221187500Y-70449973D01*
X221187500Y-70175000D01*
X220224000Y-70175000D01*
X220156961Y-70155315D01*
X220111206Y-70102511D01*
X220100000Y-70051000D01*
X220100000Y-69925000D01*
X219974000Y-69925000D01*
X219906961Y-69905315D01*
X219861206Y-69852511D01*
X219850000Y-69801000D01*
X219850000Y-68700000D01*
X219712527Y-68700000D01*
X219712512Y-68700001D01*
X219609802Y-68710494D01*
X219443380Y-68765641D01*
X219443375Y-68765643D01*
X219294154Y-68857684D01*
X219170183Y-68981655D01*
X219170179Y-68981660D01*
X219168326Y-68984665D01*
X219166518Y-68986290D01*
X219165702Y-68987323D01*
X219165525Y-68987183D01*
X219116374Y-69031385D01*
X219047411Y-69042601D01*
X218983331Y-69014752D01*
X218957253Y-68984653D01*
X218957237Y-68984628D01*
X218955212Y-68981344D01*
X218831156Y-68857288D01*
X218738388Y-68800069D01*
X218681836Y-68765187D01*
X218681831Y-68765185D01*
X218615922Y-68743345D01*
X218515297Y-68710001D01*
X218515295Y-68710000D01*
X218412510Y-68699500D01*
X217637498Y-68699500D01*
X217637480Y-68699501D01*
X217534703Y-68710000D01*
X217534700Y-68710001D01*
X217368168Y-68765185D01*
X217368163Y-68765187D01*
X217218842Y-68857289D01*
X217094789Y-68981342D01*
X217002687Y-69130663D01*
X217002685Y-69130668D01*
X216991900Y-69163216D01*
X216947501Y-69297203D01*
X216947501Y-69297204D01*
X216947500Y-69297204D01*
X216937000Y-69399983D01*
X216937000Y-70450001D01*
X216937001Y-70450019D01*
X216947500Y-70552796D01*
X216947501Y-70552799D01*
X216977833Y-70644334D01*
X217002686Y-70719334D01*
X217094594Y-70868342D01*
X217094789Y-70868657D01*
X217138181Y-70912049D01*
X217171666Y-70973372D01*
X217174500Y-70999730D01*
X217174500Y-71375850D01*
X217154815Y-71442889D01*
X217138181Y-71463531D01*
X217130919Y-71470792D01*
X217130916Y-71470796D01*
X217015516Y-71643504D01*
X217015511Y-71643511D01*
X216936025Y-71835409D01*
X216936022Y-71835421D01*
X216895500Y-72039136D01*
X216895500Y-73354863D01*
X216936022Y-73558578D01*
X216936025Y-73558590D01*
X217015511Y-73750488D01*
X217015512Y-73750490D01*
X217130916Y-73923203D01*
X217130919Y-73923207D01*
X217131031Y-73923319D01*
X217131070Y-73923391D01*
X217134782Y-73927914D01*
X217133924Y-73928617D01*
X217164516Y-73984642D01*
X217159532Y-74054334D01*
X217134259Y-74093657D01*
X217134782Y-74094086D01*
X217131103Y-74098568D01*
X217131031Y-74098681D01*
X217130919Y-74098792D01*
X217130916Y-74098796D01*
X217015512Y-74271509D01*
X217015511Y-74271511D01*
X216936025Y-74463409D01*
X216936022Y-74463421D01*
X216895500Y-74667136D01*
X216895500Y-75982863D01*
X216936022Y-76186578D01*
X216936025Y-76186590D01*
X217015511Y-76378488D01*
X217015512Y-76378490D01*
X217130916Y-76551203D01*
X217130919Y-76551207D01*
X217277792Y-76698080D01*
X217277796Y-76698083D01*
X217450507Y-76813486D01*
X217450508Y-76813486D01*
X217450509Y-76813487D01*
X217450511Y-76813488D01*
X217625601Y-76886012D01*
X217642414Y-76892976D01*
X217846136Y-76933499D01*
X217846139Y-76933500D01*
X217846141Y-76933500D01*
X218053861Y-76933500D01*
X218053862Y-76933499D01*
X218257586Y-76892976D01*
X218449493Y-76813486D01*
X218622204Y-76698083D01*
X218769083Y-76551204D01*
X218884486Y-76378493D01*
X218936861Y-76252048D01*
X218980701Y-76197644D01*
X219046995Y-76175579D01*
X219051422Y-76175500D01*
X219388578Y-76175500D01*
X219455617Y-76195185D01*
X219501372Y-76247989D01*
X219503139Y-76252048D01*
X219555511Y-76378488D01*
X219555512Y-76378490D01*
X219670916Y-76551203D01*
X219670919Y-76551207D01*
X219817792Y-76698080D01*
X219817796Y-76698083D01*
X219930713Y-76773533D01*
X219975518Y-76827146D01*
X219984225Y-76896471D01*
X219979528Y-76915638D01*
X219952501Y-76997200D01*
X219952500Y-76997204D01*
X219942000Y-77099983D01*
X219942000Y-78150001D01*
X219942001Y-78150019D01*
X219952500Y-78252796D01*
X219952501Y-78252799D01*
X219989681Y-78365000D01*
X220007686Y-78419334D01*
X220099788Y-78568656D01*
X220223844Y-78692712D01*
X220373166Y-78784814D01*
X220539703Y-78839999D01*
X220642491Y-78850500D01*
X221417508Y-78850499D01*
X221417516Y-78850498D01*
X221417519Y-78850498D01*
X221473802Y-78844748D01*
X221520297Y-78839999D01*
X221686834Y-78784814D01*
X221836156Y-78692712D01*
X221960212Y-78568656D01*
X221961961Y-78565819D01*
X221963669Y-78564283D01*
X221964693Y-78562989D01*
X221964914Y-78563163D01*
X222013906Y-78519096D01*
X222082868Y-78507872D01*
X222146951Y-78535713D01*
X222173037Y-78565817D01*
X222174788Y-78568656D01*
X222298844Y-78692712D01*
X222448166Y-78784814D01*
X222614703Y-78839999D01*
X222717491Y-78850500D01*
X223492508Y-78850499D01*
X223492516Y-78850498D01*
X223492519Y-78850498D01*
X223548802Y-78844748D01*
X223595297Y-78839999D01*
X223761834Y-78784814D01*
X223911156Y-78692712D01*
X224035212Y-78568656D01*
X224127314Y-78419334D01*
X224182499Y-78252797D01*
X224193000Y-78150009D01*
X224192999Y-77099992D01*
X224191253Y-77082904D01*
X224182499Y-76997203D01*
X224182498Y-76997200D01*
X224180015Y-76989707D01*
X224127314Y-76830666D01*
X224035212Y-76681344D01*
X223991819Y-76637951D01*
X223977115Y-76611023D01*
X223960523Y-76585205D01*
X223959631Y-76579004D01*
X223958334Y-76576628D01*
X223955500Y-76550270D01*
X223955500Y-76424852D01*
X223964939Y-76377400D01*
X224016861Y-76252048D01*
X224060702Y-76197644D01*
X224126996Y-76175579D01*
X224131422Y-76175500D01*
X224468578Y-76175500D01*
X224535617Y-76195185D01*
X224581372Y-76247989D01*
X224583139Y-76252048D01*
X224635511Y-76378488D01*
X224635512Y-76378490D01*
X224750916Y-76551203D01*
X224750919Y-76551207D01*
X224897792Y-76698080D01*
X224897796Y-76698083D01*
X225070507Y-76813486D01*
X225070508Y-76813486D01*
X225070509Y-76813487D01*
X225070511Y-76813488D01*
X225245601Y-76886012D01*
X225262414Y-76892976D01*
X225466136Y-76933499D01*
X225466139Y-76933500D01*
X225466141Y-76933500D01*
X225673861Y-76933500D01*
X225673862Y-76933499D01*
X225877586Y-76892976D01*
X226069493Y-76813486D01*
X226242204Y-76698083D01*
X226242208Y-76698078D01*
X226246836Y-76694282D01*
X226311146Y-76666970D01*
X226380014Y-76678762D01*
X226431573Y-76725914D01*
X226449500Y-76790136D01*
X226449500Y-81479863D01*
X226429815Y-81546902D01*
X226377011Y-81592657D01*
X226307853Y-81602601D01*
X226246842Y-81575722D01*
X226242206Y-81571918D01*
X226069490Y-81456512D01*
X226069488Y-81456511D01*
X225877590Y-81377025D01*
X225877578Y-81377022D01*
X225673862Y-81336500D01*
X225673859Y-81336500D01*
X225466141Y-81336500D01*
X225466138Y-81336500D01*
X225262421Y-81377022D01*
X225262409Y-81377025D01*
X225070511Y-81456511D01*
X225070509Y-81456512D01*
X224897796Y-81571916D01*
X224897792Y-81571919D01*
X224750919Y-81718792D01*
X224750916Y-81718796D01*
X224635512Y-81891509D01*
X224635511Y-81891511D01*
X224556025Y-82083409D01*
X224556022Y-82083421D01*
X224515500Y-82287136D01*
X224515500Y-83602863D01*
X224556022Y-83806578D01*
X224556025Y-83806590D01*
X224635511Y-83998488D01*
X224635512Y-83998490D01*
X224750916Y-84171203D01*
X224750919Y-84171207D01*
X224768531Y-84188819D01*
X224802016Y-84250142D01*
X224797032Y-84319834D01*
X224755160Y-84375767D01*
X224689696Y-84400184D01*
X224680850Y-84400500D01*
X223919150Y-84400500D01*
X223852111Y-84380815D01*
X223806356Y-84328011D01*
X223796412Y-84258853D01*
X223825437Y-84195297D01*
X223831469Y-84188819D01*
X223849080Y-84171207D01*
X223849083Y-84171204D01*
X223964486Y-83998493D01*
X224043976Y-83806586D01*
X224084500Y-83602859D01*
X224084500Y-82287141D01*
X224084500Y-82287138D01*
X224084499Y-82287136D01*
X224071244Y-82220500D01*
X224043976Y-82083414D01*
X224035237Y-82062315D01*
X223964488Y-81891511D01*
X223964487Y-81891509D01*
X223959752Y-81884423D01*
X223849083Y-81718796D01*
X223849080Y-81718792D01*
X223702207Y-81571919D01*
X223702203Y-81571916D01*
X223529490Y-81456512D01*
X223529488Y-81456511D01*
X223337590Y-81377025D01*
X223337578Y-81377022D01*
X223133862Y-81336500D01*
X223133859Y-81336500D01*
X222926141Y-81336500D01*
X222926138Y-81336500D01*
X222722421Y-81377022D01*
X222722409Y-81377025D01*
X222530511Y-81456511D01*
X222530509Y-81456512D01*
X222357796Y-81571916D01*
X222357792Y-81571919D01*
X222210919Y-81718792D01*
X222210916Y-81718796D01*
X222095512Y-81891509D01*
X222095511Y-81891511D01*
X222016025Y-82083409D01*
X222016022Y-82083421D01*
X221975500Y-82287136D01*
X221975500Y-83602863D01*
X222015994Y-83806437D01*
X222016024Y-83806586D01*
X222024914Y-83828049D01*
X222032383Y-83897515D01*
X222001109Y-83959995D01*
X221941020Y-83995648D01*
X221910353Y-83999500D01*
X221609107Y-83999500D01*
X221542068Y-83979815D01*
X221496313Y-83927011D01*
X221486369Y-83857853D01*
X221494546Y-83828046D01*
X221503496Y-83806437D01*
X221503497Y-83806433D01*
X221543999Y-83602814D01*
X221544000Y-83602811D01*
X221544000Y-83195000D01*
X220656988Y-83195000D01*
X220674205Y-83185060D01*
X220730060Y-83129205D01*
X220769556Y-83060796D01*
X220790000Y-82984496D01*
X220790000Y-82905504D01*
X220769556Y-82829204D01*
X220730060Y-82760795D01*
X220674205Y-82704940D01*
X220656988Y-82695000D01*
X221544000Y-82695000D01*
X221544000Y-82287185D01*
X221503497Y-82083566D01*
X221503495Y-82083558D01*
X221424044Y-81891747D01*
X221424039Y-81891737D01*
X221308695Y-81719114D01*
X221308692Y-81719110D01*
X221161889Y-81572307D01*
X221161885Y-81572304D01*
X221122372Y-81545902D01*
X221077567Y-81492290D01*
X221068860Y-81422965D01*
X221085725Y-81377703D01*
X221121853Y-81319130D01*
X221121858Y-81319119D01*
X221177005Y-81152697D01*
X221177006Y-81152690D01*
X221187499Y-81049986D01*
X221187500Y-81049973D01*
X221187500Y-80775000D01*
X220224000Y-80775000D01*
X220156961Y-80755315D01*
X220111206Y-80702511D01*
X220100000Y-80651000D01*
X220100000Y-80525000D01*
X219974000Y-80525000D01*
X219906961Y-80505315D01*
X219861206Y-80452511D01*
X219850000Y-80401000D01*
X219850000Y-80275000D01*
X220350000Y-80275000D01*
X221187499Y-80275000D01*
X221187499Y-80000028D01*
X221187498Y-80000013D01*
X221177005Y-79897302D01*
X221121858Y-79730880D01*
X221121856Y-79730875D01*
X221029815Y-79581654D01*
X220905845Y-79457684D01*
X220756624Y-79365643D01*
X220756619Y-79365641D01*
X220590197Y-79310494D01*
X220590190Y-79310493D01*
X220487486Y-79300000D01*
X220350000Y-79300000D01*
X220350000Y-80275000D01*
X219850000Y-80275000D01*
X219850000Y-79300000D01*
X219712527Y-79300000D01*
X219712512Y-79300001D01*
X219609802Y-79310494D01*
X219443380Y-79365641D01*
X219443375Y-79365643D01*
X219294154Y-79457684D01*
X219170183Y-79581655D01*
X219170179Y-79581660D01*
X219168326Y-79584665D01*
X219166518Y-79586290D01*
X219165702Y-79587323D01*
X219165525Y-79587183D01*
X219116374Y-79631385D01*
X219047411Y-79642601D01*
X218983331Y-79614752D01*
X218957253Y-79584653D01*
X218957237Y-79584628D01*
X218955212Y-79581344D01*
X218831156Y-79457288D01*
X218701547Y-79377345D01*
X218681836Y-79365187D01*
X218681831Y-79365185D01*
X218680362Y-79364698D01*
X218515297Y-79310001D01*
X218515295Y-79310000D01*
X218412510Y-79299500D01*
X217637498Y-79299500D01*
X217637480Y-79299501D01*
X217534703Y-79310000D01*
X217534700Y-79310001D01*
X217368168Y-79365185D01*
X217368163Y-79365187D01*
X217218842Y-79457289D01*
X217094789Y-79581342D01*
X217073661Y-79615597D01*
X217021713Y-79662321D01*
X216968122Y-79674500D01*
X211762419Y-79674500D01*
X211695380Y-79654815D01*
X211651934Y-79606795D01*
X211638870Y-79581155D01*
X211638868Y-79581152D01*
X211638867Y-79581150D01*
X211490798Y-79377350D01*
X211490794Y-79377345D01*
X211312654Y-79199205D01*
X211312649Y-79199201D01*
X211108848Y-79051132D01*
X211108847Y-79051131D01*
X211108845Y-79051130D01*
X211030076Y-79010995D01*
X210884383Y-78936760D01*
X210644785Y-78858910D01*
X210608197Y-78853115D01*
X210395962Y-78819500D01*
X210144038Y-78819500D01*
X210035840Y-78836637D01*
X209895214Y-78858910D01*
X209655616Y-78936760D01*
X209431151Y-79051132D01*
X209227350Y-79199201D01*
X209227345Y-79199205D01*
X209049205Y-79377345D01*
X209049201Y-79377350D01*
X208901132Y-79581151D01*
X208786760Y-79805616D01*
X208712398Y-80034480D01*
X208708910Y-80045215D01*
X208669500Y-80294038D01*
X208669500Y-80745962D01*
X208689938Y-80874999D01*
X208708910Y-80994785D01*
X208786760Y-81234383D01*
X208838792Y-81336500D01*
X208899942Y-81456514D01*
X208901132Y-81458848D01*
X209049201Y-81662649D01*
X209049205Y-81662654D01*
X209227345Y-81840794D01*
X209227350Y-81840798D01*
X209344415Y-81925850D01*
X209431155Y-81988870D01*
X209550835Y-82049850D01*
X209655616Y-82103239D01*
X209655618Y-82103239D01*
X209655621Y-82103241D01*
X209895215Y-82181090D01*
X210144038Y-82220500D01*
X210144039Y-82220500D01*
X210395961Y-82220500D01*
X210395962Y-82220500D01*
X210644785Y-82181090D01*
X210884379Y-82103241D01*
X211108845Y-81988870D01*
X211312656Y-81840793D01*
X211490793Y-81662656D01*
X211638870Y-81458845D01*
X211646838Y-81443204D01*
X211694811Y-81392410D01*
X211757323Y-81375500D01*
X216968122Y-81375500D01*
X216969730Y-81375972D01*
X216971352Y-81375542D01*
X217003144Y-81385783D01*
X217035161Y-81395185D01*
X217036769Y-81396616D01*
X217037856Y-81396966D01*
X217041806Y-81401096D01*
X217063918Y-81420766D01*
X217069253Y-81427257D01*
X217094788Y-81468656D01*
X217142456Y-81516324D01*
X217146296Y-81520996D01*
X217157704Y-81547803D01*
X217171666Y-81573372D01*
X217172707Y-81583056D01*
X217173656Y-81585286D01*
X217173221Y-81587836D01*
X217174500Y-81599730D01*
X217174500Y-81623850D01*
X217154815Y-81690889D01*
X217138181Y-81711531D01*
X217130919Y-81718792D01*
X217130916Y-81718796D01*
X217015512Y-81891509D01*
X217015511Y-81891511D01*
X216936025Y-82083409D01*
X216936022Y-82083421D01*
X216895500Y-82287136D01*
X216895500Y-82996902D01*
X216875815Y-83063941D01*
X216823011Y-83109696D01*
X216753853Y-83119640D01*
X216690297Y-83090615D01*
X216683819Y-83084583D01*
X216485590Y-82886355D01*
X216485588Y-82886352D01*
X216366717Y-82767481D01*
X216366716Y-82767480D01*
X216269760Y-82711503D01*
X216269759Y-82711502D01*
X216229783Y-82688422D01*
X216173881Y-82673443D01*
X216077057Y-82647499D01*
X215918943Y-82647499D01*
X215911347Y-82647499D01*
X215911331Y-82647500D01*
X178229500Y-82647500D01*
X178162461Y-82627815D01*
X178116706Y-82575011D01*
X178105500Y-82523500D01*
X178105500Y-81109714D01*
X178105499Y-81109700D01*
X178097637Y-81049986D01*
X178090069Y-80992499D01*
X178029662Y-80846663D01*
X177933568Y-80721432D01*
X177808337Y-80625338D01*
X177808336Y-80625337D01*
X177808334Y-80625336D01*
X177662504Y-80564932D01*
X177662502Y-80564931D01*
X177662501Y-80564931D01*
X177635871Y-80561425D01*
X177545299Y-80549500D01*
X177545292Y-80549500D01*
X176824500Y-80549500D01*
X176815814Y-80546949D01*
X176806853Y-80548238D01*
X176782812Y-80537259D01*
X176757461Y-80529815D01*
X176751533Y-80522974D01*
X176743297Y-80519213D01*
X176729007Y-80496978D01*
X176711706Y-80477011D01*
X176709418Y-80466496D01*
X176705523Y-80460435D01*
X176700500Y-80425500D01*
X176700500Y-80374500D01*
X176720185Y-80307461D01*
X176772989Y-80261706D01*
X176824500Y-80250500D01*
X181013331Y-80250500D01*
X181013347Y-80250501D01*
X181020943Y-80250501D01*
X181179054Y-80250501D01*
X181179057Y-80250501D01*
X181331785Y-80209577D01*
X181391660Y-80175008D01*
X181468716Y-80130520D01*
X181580520Y-80018716D01*
X181580520Y-80018714D01*
X181590724Y-80008511D01*
X181590728Y-80008506D01*
X182358506Y-79240728D01*
X182358511Y-79240724D01*
X182368714Y-79230520D01*
X182368716Y-79230520D01*
X182480520Y-79118716D01*
X182549349Y-78999500D01*
X182559577Y-78981785D01*
X182597702Y-78839497D01*
X182598620Y-78836637D01*
X182616607Y-78810110D01*
X182633288Y-78782745D01*
X182636086Y-78781385D01*
X182637834Y-78778809D01*
X182667311Y-78766217D01*
X182696135Y-78752216D01*
X182701051Y-78751805D01*
X182702087Y-78751363D01*
X182703496Y-78751601D01*
X182716698Y-78750499D01*
X182797871Y-78750499D01*
X182797872Y-78750499D01*
X182857483Y-78744091D01*
X182992331Y-78693796D01*
X183107546Y-78607546D01*
X183193796Y-78492331D01*
X183193888Y-78492086D01*
X183239229Y-78370519D01*
X183281100Y-78314585D01*
X183346564Y-78290167D01*
X183379601Y-78292233D01*
X183405809Y-78297447D01*
X183421157Y-78300500D01*
X183421158Y-78300500D01*
X183578844Y-78300500D01*
X183578845Y-78300499D01*
X183592193Y-78297844D01*
X188550000Y-78297844D01*
X188556401Y-78357372D01*
X188556403Y-78357379D01*
X188606645Y-78492086D01*
X188606649Y-78492093D01*
X188692809Y-78607187D01*
X188692812Y-78607190D01*
X188807906Y-78693350D01*
X188807913Y-78693354D01*
X188942620Y-78743596D01*
X188942627Y-78743598D01*
X189002155Y-78749999D01*
X189002172Y-78750000D01*
X189550000Y-78750000D01*
X190050000Y-78750000D01*
X190597828Y-78750000D01*
X190597844Y-78749999D01*
X190657372Y-78743598D01*
X190657379Y-78743596D01*
X190792086Y-78693354D01*
X190792093Y-78693350D01*
X190907187Y-78607190D01*
X190907190Y-78607187D01*
X190993350Y-78492093D01*
X190993354Y-78492086D01*
X191043596Y-78357379D01*
X191043598Y-78357372D01*
X191049999Y-78297844D01*
X191050000Y-78297827D01*
X191050000Y-77750000D01*
X190050000Y-77750000D01*
X190050000Y-78750000D01*
X189550000Y-78750000D01*
X189550000Y-77750000D01*
X188550000Y-77750000D01*
X188550000Y-78297844D01*
X183592193Y-78297844D01*
X183733497Y-78269737D01*
X183879179Y-78209394D01*
X184010289Y-78121789D01*
X184121789Y-78010289D01*
X184209394Y-77879179D01*
X184269737Y-77733497D01*
X184290197Y-77630639D01*
X184300500Y-77578844D01*
X184300500Y-77421155D01*
X184300499Y-77421153D01*
X184288452Y-77360589D01*
X184269737Y-77266503D01*
X184262901Y-77250000D01*
X184209397Y-77120827D01*
X184209390Y-77120814D01*
X184121789Y-76989711D01*
X184121786Y-76989707D01*
X184010292Y-76878213D01*
X184010288Y-76878210D01*
X183896162Y-76801953D01*
X183879185Y-76790609D01*
X183879172Y-76790602D01*
X183733501Y-76730264D01*
X183733489Y-76730261D01*
X183592192Y-76702155D01*
X188550000Y-76702155D01*
X188550000Y-77250000D01*
X189550000Y-77250000D01*
X190050000Y-77250000D01*
X191050000Y-77250000D01*
X191050000Y-76702172D01*
X191049999Y-76702155D01*
X191043598Y-76642627D01*
X191043596Y-76642620D01*
X190993354Y-76507913D01*
X190993350Y-76507906D01*
X190907190Y-76392812D01*
X190907187Y-76392809D01*
X190792093Y-76306649D01*
X190792086Y-76306645D01*
X190657379Y-76256403D01*
X190657372Y-76256401D01*
X190597844Y-76250000D01*
X190050000Y-76250000D01*
X190050000Y-77250000D01*
X189550000Y-77250000D01*
X189550000Y-76250000D01*
X189002155Y-76250000D01*
X188942627Y-76256401D01*
X188942620Y-76256403D01*
X188807913Y-76306645D01*
X188807906Y-76306649D01*
X188692812Y-76392809D01*
X188692809Y-76392812D01*
X188606649Y-76507906D01*
X188606645Y-76507913D01*
X188556403Y-76642620D01*
X188556401Y-76642627D01*
X188550000Y-76702155D01*
X183592192Y-76702155D01*
X183578845Y-76699500D01*
X183578842Y-76699500D01*
X183421158Y-76699500D01*
X183379601Y-76707766D01*
X183310010Y-76701538D01*
X183254833Y-76658674D01*
X183239229Y-76629481D01*
X183193797Y-76507671D01*
X183193793Y-76507664D01*
X183107547Y-76392455D01*
X183107544Y-76392452D01*
X182992335Y-76306206D01*
X182992328Y-76306202D01*
X182857482Y-76255908D01*
X182857483Y-76255908D01*
X182797883Y-76249501D01*
X182797881Y-76249500D01*
X182797873Y-76249500D01*
X182797864Y-76249500D01*
X181202129Y-76249500D01*
X181202123Y-76249501D01*
X181142516Y-76255908D01*
X181007671Y-76306202D01*
X181007664Y-76306206D01*
X180892455Y-76392452D01*
X180892452Y-76392455D01*
X180806206Y-76507664D01*
X180806202Y-76507671D01*
X180755908Y-76642517D01*
X180749501Y-76702116D01*
X180749500Y-76702135D01*
X180749500Y-78297870D01*
X180749501Y-78297876D01*
X180755908Y-78357483D01*
X180806202Y-78492328D01*
X180806206Y-78492335D01*
X180859229Y-78563163D01*
X180892454Y-78607546D01*
X181007086Y-78693360D01*
X181017769Y-78707631D01*
X181032042Y-78718315D01*
X181038272Y-78735020D01*
X181048957Y-78749293D01*
X181050228Y-78767074D01*
X181056459Y-78783779D01*
X181052669Y-78801201D01*
X181053941Y-78818985D01*
X181045397Y-78834631D01*
X181041608Y-78852052D01*
X181020457Y-78880307D01*
X180982753Y-78918011D01*
X180887582Y-79013182D01*
X180826262Y-79046666D01*
X180799903Y-79049500D01*
X180129000Y-79049500D01*
X180061961Y-79029815D01*
X180016206Y-78977011D01*
X180005000Y-78925500D01*
X180005000Y-78865000D01*
X177305000Y-78865000D01*
X177305000Y-78925500D01*
X177285315Y-78992539D01*
X177232511Y-79038294D01*
X177181000Y-79049500D01*
X164136670Y-79049500D01*
X164136654Y-79049499D01*
X164129058Y-79049499D01*
X163970943Y-79049499D01*
X163894579Y-79069961D01*
X163818214Y-79090423D01*
X163818209Y-79090426D01*
X163681290Y-79169475D01*
X163681282Y-79169481D01*
X162704481Y-80146282D01*
X162704477Y-80146287D01*
X162687917Y-80174973D01*
X162687896Y-80175009D01*
X162667938Y-80209577D01*
X162632022Y-80271786D01*
X162625423Y-80283215D01*
X162584499Y-80435943D01*
X162584499Y-80435945D01*
X162584499Y-80446738D01*
X162564814Y-80513777D01*
X162512010Y-80559532D01*
X162442852Y-80569476D01*
X162428411Y-80566514D01*
X162422505Y-80564931D01*
X162305299Y-80549500D01*
X162305292Y-80549500D01*
X161524708Y-80549500D01*
X161524700Y-80549500D01*
X161407497Y-80564931D01*
X161326798Y-80598357D01*
X161257329Y-80605824D01*
X161231896Y-80598357D01*
X161152371Y-80565418D01*
X161035269Y-80550000D01*
X160895000Y-80550000D01*
X160895000Y-81776000D01*
X160875315Y-81843039D01*
X160822511Y-81888794D01*
X160771000Y-81900000D01*
X160519000Y-81900000D01*
X160451961Y-81880315D01*
X160406206Y-81827511D01*
X160395000Y-81776000D01*
X160395000Y-80550000D01*
X160254730Y-80550000D01*
X160137632Y-80565417D01*
X160045602Y-80603537D01*
X159976132Y-80611005D01*
X159913653Y-80579729D01*
X159878001Y-80519640D01*
X159874150Y-80488975D01*
X159874150Y-75647844D01*
X165555000Y-75647844D01*
X165561401Y-75707372D01*
X165561403Y-75707379D01*
X165611645Y-75842086D01*
X165611649Y-75842093D01*
X165697809Y-75957187D01*
X165697812Y-75957190D01*
X165812906Y-76043350D01*
X165812913Y-76043354D01*
X165947620Y-76093596D01*
X165947627Y-76093598D01*
X166007155Y-76099999D01*
X166007172Y-76100000D01*
X167805000Y-76100000D01*
X168305000Y-76100000D01*
X170102828Y-76100000D01*
X170102844Y-76099999D01*
X170162372Y-76093598D01*
X170162379Y-76093596D01*
X170297086Y-76043354D01*
X170297093Y-76043350D01*
X170412187Y-75957190D01*
X170412190Y-75957187D01*
X170498350Y-75842093D01*
X170498354Y-75842086D01*
X170548596Y-75707379D01*
X170548598Y-75707372D01*
X170554999Y-75647844D01*
X170555000Y-75647827D01*
X170555000Y-73850000D01*
X168305000Y-73850000D01*
X168305000Y-76100000D01*
X167805000Y-76100000D01*
X167805000Y-73850000D01*
X165555000Y-73850000D01*
X165555000Y-75647844D01*
X159874150Y-75647844D01*
X159874150Y-71552155D01*
X165555000Y-71552155D01*
X165555000Y-73350000D01*
X167805000Y-73350000D01*
X168305000Y-73350000D01*
X170555000Y-73350000D01*
X170555000Y-71552172D01*
X170554999Y-71552155D01*
X170548598Y-71492627D01*
X170548596Y-71492620D01*
X170498354Y-71357913D01*
X170498350Y-71357906D01*
X170412190Y-71242812D01*
X170412187Y-71242809D01*
X170297093Y-71156649D01*
X170297086Y-71156645D01*
X170162379Y-71106403D01*
X170162372Y-71106401D01*
X170102844Y-71100000D01*
X168305000Y-71100000D01*
X168305000Y-73350000D01*
X167805000Y-73350000D01*
X167805000Y-71100000D01*
X166007155Y-71100000D01*
X165947627Y-71106401D01*
X165947620Y-71106403D01*
X165812913Y-71156645D01*
X165812906Y-71156649D01*
X165697812Y-71242809D01*
X165697809Y-71242812D01*
X165611649Y-71357906D01*
X165611645Y-71357913D01*
X165561403Y-71492620D01*
X165561401Y-71492627D01*
X165555000Y-71552155D01*
X159874150Y-71552155D01*
X159874150Y-65311024D01*
X159893835Y-65243985D01*
X159946639Y-65198230D01*
X160015797Y-65188286D01*
X160045603Y-65196463D01*
X160137630Y-65234581D01*
X160254730Y-65249999D01*
X160254745Y-65250000D01*
X160395000Y-65250000D01*
X160395000Y-64150000D01*
X159998150Y-64150000D01*
X159931111Y-64130315D01*
X159885356Y-64077511D01*
X159874150Y-64026000D01*
X159874150Y-63900000D01*
X153150000Y-63900000D01*
X153150000Y-67501403D01*
X153143761Y-67522648D01*
X153142182Y-67544737D01*
X153134109Y-67555520D01*
X153130315Y-67568442D01*
X153113581Y-67582941D01*
X153100310Y-67600670D01*
X153087689Y-67605377D01*
X153077511Y-67614197D01*
X153055593Y-67617348D01*
X153034846Y-67625087D01*
X153021685Y-67622224D01*
X153008353Y-67624141D01*
X152988209Y-67614941D01*
X152966573Y-67610235D01*
X152948847Y-67596966D01*
X152944797Y-67595116D01*
X152938319Y-67589084D01*
X152807590Y-67458355D01*
X152807588Y-67458352D01*
X152688717Y-67339481D01*
X152688709Y-67339475D01*
X152584828Y-67279500D01*
X152584825Y-67279499D01*
X152551787Y-67260424D01*
X152551786Y-67260423D01*
X152551785Y-67260423D01*
X152399057Y-67219499D01*
X152399054Y-67219499D01*
X152385718Y-67219499D01*
X152318679Y-67199814D01*
X152275233Y-67151794D01*
X152255051Y-67112184D01*
X152255049Y-67112181D01*
X152255048Y-67112179D01*
X152130109Y-66940213D01*
X151979786Y-66789890D01*
X151807820Y-66664951D01*
X151618414Y-66568444D01*
X151618413Y-66568443D01*
X151618412Y-66568443D01*
X151416243Y-66502754D01*
X151416241Y-66502753D01*
X151416240Y-66502753D01*
X151251291Y-66476628D01*
X151206287Y-66469500D01*
X150993713Y-66469500D01*
X150948709Y-66476628D01*
X150783760Y-66502753D01*
X150770720Y-66506990D01*
X150641046Y-66549124D01*
X150581582Y-66568445D01*
X150455794Y-66632537D01*
X150387125Y-66645433D01*
X150322385Y-66619156D01*
X150282128Y-66562050D01*
X150275500Y-66522052D01*
X150275500Y-65575097D01*
X150295185Y-65508058D01*
X150311819Y-65487416D01*
X153213416Y-62585819D01*
X153274739Y-62552334D01*
X153301097Y-62549500D01*
X159747542Y-62549500D01*
X159814581Y-62569185D01*
X159860336Y-62621989D01*
X159870280Y-62691147D01*
X159845918Y-62748987D01*
X159770772Y-62846917D01*
X159710419Y-62992626D01*
X159710418Y-62992631D01*
X159695000Y-63109730D01*
X159695000Y-63650000D01*
X160521000Y-63650000D01*
X160588039Y-63669685D01*
X160633794Y-63722489D01*
X160645000Y-63774000D01*
X160645000Y-63900000D01*
X160771000Y-63900000D01*
X160838039Y-63919685D01*
X160883794Y-63972489D01*
X160895000Y-64024000D01*
X160895000Y-65250000D01*
X161035255Y-65250000D01*
X161035269Y-65249999D01*
X161152368Y-65234581D01*
X161152370Y-65234581D01*
X161231893Y-65201642D01*
X161301362Y-65194173D01*
X161326798Y-65201642D01*
X161357054Y-65214174D01*
X161407499Y-65235069D01*
X161518776Y-65249719D01*
X161520902Y-65249999D01*
X161524708Y-65250500D01*
X161524715Y-65250500D01*
X162305285Y-65250500D01*
X162305292Y-65250500D01*
X162422501Y-65235069D01*
X162498049Y-65203775D01*
X162567516Y-65196307D01*
X162629995Y-65227582D01*
X162665648Y-65287670D01*
X162669500Y-65318337D01*
X162669500Y-66483330D01*
X162669499Y-66483348D01*
X162669499Y-66649054D01*
X162669498Y-66649054D01*
X162710138Y-66800720D01*
X162710423Y-66801785D01*
X162712648Y-66805638D01*
X162720651Y-66819500D01*
X162789477Y-66938712D01*
X162789481Y-66938717D01*
X162908349Y-67057585D01*
X162908355Y-67057590D01*
X163460639Y-67609874D01*
X163460649Y-67609885D01*
X163464979Y-67614215D01*
X163464980Y-67614216D01*
X163576784Y-67726020D01*
X163652505Y-67769737D01*
X163652506Y-67769738D01*
X163689965Y-67791364D01*
X163713715Y-67805077D01*
X163866442Y-67846000D01*
X163866443Y-67846000D01*
X173913919Y-67846000D01*
X173980958Y-67865685D01*
X173985238Y-67868800D01*
X174120814Y-67959390D01*
X174120827Y-67959397D01*
X174266498Y-68019735D01*
X174266503Y-68019737D01*
X174418649Y-68050001D01*
X174421153Y-68050499D01*
X174421156Y-68050500D01*
X174421158Y-68050500D01*
X174578844Y-68050500D01*
X174578845Y-68050499D01*
X174733497Y-68019737D01*
X174879179Y-67959394D01*
X175010289Y-67871789D01*
X175121789Y-67760289D01*
X175209394Y-67629179D01*
X175212183Y-67622447D01*
X175231712Y-67575299D01*
X175269737Y-67483497D01*
X175300500Y-67328842D01*
X175300500Y-67171158D01*
X175300500Y-67171155D01*
X175300499Y-67171153D01*
X175287918Y-67107906D01*
X175269737Y-67016503D01*
X175261458Y-66996516D01*
X175209397Y-66870827D01*
X175209390Y-66870814D01*
X175121789Y-66739711D01*
X175121786Y-66739707D01*
X175010292Y-66628213D01*
X175010288Y-66628210D01*
X174879185Y-66540609D01*
X174879172Y-66540602D01*
X174733501Y-66480264D01*
X174733489Y-66480261D01*
X174578845Y-66449500D01*
X174578842Y-66449500D01*
X174421158Y-66449500D01*
X174421155Y-66449500D01*
X174266510Y-66480261D01*
X174266498Y-66480264D01*
X174120827Y-66540602D01*
X174120814Y-66540609D01*
X173995860Y-66624102D01*
X173929183Y-66644980D01*
X173926969Y-66645000D01*
X165379500Y-66645000D01*
X165312461Y-66625315D01*
X165266706Y-66572511D01*
X165255500Y-66521000D01*
X165255500Y-66371155D01*
X165255499Y-66371153D01*
X165255217Y-66369735D01*
X165224737Y-66216503D01*
X165224735Y-66216498D01*
X165164397Y-66070827D01*
X165164390Y-66070814D01*
X165076398Y-65939125D01*
X165055520Y-65872447D01*
X165055500Y-65870234D01*
X165055500Y-65353261D01*
X165075185Y-65286222D01*
X165127989Y-65240467D01*
X165197147Y-65230523D01*
X165211594Y-65233486D01*
X165217493Y-65235066D01*
X165217499Y-65235069D01*
X165320780Y-65248666D01*
X165330902Y-65249999D01*
X165334708Y-65250500D01*
X165334715Y-65250500D01*
X166115285Y-65250500D01*
X166115292Y-65250500D01*
X166232501Y-65235069D01*
X166312549Y-65201911D01*
X166382016Y-65194443D01*
X166407446Y-65201910D01*
X166487499Y-65235069D01*
X166598776Y-65249719D01*
X166600902Y-65249999D01*
X166604708Y-65250500D01*
X166604715Y-65250500D01*
X167385285Y-65250500D01*
X167385292Y-65250500D01*
X167502501Y-65235069D01*
X167582549Y-65201911D01*
X167652016Y-65194443D01*
X167677446Y-65201910D01*
X167757499Y-65235069D01*
X167868776Y-65249719D01*
X167870902Y-65249999D01*
X167874708Y-65250500D01*
X167874715Y-65250500D01*
X168655285Y-65250500D01*
X168655292Y-65250500D01*
X168772501Y-65235069D01*
X168852549Y-65201911D01*
X168922016Y-65194443D01*
X168947446Y-65201910D01*
X169027499Y-65235069D01*
X169138776Y-65249719D01*
X169140902Y-65249999D01*
X169144708Y-65250500D01*
X169144715Y-65250500D01*
X169875500Y-65250500D01*
X169942539Y-65270185D01*
X169988294Y-65322989D01*
X169999500Y-65374500D01*
X169999500Y-65428846D01*
X170030261Y-65583489D01*
X170030264Y-65583501D01*
X170090602Y-65729172D01*
X170090609Y-65729185D01*
X170178210Y-65860288D01*
X170178213Y-65860292D01*
X170289707Y-65971786D01*
X170289711Y-65971789D01*
X170420814Y-66059390D01*
X170420827Y-66059397D01*
X170566498Y-66119735D01*
X170566503Y-66119737D01*
X170711521Y-66148583D01*
X170721153Y-66150499D01*
X170721156Y-66150500D01*
X170721158Y-66150500D01*
X170878844Y-66150500D01*
X170878845Y-66150499D01*
X171033497Y-66119737D01*
X171151592Y-66070821D01*
X171179172Y-66059397D01*
X171179172Y-66059396D01*
X171179179Y-66059394D01*
X171310289Y-65971789D01*
X171421789Y-65860289D01*
X171509394Y-65729179D01*
X171569737Y-65583497D01*
X171600500Y-65428842D01*
X171600500Y-65374500D01*
X171620185Y-65307461D01*
X171672989Y-65261706D01*
X171724500Y-65250500D01*
X172465285Y-65250500D01*
X172465292Y-65250500D01*
X172582501Y-65235069D01*
X172662549Y-65201911D01*
X172732016Y-65194443D01*
X172739133Y-65195944D01*
X172748522Y-65198213D01*
X172837499Y-65235069D01*
X172954708Y-65250500D01*
X172964842Y-65250500D01*
X172978983Y-65253918D01*
X173000375Y-65266245D01*
X173023559Y-65274733D01*
X173037531Y-65286766D01*
X173615139Y-65864374D01*
X173615149Y-65864385D01*
X173619479Y-65868715D01*
X173619480Y-65868716D01*
X173731284Y-65980520D01*
X173755305Y-65994388D01*
X173818095Y-66030639D01*
X173818097Y-66030641D01*
X173860019Y-66054845D01*
X173868215Y-66059577D01*
X174020942Y-66100500D01*
X174020943Y-66100500D01*
X177509837Y-66100500D01*
X177576876Y-66120185D01*
X177622631Y-66172989D01*
X177632575Y-66242147D01*
X177603550Y-66305703D01*
X177585327Y-66322873D01*
X177507373Y-66382690D01*
X177476432Y-66406432D01*
X177380336Y-66531665D01*
X177319932Y-66677495D01*
X177319931Y-66677499D01*
X177304500Y-66794700D01*
X177304500Y-67575299D01*
X177316761Y-67668422D01*
X177319931Y-67692501D01*
X177326947Y-67709439D01*
X177353087Y-67772549D01*
X177360554Y-67842018D01*
X177353087Y-67867451D01*
X177319931Y-67947499D01*
X177304500Y-68064700D01*
X177304500Y-68845299D01*
X177318002Y-68947849D01*
X177319931Y-68962501D01*
X177331354Y-68990079D01*
X177353087Y-69042549D01*
X177360554Y-69112018D01*
X177353087Y-69137451D01*
X177319931Y-69217499D01*
X177304500Y-69334700D01*
X177304500Y-70115299D01*
X177314565Y-70191742D01*
X177319931Y-70232501D01*
X177325731Y-70246503D01*
X177353087Y-70312549D01*
X177360554Y-70382018D01*
X177353087Y-70407451D01*
X177319931Y-70487499D01*
X177304500Y-70604700D01*
X177304500Y-71385299D01*
X177314800Y-71463531D01*
X177319931Y-71502501D01*
X177335720Y-71540621D01*
X177353087Y-71582549D01*
X177360554Y-71652018D01*
X177353087Y-71677451D01*
X177319931Y-71757499D01*
X177304500Y-71874700D01*
X177304500Y-72655299D01*
X177319931Y-72772500D01*
X177353087Y-72852549D01*
X177360554Y-72922018D01*
X177353087Y-72947451D01*
X177319931Y-73027499D01*
X177304500Y-73144700D01*
X177304500Y-73925299D01*
X177313519Y-73993797D01*
X177319931Y-74042501D01*
X177326749Y-74058961D01*
X177353087Y-74122549D01*
X177360554Y-74192018D01*
X177353087Y-74217451D01*
X177319931Y-74297499D01*
X177304500Y-74414700D01*
X177304500Y-75195299D01*
X177319931Y-75312500D01*
X177353087Y-75392549D01*
X177360554Y-75462018D01*
X177353087Y-75487451D01*
X177319931Y-75567499D01*
X177304500Y-75684700D01*
X177304500Y-76465299D01*
X177319931Y-76582500D01*
X177353087Y-76662549D01*
X177360554Y-76732018D01*
X177353087Y-76757451D01*
X177319931Y-76837499D01*
X177304500Y-76954700D01*
X177304500Y-77735299D01*
X177319930Y-77852498D01*
X177319930Y-77852500D01*
X177319931Y-77852501D01*
X177330981Y-77879179D01*
X177353357Y-77933199D01*
X177360825Y-78002669D01*
X177353357Y-78028101D01*
X177320418Y-78107626D01*
X177305000Y-78224730D01*
X177305000Y-78365000D01*
X180005000Y-78365000D01*
X180005000Y-78224744D01*
X180004999Y-78224730D01*
X179989581Y-78107631D01*
X179989580Y-78107626D01*
X179956642Y-78028104D01*
X179953679Y-78000550D01*
X179947406Y-77973559D01*
X179949699Y-77963535D01*
X179949173Y-77958635D01*
X179954419Y-77938969D01*
X179955453Y-77936070D01*
X179990069Y-77852501D01*
X179992866Y-77831248D01*
X179997299Y-77818831D01*
X180010395Y-77800809D01*
X180019407Y-77780436D01*
X180026387Y-77772847D01*
X180085520Y-77713716D01*
X180085520Y-77713714D01*
X180095725Y-77703510D01*
X180095729Y-77703505D01*
X180196026Y-77603208D01*
X180196031Y-77603204D01*
X180206234Y-77593000D01*
X180206236Y-77593000D01*
X180318040Y-77481196D01*
X180387679Y-77360577D01*
X180397097Y-77344265D01*
X180438021Y-77191537D01*
X180438021Y-77033423D01*
X180438021Y-77025828D01*
X180438020Y-77025810D01*
X180438020Y-73762577D01*
X180446663Y-73733140D01*
X180453187Y-73703151D01*
X180456942Y-73698133D01*
X180457705Y-73695538D01*
X180474333Y-73674901D01*
X180548197Y-73601037D01*
X180609516Y-73567555D01*
X180679208Y-73572539D01*
X180735142Y-73614410D01*
X180752077Y-73650632D01*
X180753198Y-73650215D01*
X180806202Y-73792328D01*
X180806206Y-73792335D01*
X180892452Y-73907544D01*
X180892455Y-73907547D01*
X181007664Y-73993793D01*
X181007671Y-73993797D01*
X181142517Y-74044091D01*
X181142516Y-74044091D01*
X181149444Y-74044835D01*
X181202127Y-74050500D01*
X182797872Y-74050499D01*
X182857483Y-74044091D01*
X182992331Y-73993796D01*
X183107546Y-73907546D01*
X183193796Y-73792331D01*
X183209402Y-73750490D01*
X183235258Y-73681167D01*
X183277129Y-73625233D01*
X183342593Y-73600816D01*
X183351440Y-73600500D01*
X183478844Y-73600500D01*
X183478845Y-73600499D01*
X183633497Y-73569737D01*
X183779179Y-73509394D01*
X183910289Y-73421789D01*
X184021789Y-73310289D01*
X184109394Y-73179179D01*
X184169737Y-73033497D01*
X184200500Y-72878842D01*
X184200500Y-72721158D01*
X184200500Y-72721155D01*
X184200499Y-72721153D01*
X184180542Y-72620825D01*
X184169737Y-72566503D01*
X184137929Y-72489711D01*
X184109397Y-72420827D01*
X184109390Y-72420814D01*
X184021789Y-72289711D01*
X184021786Y-72289707D01*
X183910292Y-72178213D01*
X183910288Y-72178210D01*
X183779185Y-72090609D01*
X183779172Y-72090602D01*
X183633501Y-72030264D01*
X183633489Y-72030261D01*
X183478845Y-71999500D01*
X183478842Y-71999500D01*
X183351440Y-71999500D01*
X183330192Y-71993260D01*
X183308105Y-71991681D01*
X183297322Y-71983609D01*
X183284401Y-71979815D01*
X183269900Y-71963081D01*
X183252172Y-71949809D01*
X183241560Y-71930374D01*
X183238646Y-71927011D01*
X183235258Y-71918832D01*
X183224330Y-71889532D01*
X183219346Y-71819841D01*
X183252832Y-71758518D01*
X183314155Y-71725034D01*
X183340512Y-71722200D01*
X188459488Y-71722200D01*
X188526527Y-71741885D01*
X188572282Y-71794689D01*
X188582226Y-71863847D01*
X188575670Y-71889532D01*
X188564742Y-71918832D01*
X188522871Y-71974766D01*
X188457407Y-71999184D01*
X188448560Y-71999500D01*
X188371155Y-71999500D01*
X188216510Y-72030261D01*
X188216498Y-72030264D01*
X188070827Y-72090602D01*
X188070814Y-72090609D01*
X187939711Y-72178210D01*
X187939707Y-72178213D01*
X187828213Y-72289707D01*
X187828210Y-72289711D01*
X187740609Y-72420814D01*
X187740602Y-72420827D01*
X187680264Y-72566498D01*
X187680261Y-72566510D01*
X187649500Y-72721153D01*
X187649500Y-72878846D01*
X187680261Y-73033489D01*
X187680264Y-73033501D01*
X187740602Y-73179172D01*
X187740609Y-73179185D01*
X187828210Y-73310288D01*
X187828213Y-73310292D01*
X187939707Y-73421786D01*
X187939711Y-73421789D01*
X188070814Y-73509390D01*
X188070827Y-73509397D01*
X188211235Y-73567555D01*
X188216503Y-73569737D01*
X188339079Y-73594119D01*
X188371153Y-73600499D01*
X188371156Y-73600500D01*
X188448560Y-73600500D01*
X188515599Y-73620185D01*
X188561354Y-73672989D01*
X188564742Y-73681167D01*
X188606202Y-73792328D01*
X188606206Y-73792335D01*
X188692452Y-73907544D01*
X188692455Y-73907547D01*
X188807664Y-73993793D01*
X188807671Y-73993797D01*
X188942517Y-74044091D01*
X188942516Y-74044091D01*
X188949444Y-74044835D01*
X189002127Y-74050500D01*
X190597872Y-74050499D01*
X190657483Y-74044091D01*
X190792331Y-73993796D01*
X190907546Y-73907546D01*
X190993796Y-73792331D01*
X191044091Y-73657483D01*
X191050500Y-73597873D01*
X191050500Y-73524500D01*
X191070185Y-73457461D01*
X191122989Y-73411706D01*
X191174500Y-73400500D01*
X192699903Y-73400500D01*
X192766942Y-73420185D01*
X192787584Y-73436819D01*
X193293181Y-73942416D01*
X193326666Y-74003739D01*
X193329500Y-74030097D01*
X193329500Y-75363194D01*
X193309815Y-75430233D01*
X193270598Y-75468731D01*
X193210459Y-75505826D01*
X193151342Y-75542289D01*
X193027289Y-75666342D01*
X192935187Y-75815663D01*
X192935185Y-75815668D01*
X192926431Y-75842086D01*
X192880001Y-75982203D01*
X192880001Y-75982204D01*
X192880000Y-75982204D01*
X192869500Y-76084983D01*
X192869500Y-78125001D01*
X192869501Y-78125018D01*
X192880000Y-78227796D01*
X192880001Y-78227799D01*
X192911896Y-78324051D01*
X192935186Y-78394334D01*
X193025483Y-78540730D01*
X193043923Y-78608121D01*
X193023133Y-78674586D01*
X193016316Y-78684815D01*
X192994788Y-78706344D01*
X192905385Y-78851289D01*
X192904169Y-78853115D01*
X192879004Y-78874199D01*
X192854571Y-78896176D01*
X192852341Y-78896538D01*
X192850613Y-78897987D01*
X192818037Y-78902120D01*
X192785608Y-78907397D01*
X192782638Y-78906611D01*
X192781299Y-78906782D01*
X192778831Y-78905605D01*
X192753528Y-78898915D01*
X192708501Y-78880264D01*
X192708489Y-78880261D01*
X192553845Y-78849500D01*
X192553842Y-78849500D01*
X192396158Y-78849500D01*
X192396155Y-78849500D01*
X192241510Y-78880261D01*
X192241498Y-78880264D01*
X192095827Y-78940602D01*
X192095814Y-78940609D01*
X191964711Y-79028210D01*
X191964707Y-79028213D01*
X191853213Y-79139707D01*
X191853210Y-79139711D01*
X191765609Y-79270814D01*
X191765602Y-79270827D01*
X191705264Y-79416498D01*
X191705261Y-79416510D01*
X191674500Y-79571153D01*
X191674500Y-79728846D01*
X191705261Y-79883489D01*
X191705264Y-79883501D01*
X191765602Y-80029172D01*
X191765609Y-80029185D01*
X191853210Y-80160288D01*
X191853213Y-80160292D01*
X191964707Y-80271786D01*
X191964711Y-80271789D01*
X192095814Y-80359390D01*
X192095827Y-80359397D01*
X192212812Y-80407853D01*
X192241503Y-80419737D01*
X192396153Y-80450499D01*
X192396156Y-80450500D01*
X192396158Y-80450500D01*
X192553844Y-80450500D01*
X192553845Y-80450499D01*
X192708497Y-80419737D01*
X192753527Y-80401084D01*
X192822995Y-80393615D01*
X192885475Y-80424889D01*
X192906518Y-80450547D01*
X192994788Y-80593656D01*
X193118844Y-80717712D01*
X193268166Y-80809814D01*
X193434703Y-80864999D01*
X193537491Y-80875500D01*
X194312508Y-80875499D01*
X194312516Y-80875498D01*
X194312519Y-80875498D01*
X194368802Y-80869748D01*
X194415297Y-80864999D01*
X194581834Y-80809814D01*
X194731156Y-80717712D01*
X194855212Y-80593656D01*
X194857252Y-80590347D01*
X194859245Y-80588555D01*
X194859693Y-80587989D01*
X194859789Y-80588065D01*
X194909194Y-80543623D01*
X194978156Y-80532395D01*
X195042240Y-80560234D01*
X195068329Y-80590339D01*
X195070181Y-80593341D01*
X195070183Y-80593344D01*
X195194154Y-80717315D01*
X195343375Y-80809356D01*
X195343380Y-80809358D01*
X195509802Y-80864505D01*
X195509809Y-80864506D01*
X195612519Y-80874999D01*
X195749999Y-80874999D01*
X196250000Y-80874999D01*
X196387472Y-80874999D01*
X196387486Y-80874998D01*
X196490197Y-80864505D01*
X196656619Y-80809358D01*
X196656624Y-80809356D01*
X196805845Y-80717315D01*
X196892204Y-80630957D01*
X196929815Y-80593345D01*
X197021856Y-80444124D01*
X197021858Y-80444119D01*
X197077005Y-80277697D01*
X197077006Y-80277690D01*
X197087499Y-80174986D01*
X197087500Y-80174973D01*
X197087500Y-79900000D01*
X196250000Y-79900000D01*
X196250000Y-80874999D01*
X195749999Y-80874999D01*
X195750000Y-80874998D01*
X195750000Y-79774000D01*
X195769685Y-79706961D01*
X195822489Y-79661206D01*
X195874000Y-79650000D01*
X196000000Y-79650000D01*
X196000000Y-79524000D01*
X196001171Y-79520013D01*
X199530000Y-79520013D01*
X199530000Y-80270000D01*
X200696988Y-80270000D01*
X200664075Y-80327007D01*
X200630000Y-80454174D01*
X200630000Y-80585826D01*
X200664075Y-80712993D01*
X200696988Y-80770000D01*
X199530001Y-80770000D01*
X199530001Y-81519986D01*
X199540494Y-81622697D01*
X199595641Y-81789119D01*
X199595643Y-81789124D01*
X199687684Y-81938345D01*
X199811654Y-82062315D01*
X199960875Y-82154356D01*
X199960880Y-82154358D01*
X200127302Y-82209505D01*
X200127309Y-82209506D01*
X200230019Y-82219999D01*
X200879999Y-82219999D01*
X200880000Y-82219998D01*
X200880000Y-80953012D01*
X200937007Y-80985925D01*
X201064174Y-81020000D01*
X201195826Y-81020000D01*
X201322993Y-80985925D01*
X201380000Y-80953012D01*
X201380000Y-82219999D01*
X202029972Y-82219999D01*
X202029986Y-82219998D01*
X202132697Y-82209505D01*
X202299119Y-82154358D01*
X202299124Y-82154356D01*
X202448345Y-82062315D01*
X202572315Y-81938345D01*
X202664356Y-81789124D01*
X202664358Y-81789119D01*
X202719505Y-81622697D01*
X202719506Y-81622690D01*
X202729999Y-81519986D01*
X202730000Y-81519973D01*
X202730000Y-80770000D01*
X201563012Y-80770000D01*
X201595925Y-80712993D01*
X201630000Y-80585826D01*
X201630000Y-80454174D01*
X201595925Y-80327007D01*
X201563012Y-80270000D01*
X202729999Y-80270000D01*
X202729999Y-79520028D01*
X202729998Y-79520013D01*
X202719505Y-79417302D01*
X202664358Y-79250880D01*
X202664356Y-79250875D01*
X202572315Y-79101654D01*
X202448345Y-78977684D01*
X202299124Y-78885643D01*
X202299119Y-78885641D01*
X202132697Y-78830494D01*
X202132690Y-78830493D01*
X202029986Y-78820000D01*
X201380000Y-78820000D01*
X201380000Y-80086988D01*
X201322993Y-80054075D01*
X201195826Y-80020000D01*
X201064174Y-80020000D01*
X200937007Y-80054075D01*
X200880000Y-80086988D01*
X200880000Y-78820000D01*
X200230028Y-78820000D01*
X200230012Y-78820001D01*
X200127302Y-78830494D01*
X199960880Y-78885641D01*
X199960875Y-78885643D01*
X199811654Y-78977684D01*
X199687684Y-79101654D01*
X199595643Y-79250875D01*
X199595641Y-79250880D01*
X199540494Y-79417302D01*
X199540493Y-79417309D01*
X199530000Y-79520013D01*
X196001171Y-79520013D01*
X196019685Y-79456961D01*
X196072489Y-79411206D01*
X196124000Y-79400000D01*
X197087499Y-79400000D01*
X197087499Y-79125028D01*
X197087498Y-79125013D01*
X197077006Y-79022304D01*
X197039365Y-78908714D01*
X197036963Y-78838885D01*
X197072694Y-78778843D01*
X197093820Y-78764631D01*
X197093187Y-78763605D01*
X197099332Y-78759814D01*
X197099334Y-78759814D01*
X197248656Y-78667712D01*
X197372712Y-78543656D01*
X197464814Y-78394334D01*
X197519999Y-78227797D01*
X197530500Y-78125009D01*
X197530500Y-77824500D01*
X197550185Y-77757461D01*
X197602989Y-77711706D01*
X197654500Y-77700500D01*
X200713331Y-77700500D01*
X200713347Y-77700501D01*
X200720943Y-77700501D01*
X200879054Y-77700501D01*
X200879057Y-77700501D01*
X201031785Y-77659577D01*
X201081904Y-77630639D01*
X201168716Y-77580520D01*
X201280520Y-77468716D01*
X201280520Y-77468714D01*
X201290728Y-77458507D01*
X201290730Y-77458504D01*
X201467713Y-77281521D01*
X201467716Y-77281520D01*
X201579520Y-77169716D01*
X201629639Y-77082904D01*
X201658577Y-77032785D01*
X201699501Y-76880057D01*
X201699501Y-76721943D01*
X201699501Y-76714348D01*
X201699500Y-76714330D01*
X201699500Y-76551465D01*
X201719185Y-76484426D01*
X201720398Y-76482574D01*
X201731946Y-76465292D01*
X201808394Y-76350879D01*
X201868737Y-76205197D01*
X201899500Y-76050542D01*
X201899500Y-75892858D01*
X201899500Y-75892855D01*
X201899499Y-75892853D01*
X201889401Y-75842086D01*
X201868737Y-75738203D01*
X201856804Y-75709394D01*
X201808397Y-75592527D01*
X201808390Y-75592514D01*
X201720789Y-75461411D01*
X201720786Y-75461407D01*
X201609292Y-75349913D01*
X201609288Y-75349910D01*
X201478185Y-75262309D01*
X201478172Y-75262302D01*
X201332501Y-75201964D01*
X201332489Y-75201961D01*
X201177845Y-75171200D01*
X201177842Y-75171200D01*
X201020158Y-75171200D01*
X201020155Y-75171200D01*
X200865510Y-75201961D01*
X200865498Y-75201964D01*
X200719827Y-75262302D01*
X200719814Y-75262309D01*
X200588711Y-75349910D01*
X200588707Y-75349913D01*
X200477213Y-75461407D01*
X200477210Y-75461411D01*
X200389609Y-75592514D01*
X200389602Y-75592527D01*
X200329264Y-75738198D01*
X200329261Y-75738210D01*
X200298500Y-75892853D01*
X200298500Y-76050546D01*
X200329261Y-76205189D01*
X200329264Y-76205201D01*
X200380149Y-76328048D01*
X200387618Y-76397517D01*
X200356343Y-76459996D01*
X200296254Y-76495648D01*
X200265588Y-76499500D01*
X197654499Y-76499500D01*
X197587460Y-76479815D01*
X197541705Y-76427011D01*
X197530499Y-76375500D01*
X197530499Y-76084998D01*
X197530498Y-76084981D01*
X197519999Y-75982203D01*
X197519998Y-75982200D01*
X197511710Y-75957190D01*
X197464814Y-75815666D01*
X197372712Y-75666344D01*
X197248656Y-75542288D01*
X197117533Y-75461411D01*
X197099336Y-75450187D01*
X197099331Y-75450185D01*
X197070499Y-75440631D01*
X196932797Y-75395001D01*
X196932795Y-75395000D01*
X196830010Y-75384500D01*
X196109998Y-75384500D01*
X196109980Y-75384501D01*
X196007203Y-75395000D01*
X196007200Y-75395001D01*
X195840668Y-75450185D01*
X195840663Y-75450187D01*
X195691342Y-75542289D01*
X195567289Y-75666342D01*
X195475187Y-75815663D01*
X195475185Y-75815668D01*
X195466431Y-75842086D01*
X195420001Y-75982203D01*
X195420001Y-75982204D01*
X195420000Y-75982204D01*
X195409500Y-76084983D01*
X195409500Y-76380500D01*
X195406949Y-76389185D01*
X195408238Y-76398147D01*
X195397259Y-76422187D01*
X195389815Y-76447539D01*
X195382974Y-76453466D01*
X195379213Y-76461703D01*
X195356978Y-76475992D01*
X195337011Y-76493294D01*
X195326496Y-76495581D01*
X195320435Y-76499477D01*
X195285500Y-76504500D01*
X195114499Y-76504500D01*
X195047460Y-76484815D01*
X195001705Y-76432011D01*
X194990499Y-76380500D01*
X194990499Y-76084998D01*
X194990498Y-76084981D01*
X194979999Y-75982203D01*
X194979998Y-75982200D01*
X194971710Y-75957190D01*
X194924814Y-75815666D01*
X194832712Y-75666344D01*
X194708656Y-75542288D01*
X194589402Y-75468732D01*
X194542679Y-75416785D01*
X194530500Y-75363194D01*
X194530500Y-74921153D01*
X210999500Y-74921153D01*
X210999500Y-75078846D01*
X211030261Y-75233489D01*
X211030264Y-75233501D01*
X211090602Y-75379172D01*
X211090609Y-75379185D01*
X211178210Y-75510288D01*
X211178213Y-75510292D01*
X211289707Y-75621786D01*
X211289711Y-75621789D01*
X211420814Y-75709390D01*
X211420827Y-75709397D01*
X211566498Y-75769735D01*
X211566503Y-75769737D01*
X211721153Y-75800499D01*
X211721156Y-75800500D01*
X211721158Y-75800500D01*
X211878844Y-75800500D01*
X211878845Y-75800499D01*
X212033497Y-75769737D01*
X212142265Y-75724683D01*
X212211734Y-75717215D01*
X212274213Y-75748490D01*
X212295256Y-75774149D01*
X212307288Y-75793656D01*
X212431344Y-75917712D01*
X212580666Y-76009814D01*
X212747203Y-76064999D01*
X212849991Y-76075500D01*
X213850008Y-76075499D01*
X213850016Y-76075498D01*
X213850019Y-76075498D01*
X213906302Y-76069748D01*
X213952797Y-76064999D01*
X214119334Y-76009814D01*
X214268656Y-75917712D01*
X214392712Y-75793656D01*
X214484814Y-75644334D01*
X214539999Y-75477797D01*
X214550500Y-75375009D01*
X214550499Y-74624992D01*
X214539999Y-74522203D01*
X214484814Y-74355666D01*
X214392712Y-74206344D01*
X214268656Y-74082288D01*
X214265342Y-74080243D01*
X214263546Y-74078248D01*
X214262989Y-74077807D01*
X214263064Y-74077711D01*
X214218618Y-74028297D01*
X214207397Y-73959334D01*
X214235240Y-73895252D01*
X214265348Y-73869165D01*
X214268342Y-73867318D01*
X214392315Y-73743345D01*
X214484356Y-73594124D01*
X214484358Y-73594119D01*
X214539505Y-73427697D01*
X214539506Y-73427690D01*
X214549999Y-73324986D01*
X214550000Y-73324973D01*
X214550000Y-73200000D01*
X212150001Y-73200000D01*
X212150001Y-73324986D01*
X212160494Y-73427697D01*
X212215641Y-73594119D01*
X212215643Y-73594124D01*
X212307684Y-73743345D01*
X212431655Y-73867316D01*
X212431659Y-73867319D01*
X212434656Y-73869168D01*
X212436279Y-73870972D01*
X212437323Y-73871798D01*
X212437181Y-73871976D01*
X212481381Y-73921116D01*
X212492602Y-73990079D01*
X212464759Y-74054161D01*
X212434661Y-74080241D01*
X212431349Y-74082283D01*
X212431343Y-74082288D01*
X212307287Y-74206344D01*
X212295255Y-74225852D01*
X212243306Y-74272576D01*
X212174344Y-74283797D01*
X212142265Y-74275315D01*
X212033501Y-74230264D01*
X212033489Y-74230261D01*
X211878845Y-74199500D01*
X211878842Y-74199500D01*
X211721158Y-74199500D01*
X211721155Y-74199500D01*
X211566510Y-74230261D01*
X211566498Y-74230264D01*
X211420827Y-74290602D01*
X211420814Y-74290609D01*
X211289711Y-74378210D01*
X211289707Y-74378213D01*
X211178213Y-74489707D01*
X211178210Y-74489711D01*
X211090609Y-74620814D01*
X211090602Y-74620827D01*
X211030264Y-74766498D01*
X211030261Y-74766510D01*
X210999500Y-74921153D01*
X194530500Y-74921153D01*
X194530500Y-73819060D01*
X194530501Y-73819047D01*
X194530501Y-73650944D01*
X194530501Y-73650943D01*
X194489577Y-73498216D01*
X194467269Y-73459577D01*
X194410524Y-73361290D01*
X194410518Y-73361282D01*
X194051983Y-73002747D01*
X193970389Y-72921153D01*
X201874500Y-72921153D01*
X201874500Y-73078846D01*
X201905261Y-73233489D01*
X201905264Y-73233501D01*
X201965602Y-73379172D01*
X201965609Y-73379185D01*
X202053210Y-73510288D01*
X202053213Y-73510292D01*
X202164707Y-73621786D01*
X202164711Y-73621789D01*
X202295814Y-73709390D01*
X202295827Y-73709397D01*
X202424217Y-73762577D01*
X202441503Y-73769737D01*
X202596153Y-73800499D01*
X202596156Y-73800500D01*
X202596158Y-73800500D01*
X202753844Y-73800500D01*
X202753845Y-73800499D01*
X202908497Y-73769737D01*
X203021166Y-73723067D01*
X203054172Y-73709397D01*
X203054172Y-73709396D01*
X203054179Y-73709394D01*
X203108663Y-73672989D01*
X203185875Y-73621398D01*
X203252553Y-73600520D01*
X203254766Y-73600500D01*
X205270234Y-73600500D01*
X205337273Y-73620185D01*
X205339125Y-73621398D01*
X205470814Y-73709390D01*
X205470827Y-73709397D01*
X205599217Y-73762577D01*
X205616503Y-73769737D01*
X205771153Y-73800499D01*
X205771156Y-73800500D01*
X205771158Y-73800500D01*
X205928844Y-73800500D01*
X205928845Y-73800499D01*
X206083497Y-73769737D01*
X206196166Y-73723067D01*
X206229172Y-73709397D01*
X206229172Y-73709396D01*
X206229179Y-73709394D01*
X206360289Y-73621789D01*
X206471789Y-73510289D01*
X206559394Y-73379179D01*
X206569488Y-73354811D01*
X206587929Y-73310288D01*
X206619737Y-73233497D01*
X206650500Y-73078842D01*
X206650500Y-72921158D01*
X206650500Y-72921155D01*
X206650499Y-72921153D01*
X206642553Y-72881205D01*
X206619737Y-72766503D01*
X206600955Y-72721158D01*
X206559396Y-72620825D01*
X206559390Y-72620814D01*
X206528786Y-72575013D01*
X212150000Y-72575013D01*
X212150000Y-72700000D01*
X213100000Y-72700000D01*
X213600000Y-72700000D01*
X214549999Y-72700000D01*
X214549999Y-72575028D01*
X214549998Y-72575013D01*
X214539505Y-72472302D01*
X214484358Y-72305880D01*
X214484356Y-72305875D01*
X214392315Y-72156654D01*
X214268345Y-72032684D01*
X214119124Y-71940643D01*
X214119119Y-71940641D01*
X213952697Y-71885494D01*
X213952690Y-71885493D01*
X213849986Y-71875000D01*
X213600000Y-71875000D01*
X213600000Y-72700000D01*
X213100000Y-72700000D01*
X213100000Y-71875000D01*
X212850029Y-71875000D01*
X212850012Y-71875001D01*
X212747302Y-71885494D01*
X212580880Y-71940641D01*
X212580875Y-71940643D01*
X212431654Y-72032684D01*
X212307684Y-72156654D01*
X212215643Y-72305875D01*
X212215641Y-72305880D01*
X212160494Y-72472302D01*
X212160493Y-72472309D01*
X212150000Y-72575013D01*
X206528786Y-72575013D01*
X206471789Y-72489711D01*
X206471786Y-72489707D01*
X206360292Y-72378213D01*
X206360288Y-72378210D01*
X206229185Y-72290609D01*
X206229172Y-72290602D01*
X206083501Y-72230264D01*
X206083489Y-72230261D01*
X205928845Y-72199500D01*
X205928842Y-72199500D01*
X205771158Y-72199500D01*
X205771155Y-72199500D01*
X205616510Y-72230261D01*
X205616498Y-72230264D01*
X205470827Y-72290602D01*
X205470814Y-72290609D01*
X205339125Y-72378602D01*
X205272447Y-72399480D01*
X205270234Y-72399500D01*
X203254766Y-72399500D01*
X203187727Y-72379815D01*
X203185875Y-72378602D01*
X203054185Y-72290609D01*
X203054172Y-72290602D01*
X202908501Y-72230264D01*
X202908489Y-72230261D01*
X202753845Y-72199500D01*
X202753842Y-72199500D01*
X202596158Y-72199500D01*
X202596155Y-72199500D01*
X202441510Y-72230261D01*
X202441498Y-72230264D01*
X202295827Y-72290602D01*
X202295814Y-72290609D01*
X202164711Y-72378210D01*
X202164707Y-72378213D01*
X202053213Y-72489707D01*
X202053210Y-72489711D01*
X201965609Y-72620814D01*
X201965602Y-72620827D01*
X201905264Y-72766498D01*
X201905261Y-72766510D01*
X201874500Y-72921153D01*
X193970389Y-72921153D01*
X193487590Y-72438355D01*
X193487588Y-72438352D01*
X193368717Y-72319481D01*
X193368716Y-72319480D01*
X193281904Y-72269360D01*
X193281904Y-72269359D01*
X193281900Y-72269358D01*
X193231785Y-72240423D01*
X193079057Y-72199499D01*
X192920943Y-72199499D01*
X192913347Y-72199499D01*
X192913331Y-72199500D01*
X191174499Y-72199500D01*
X191107460Y-72179815D01*
X191061705Y-72127011D01*
X191051839Y-72093681D01*
X191050499Y-72084640D01*
X191050499Y-72002128D01*
X191044091Y-71942517D01*
X191019766Y-71877300D01*
X191017852Y-71864381D01*
X191020944Y-71842189D01*
X191019346Y-71819840D01*
X191025673Y-71808252D01*
X191027495Y-71795180D01*
X191042093Y-71778183D01*
X191052832Y-71758518D01*
X191064417Y-71752191D01*
X191073019Y-71742177D01*
X191094489Y-71735771D01*
X191114155Y-71725033D01*
X191139674Y-71722289D01*
X191139973Y-71722201D01*
X191140116Y-71722242D01*
X191140512Y-71722200D01*
X200691631Y-71722200D01*
X200691647Y-71722201D01*
X200699243Y-71722201D01*
X200857354Y-71722201D01*
X200857357Y-71722201D01*
X201010085Y-71681277D01*
X201075504Y-71643507D01*
X201147016Y-71602220D01*
X201258820Y-71490416D01*
X201258820Y-71490414D01*
X201269024Y-71480211D01*
X201269027Y-71480206D01*
X203028081Y-69721153D01*
X210949500Y-69721153D01*
X210949500Y-69878846D01*
X210980261Y-70033489D01*
X210980264Y-70033501D01*
X211040602Y-70179172D01*
X211040609Y-70179185D01*
X211128210Y-70310288D01*
X211128213Y-70310292D01*
X211239707Y-70421786D01*
X211239711Y-70421789D01*
X211370814Y-70509390D01*
X211370827Y-70509397D01*
X211515194Y-70569195D01*
X211516503Y-70569737D01*
X211671153Y-70600499D01*
X211671156Y-70600500D01*
X211671158Y-70600500D01*
X211828844Y-70600500D01*
X211828845Y-70600499D01*
X211983497Y-70569737D01*
X212042279Y-70545388D01*
X212111746Y-70537920D01*
X212174225Y-70569195D01*
X212207435Y-70620945D01*
X212215186Y-70644334D01*
X212307288Y-70793656D01*
X212431344Y-70917712D01*
X212580666Y-71009814D01*
X212747203Y-71064999D01*
X212849991Y-71075500D01*
X213850008Y-71075499D01*
X213850016Y-71075498D01*
X213850019Y-71075498D01*
X213906302Y-71069748D01*
X213952797Y-71064999D01*
X214119334Y-71009814D01*
X214268656Y-70917712D01*
X214392712Y-70793656D01*
X214484814Y-70644334D01*
X214539999Y-70477797D01*
X214550500Y-70375009D01*
X214550499Y-69624992D01*
X214539999Y-69522203D01*
X214484814Y-69355666D01*
X214392712Y-69206344D01*
X214268656Y-69082288D01*
X214265342Y-69080243D01*
X214263546Y-69078248D01*
X214262989Y-69077807D01*
X214263064Y-69077711D01*
X214218618Y-69028297D01*
X214207397Y-68959334D01*
X214235240Y-68895252D01*
X214265348Y-68869165D01*
X214268342Y-68867318D01*
X214392315Y-68743345D01*
X214484356Y-68594124D01*
X214484358Y-68594119D01*
X214539505Y-68427697D01*
X214539506Y-68427690D01*
X214549999Y-68324986D01*
X214550000Y-68324973D01*
X214550000Y-68200000D01*
X212150001Y-68200000D01*
X212150001Y-68324986D01*
X212160494Y-68427697D01*
X212215641Y-68594119D01*
X212215643Y-68594124D01*
X212307684Y-68743345D01*
X212431655Y-68867316D01*
X212431659Y-68867319D01*
X212434656Y-68869168D01*
X212436279Y-68870972D01*
X212437323Y-68871798D01*
X212437181Y-68871976D01*
X212481381Y-68921116D01*
X212492602Y-68990079D01*
X212464759Y-69054161D01*
X212453761Y-69065734D01*
X212444912Y-69073918D01*
X212431344Y-69082288D01*
X212375579Y-69138052D01*
X212373806Y-69139693D01*
X212344586Y-69154200D01*
X212315961Y-69169831D01*
X212313465Y-69169652D01*
X212311225Y-69170765D01*
X212278798Y-69167172D01*
X212246269Y-69164846D01*
X212243084Y-69163216D01*
X212241781Y-69163072D01*
X212240034Y-69161655D01*
X212220713Y-69151767D01*
X212129185Y-69090609D01*
X212129172Y-69090602D01*
X211983501Y-69030264D01*
X211983489Y-69030261D01*
X211828845Y-68999500D01*
X211828842Y-68999500D01*
X211671158Y-68999500D01*
X211671155Y-68999500D01*
X211516510Y-69030261D01*
X211516498Y-69030264D01*
X211370827Y-69090602D01*
X211370814Y-69090609D01*
X211239711Y-69178210D01*
X211239707Y-69178213D01*
X211128213Y-69289707D01*
X211128210Y-69289711D01*
X211040609Y-69420814D01*
X211040602Y-69420827D01*
X210980264Y-69566498D01*
X210980261Y-69566510D01*
X210949500Y-69721153D01*
X203028081Y-69721153D01*
X205112416Y-67636819D01*
X205173739Y-67603334D01*
X205200097Y-67600500D01*
X211620234Y-67600500D01*
X211687273Y-67620185D01*
X211689125Y-67621398D01*
X211820814Y-67709390D01*
X211820827Y-67709397D01*
X211966498Y-67769735D01*
X211966503Y-67769737D01*
X212119187Y-67800108D01*
X212121153Y-67800499D01*
X212121156Y-67800500D01*
X212121158Y-67800500D01*
X212278844Y-67800500D01*
X212278845Y-67800499D01*
X212433497Y-67769737D01*
X212482348Y-67749502D01*
X212579072Y-67709439D01*
X212626524Y-67700000D01*
X213100000Y-67700000D01*
X213600000Y-67700000D01*
X214549999Y-67700000D01*
X214549999Y-67575028D01*
X214549998Y-67575013D01*
X214539505Y-67472302D01*
X214484358Y-67305880D01*
X214484356Y-67305875D01*
X214392315Y-67156654D01*
X214268345Y-67032684D01*
X214119124Y-66940643D01*
X214119119Y-66940641D01*
X213952697Y-66885494D01*
X213952690Y-66885493D01*
X213849986Y-66875000D01*
X213600000Y-66875000D01*
X213600000Y-67700000D01*
X213100000Y-67700000D01*
X213100000Y-66896646D01*
X213032922Y-66859429D01*
X213030013Y-66856480D01*
X213026043Y-66855315D01*
X213005693Y-66831829D01*
X212983851Y-66809691D01*
X212982998Y-66805638D01*
X212980288Y-66802511D01*
X212971465Y-66775192D01*
X212969737Y-66766503D01*
X212936184Y-66685499D01*
X212909397Y-66620827D01*
X212909390Y-66620814D01*
X212821789Y-66489711D01*
X212821786Y-66489707D01*
X212710292Y-66378213D01*
X212710288Y-66378210D01*
X212579185Y-66290609D01*
X212579172Y-66290602D01*
X212433501Y-66230264D01*
X212433489Y-66230261D01*
X212278845Y-66199500D01*
X212278842Y-66199500D01*
X212121158Y-66199500D01*
X212121155Y-66199500D01*
X211966510Y-66230261D01*
X211966498Y-66230264D01*
X211854381Y-66276704D01*
X211784911Y-66284173D01*
X211722432Y-66252897D01*
X211686781Y-66192808D01*
X211689275Y-66122983D01*
X211696445Y-66105848D01*
X211753237Y-65994388D01*
X211753239Y-65994383D01*
X211753241Y-65994379D01*
X211831090Y-65754785D01*
X211870500Y-65505962D01*
X211870500Y-65054038D01*
X211831090Y-64805215D01*
X211753241Y-64565621D01*
X211753239Y-64565618D01*
X211753239Y-64565616D01*
X211679522Y-64420939D01*
X211638870Y-64341155D01*
X211547514Y-64215414D01*
X211490798Y-64137350D01*
X211490794Y-64137345D01*
X211312654Y-63959205D01*
X211312649Y-63959201D01*
X211108848Y-63811132D01*
X211108847Y-63811131D01*
X211108845Y-63811130D01*
X211035973Y-63774000D01*
X210884383Y-63696760D01*
X210644785Y-63618910D01*
X210612421Y-63613784D01*
X210395962Y-63579500D01*
X210144038Y-63579500D01*
X210019626Y-63599205D01*
X209895214Y-63618910D01*
X209655616Y-63696760D01*
X209431151Y-63811132D01*
X209227350Y-63959201D01*
X209227345Y-63959205D01*
X209049205Y-64137345D01*
X209049201Y-64137350D01*
X208901132Y-64341151D01*
X208786760Y-64565616D01*
X208708910Y-64805214D01*
X208686593Y-64946116D01*
X208669500Y-65054038D01*
X208669500Y-65505962D01*
X208681781Y-65583501D01*
X208708910Y-65754785D01*
X208786760Y-65994383D01*
X208850860Y-66120185D01*
X208901130Y-66218845D01*
X208901131Y-66218847D01*
X208901314Y-66219205D01*
X208914210Y-66287874D01*
X208887934Y-66352615D01*
X208830827Y-66392872D01*
X208790829Y-66399500D01*
X204986669Y-66399500D01*
X204986653Y-66399499D01*
X204979057Y-66399499D01*
X204820943Y-66399499D01*
X204738362Y-66421627D01*
X204668210Y-66440424D01*
X204668209Y-66440425D01*
X204618096Y-66469359D01*
X204618095Y-66469360D01*
X204599209Y-66480264D01*
X204531285Y-66519479D01*
X204531282Y-66519481D01*
X204475359Y-66575405D01*
X204419480Y-66631284D01*
X204419478Y-66631286D01*
X202476148Y-68574617D01*
X200565884Y-70484881D01*
X200504561Y-70518366D01*
X200478203Y-70521200D01*
X197394500Y-70521200D01*
X197327461Y-70501515D01*
X197281706Y-70448711D01*
X197272646Y-70407065D01*
X197271097Y-70407218D01*
X197270500Y-70401163D01*
X197270500Y-70401158D01*
X197239737Y-70246503D01*
X197218759Y-70195859D01*
X197211291Y-70126392D01*
X197242566Y-70063912D01*
X197245640Y-70060726D01*
X197248650Y-70057715D01*
X197248656Y-70057712D01*
X197372712Y-69933656D01*
X197464814Y-69784334D01*
X197519999Y-69617797D01*
X197530500Y-69515009D01*
X197530499Y-67474992D01*
X197528077Y-67451286D01*
X197519999Y-67372203D01*
X197519998Y-67372200D01*
X197505631Y-67328844D01*
X197464814Y-67205666D01*
X197464810Y-67205659D01*
X197377378Y-67063908D01*
X197369569Y-67035372D01*
X197359233Y-67007658D01*
X197360452Y-67002051D01*
X197358938Y-66996516D01*
X197367797Y-66968288D01*
X197374085Y-66939385D01*
X197378878Y-66932981D01*
X197379861Y-66929852D01*
X197395231Y-66911136D01*
X197434820Y-66871547D01*
X197496141Y-66838064D01*
X197565833Y-66843048D01*
X197610180Y-66871548D01*
X197681344Y-66942712D01*
X197830666Y-67034814D01*
X197914505Y-67062595D01*
X197971948Y-67102366D01*
X197998772Y-67166882D01*
X197999500Y-67180300D01*
X197999500Y-67620234D01*
X197979815Y-67687273D01*
X197978602Y-67689125D01*
X197890609Y-67820814D01*
X197890602Y-67820827D01*
X197830264Y-67966498D01*
X197830261Y-67966510D01*
X197799500Y-68121153D01*
X197799500Y-68278846D01*
X197830261Y-68433489D01*
X197830264Y-68433501D01*
X197890602Y-68579172D01*
X197890609Y-68579185D01*
X197978210Y-68710288D01*
X197978213Y-68710292D01*
X198089707Y-68821786D01*
X198089711Y-68821789D01*
X198220814Y-68909390D01*
X198220827Y-68909397D01*
X198366498Y-68969735D01*
X198366503Y-68969737D01*
X198516131Y-68999500D01*
X198521153Y-69000499D01*
X198521156Y-69000500D01*
X198521158Y-69000500D01*
X198678844Y-69000500D01*
X198678845Y-69000499D01*
X198833497Y-68969737D01*
X198979179Y-68909394D01*
X199110289Y-68821789D01*
X199221789Y-68710289D01*
X199309394Y-68579179D01*
X199369737Y-68433497D01*
X199400500Y-68278842D01*
X199400500Y-68121158D01*
X199400500Y-68121155D01*
X199400499Y-68121153D01*
X199380326Y-68019737D01*
X199369737Y-67966503D01*
X199340686Y-67896367D01*
X199309397Y-67820827D01*
X199309390Y-67820814D01*
X199221398Y-67689125D01*
X199200520Y-67622447D01*
X199200500Y-67620234D01*
X199200500Y-67180300D01*
X199220185Y-67113261D01*
X199272989Y-67067506D01*
X199285482Y-67062599D01*
X199369334Y-67034814D01*
X199518656Y-66942712D01*
X199637675Y-66823692D01*
X199698994Y-66790210D01*
X199768686Y-66795194D01*
X199805295Y-66818721D01*
X199805993Y-66817839D01*
X199811653Y-66822315D01*
X199960875Y-66914356D01*
X199960880Y-66914358D01*
X200127302Y-66969505D01*
X200127309Y-66969506D01*
X200230019Y-66979999D01*
X200879999Y-66979999D01*
X200880000Y-66979998D01*
X200880000Y-65713012D01*
X200937007Y-65745925D01*
X201064174Y-65780000D01*
X201195826Y-65780000D01*
X201322993Y-65745925D01*
X201380000Y-65713012D01*
X201380000Y-66979999D01*
X202029972Y-66979999D01*
X202029986Y-66979998D01*
X202132697Y-66969505D01*
X202299119Y-66914358D01*
X202299124Y-66914356D01*
X202448345Y-66822315D01*
X202572315Y-66698345D01*
X202664356Y-66549124D01*
X202664358Y-66549119D01*
X202719505Y-66382697D01*
X202719506Y-66382690D01*
X202729999Y-66279986D01*
X202730000Y-66279973D01*
X202730000Y-65530000D01*
X201563012Y-65530000D01*
X201595925Y-65472993D01*
X201630000Y-65345826D01*
X201630000Y-65214174D01*
X201595925Y-65087007D01*
X201563012Y-65030000D01*
X202729999Y-65030000D01*
X202729999Y-64280028D01*
X202729998Y-64280013D01*
X202719505Y-64177302D01*
X202664358Y-64010880D01*
X202664356Y-64010875D01*
X202572315Y-63861654D01*
X202448345Y-63737684D01*
X202299124Y-63645643D01*
X202299119Y-63645641D01*
X202132697Y-63590494D01*
X202132690Y-63590493D01*
X202029986Y-63580000D01*
X201380000Y-63580000D01*
X201380000Y-64846988D01*
X201322993Y-64814075D01*
X201195826Y-64780000D01*
X201064174Y-64780000D01*
X200937007Y-64814075D01*
X200880000Y-64846988D01*
X200880000Y-63580000D01*
X200230028Y-63580000D01*
X200230012Y-63580001D01*
X200127302Y-63590494D01*
X199956435Y-63647114D01*
X199886606Y-63649516D01*
X199826565Y-63613784D01*
X199795372Y-63551264D01*
X199794073Y-63542010D01*
X199789505Y-63497302D01*
X199778306Y-63463504D01*
X199775904Y-63393676D01*
X199811636Y-63333634D01*
X199874156Y-63302441D01*
X199896012Y-63300500D01*
X207982650Y-63300500D01*
X208049689Y-63320185D01*
X208051541Y-63321398D01*
X208145821Y-63384394D01*
X208145823Y-63384395D01*
X208145827Y-63384397D01*
X208285250Y-63442147D01*
X208291503Y-63444737D01*
X208410967Y-63468500D01*
X208446153Y-63475499D01*
X208446156Y-63475500D01*
X208446158Y-63475500D01*
X208603844Y-63475500D01*
X208603845Y-63475499D01*
X208758497Y-63444737D01*
X208904179Y-63384394D01*
X209035289Y-63296789D01*
X209146789Y-63185289D01*
X209234394Y-63054179D01*
X209294737Y-62908497D01*
X209325500Y-62753842D01*
X209325500Y-62596158D01*
X209325500Y-62596155D01*
X209325499Y-62596153D01*
X209320135Y-62569185D01*
X209294737Y-62441503D01*
X209294735Y-62441498D01*
X209234397Y-62295827D01*
X209234393Y-62295820D01*
X209204232Y-62250681D01*
X209183355Y-62184006D01*
X209193911Y-62131680D01*
X209198252Y-62121853D01*
X209209394Y-62105179D01*
X209266060Y-61968373D01*
X209266626Y-61967093D01*
X209288280Y-61941468D01*
X209309329Y-61915348D01*
X209310755Y-61914873D01*
X209311724Y-61913727D01*
X209343764Y-61903886D01*
X209375623Y-61893283D01*
X209377849Y-61893418D01*
X209378515Y-61893214D01*
X209379630Y-61893526D01*
X209399445Y-61894730D01*
X209593713Y-61925500D01*
X209593714Y-61925500D01*
X209806286Y-61925500D01*
X209806287Y-61925500D01*
X210016243Y-61892246D01*
X210218412Y-61826557D01*
X210407816Y-61730051D01*
X210521916Y-61647153D01*
X210579784Y-61605110D01*
X210579784Y-61605109D01*
X210579792Y-61605104D01*
X210718967Y-61465928D01*
X210780286Y-61432446D01*
X210849978Y-61437430D01*
X210905912Y-61479301D01*
X210912184Y-61488515D01*
X211007684Y-61643345D01*
X211131654Y-61767315D01*
X211280875Y-61859356D01*
X211280880Y-61859358D01*
X211447302Y-61914505D01*
X211447309Y-61914506D01*
X211550019Y-61924999D01*
X211949999Y-61924999D01*
X211950000Y-61924998D01*
X211950000Y-60854145D01*
X212016657Y-60892630D01*
X212137465Y-60925000D01*
X212262535Y-60925000D01*
X212383343Y-60892630D01*
X212450000Y-60854145D01*
X212450000Y-61924999D01*
X212849972Y-61924999D01*
X212849986Y-61924998D01*
X212952697Y-61914505D01*
X213119119Y-61859358D01*
X213119124Y-61859356D01*
X213268345Y-61767315D01*
X213392315Y-61643345D01*
X213484356Y-61494124D01*
X213484358Y-61494119D01*
X213539505Y-61327697D01*
X213539506Y-61327690D01*
X213549999Y-61224986D01*
X213550000Y-61224973D01*
X213550000Y-60700000D01*
X212604146Y-60700000D01*
X212642630Y-60633343D01*
X212675000Y-60512535D01*
X212675000Y-60387465D01*
X212642630Y-60266657D01*
X212604146Y-60200000D01*
X213549999Y-60200000D01*
X213549999Y-59675028D01*
X213549998Y-59675013D01*
X213539505Y-59572302D01*
X213484358Y-59405880D01*
X213484356Y-59405875D01*
X213392315Y-59256654D01*
X213268345Y-59132684D01*
X213119124Y-59040643D01*
X213119119Y-59040641D01*
X212952697Y-58985494D01*
X212952690Y-58985493D01*
X212849986Y-58975000D01*
X212450000Y-58975000D01*
X212450000Y-60045854D01*
X212383343Y-60007370D01*
X212262535Y-59975000D01*
X212137465Y-59975000D01*
X212016657Y-60007370D01*
X211950000Y-60045854D01*
X211950000Y-58975000D01*
X211550028Y-58975000D01*
X211550012Y-58975001D01*
X211447302Y-58985494D01*
X211280880Y-59040641D01*
X211280875Y-59040643D01*
X211131654Y-59132684D01*
X211007683Y-59256655D01*
X211007680Y-59256659D01*
X210912183Y-59411484D01*
X210860235Y-59458209D01*
X210791273Y-59469430D01*
X210727191Y-59441587D01*
X210718964Y-59434068D01*
X210579786Y-59294890D01*
X210407820Y-59169951D01*
X210218414Y-59073444D01*
X210218413Y-59073443D01*
X210218412Y-59073443D01*
X210016243Y-59007754D01*
X210016241Y-59007753D01*
X210016240Y-59007753D01*
X209849119Y-58981284D01*
X209806287Y-58974500D01*
X209593713Y-58974500D01*
X209550881Y-58981284D01*
X209383760Y-59007753D01*
X209181585Y-59073444D01*
X208992179Y-59169951D01*
X208820213Y-59294890D01*
X208669894Y-59445209D01*
X208669890Y-59445214D01*
X208550318Y-59609793D01*
X208494989Y-59652459D01*
X208425375Y-59658438D01*
X208363580Y-59625833D01*
X208349682Y-59609793D01*
X208230109Y-59445214D01*
X208230105Y-59445209D01*
X208079786Y-59294890D01*
X207907820Y-59169951D01*
X207718414Y-59073444D01*
X207718413Y-59073443D01*
X207718412Y-59073443D01*
X207516243Y-59007754D01*
X207516241Y-59007753D01*
X207516240Y-59007753D01*
X207349119Y-58981284D01*
X207306287Y-58974500D01*
X207093713Y-58974500D01*
X207050881Y-58981284D01*
X206883760Y-59007753D01*
X206681585Y-59073444D01*
X206492179Y-59169951D01*
X206320213Y-59294890D01*
X206169890Y-59445213D01*
X206044951Y-59617179D01*
X206015476Y-59675028D01*
X205966992Y-59770185D01*
X205961076Y-59781795D01*
X205913102Y-59832591D01*
X205850591Y-59849500D01*
X202649409Y-59849500D01*
X202582370Y-59829815D01*
X202538924Y-59781795D01*
X202533992Y-59772115D01*
X202455051Y-59617184D01*
X202455049Y-59617181D01*
X202455048Y-59617179D01*
X202330109Y-59445213D01*
X202179786Y-59294890D01*
X202007819Y-59169951D01*
X202007818Y-59169950D01*
X202007816Y-59169949D01*
X201893286Y-59111593D01*
X201883127Y-59102919D01*
X201873890Y-59099326D01*
X201859024Y-59082339D01*
X201849284Y-59074023D01*
X201845456Y-59068757D01*
X201780520Y-58956284D01*
X201668716Y-58844480D01*
X201668715Y-58844479D01*
X201664385Y-58840149D01*
X201664374Y-58840139D01*
X201642948Y-58818713D01*
X224849500Y-58818713D01*
X224849500Y-59031287D01*
X224882754Y-59241243D01*
X224936246Y-59405875D01*
X224948444Y-59443414D01*
X225044951Y-59632820D01*
X225169890Y-59804786D01*
X225320213Y-59955109D01*
X225492179Y-60080048D01*
X225492181Y-60080049D01*
X225492184Y-60080051D01*
X225681588Y-60176557D01*
X225883757Y-60242246D01*
X226093713Y-60275500D01*
X226093714Y-60275500D01*
X226306286Y-60275500D01*
X226306287Y-60275500D01*
X226516243Y-60242246D01*
X226718412Y-60176557D01*
X226907816Y-60080051D01*
X226929789Y-60064086D01*
X227079786Y-59955109D01*
X227079788Y-59955106D01*
X227079792Y-59955104D01*
X227230104Y-59804792D01*
X227230106Y-59804788D01*
X227230109Y-59804786D01*
X227355048Y-59632820D01*
X227355047Y-59632820D01*
X227355051Y-59632816D01*
X227451557Y-59443412D01*
X227517246Y-59241243D01*
X227550500Y-59031287D01*
X227550500Y-58818713D01*
X227517246Y-58608757D01*
X227451557Y-58406588D01*
X227355051Y-58217184D01*
X227355049Y-58217181D01*
X227355048Y-58217179D01*
X227230109Y-58045213D01*
X227079786Y-57894890D01*
X226907820Y-57769951D01*
X226718414Y-57673444D01*
X226718413Y-57673443D01*
X226718412Y-57673443D01*
X226516243Y-57607754D01*
X226516241Y-57607753D01*
X226516240Y-57607753D01*
X226354957Y-57582208D01*
X226306287Y-57574500D01*
X226093713Y-57574500D01*
X226045042Y-57582208D01*
X225883760Y-57607753D01*
X225681585Y-57673444D01*
X225492179Y-57769951D01*
X225320213Y-57894890D01*
X225169890Y-58045213D01*
X225044951Y-58217179D01*
X224948444Y-58406585D01*
X224948443Y-58406587D01*
X224948443Y-58406588D01*
X224882754Y-58608757D01*
X224849500Y-58818713D01*
X201642948Y-58818713D01*
X201612590Y-58788355D01*
X201612588Y-58788352D01*
X201493717Y-58669481D01*
X201493709Y-58669475D01*
X201388541Y-58608757D01*
X201388540Y-58608756D01*
X201388540Y-58608757D01*
X201356785Y-58590423D01*
X201204057Y-58549499D01*
X201045943Y-58549499D01*
X201038347Y-58549499D01*
X201038331Y-58549500D01*
X193436670Y-58549500D01*
X193436654Y-58549499D01*
X193429058Y-58549499D01*
X193270943Y-58549499D01*
X193194579Y-58569961D01*
X193118214Y-58590423D01*
X193118209Y-58590426D01*
X192981290Y-58669475D01*
X192981282Y-58669481D01*
X191837584Y-59813181D01*
X191810656Y-59827884D01*
X191784838Y-59844477D01*
X191778637Y-59845368D01*
X191776261Y-59846666D01*
X191749903Y-59849500D01*
X191749409Y-59849500D01*
X191682370Y-59829815D01*
X191638924Y-59781795D01*
X191633992Y-59772115D01*
X191555051Y-59617184D01*
X191555049Y-59617181D01*
X191555048Y-59617179D01*
X191430109Y-59445213D01*
X191279786Y-59294890D01*
X191107820Y-59169951D01*
X190972837Y-59101174D01*
X190922041Y-59053200D01*
X190921744Y-59052688D01*
X190909388Y-59031287D01*
X190880520Y-58981284D01*
X190697960Y-58798725D01*
X190697959Y-58798723D01*
X190568717Y-58669481D01*
X190568709Y-58669475D01*
X190463541Y-58608757D01*
X190463540Y-58608756D01*
X190463540Y-58608757D01*
X190431785Y-58590423D01*
X190279057Y-58549499D01*
X190120943Y-58549499D01*
X190113347Y-58549499D01*
X190113331Y-58549500D01*
X182636670Y-58549500D01*
X182636654Y-58549499D01*
X182629058Y-58549499D01*
X182470943Y-58549499D01*
X182394579Y-58569961D01*
X182318214Y-58590423D01*
X182318209Y-58590426D01*
X182181290Y-58669475D01*
X182181282Y-58669481D01*
X181037584Y-59813181D01*
X181010656Y-59827884D01*
X180984838Y-59844477D01*
X180978637Y-59845368D01*
X180976261Y-59846666D01*
X180949903Y-59849500D01*
X180849409Y-59849500D01*
X180782370Y-59829815D01*
X180738924Y-59781795D01*
X180733992Y-59772115D01*
X180655051Y-59617184D01*
X180655049Y-59617181D01*
X180655048Y-59617179D01*
X180530109Y-59445213D01*
X180379786Y-59294890D01*
X180207820Y-59169951D01*
X180072837Y-59101174D01*
X180022041Y-59053200D01*
X180021744Y-59052688D01*
X180014789Y-59040641D01*
X179980520Y-58981284D01*
X179868716Y-58869480D01*
X179868715Y-58869479D01*
X179864385Y-58865149D01*
X179864374Y-58865139D01*
X179812590Y-58813355D01*
X179812588Y-58813352D01*
X179693717Y-58694481D01*
X179693716Y-58694480D01*
X179606904Y-58644360D01*
X179606904Y-58644359D01*
X179606900Y-58644358D01*
X179556785Y-58615423D01*
X179404057Y-58574499D01*
X179245943Y-58574499D01*
X179238347Y-58574499D01*
X179238331Y-58574500D01*
X163886670Y-58574500D01*
X163886654Y-58574499D01*
X163879058Y-58574499D01*
X163720943Y-58574499D01*
X163661504Y-58590426D01*
X163568214Y-58615423D01*
X163568209Y-58615426D01*
X163431290Y-58694475D01*
X163431282Y-58694481D01*
X163119482Y-59006281D01*
X163119478Y-59006287D01*
X163098702Y-59042271D01*
X163048134Y-59090486D01*
X163047611Y-59090753D01*
X162892185Y-59169947D01*
X162892184Y-59169948D01*
X162720213Y-59294890D01*
X162569890Y-59445213D01*
X162444951Y-59617179D01*
X162348444Y-59806585D01*
X162348443Y-59806587D01*
X162348443Y-59806588D01*
X162330937Y-59860465D01*
X162282753Y-60008760D01*
X162249500Y-60218713D01*
X162249500Y-60681286D01*
X162282753Y-60891239D01*
X162282753Y-60891241D01*
X162282754Y-60891243D01*
X162344814Y-61082244D01*
X162348444Y-61093414D01*
X162386552Y-61168205D01*
X162399448Y-61236874D01*
X162373172Y-61301615D01*
X162316065Y-61341872D01*
X162276067Y-61348500D01*
X152921942Y-61348500D01*
X152769214Y-61389423D01*
X152719939Y-61417873D01*
X152719938Y-61417873D01*
X152632287Y-61468477D01*
X152632282Y-61468481D01*
X149462181Y-64638583D01*
X149400858Y-64672068D01*
X149331166Y-64667084D01*
X149275233Y-64625212D01*
X149250816Y-64559748D01*
X149250500Y-64550902D01*
X149250500Y-58868713D01*
X149924500Y-58868713D01*
X149924500Y-59081287D01*
X149926610Y-59094607D01*
X149952275Y-59256655D01*
X149957754Y-59291243D01*
X150007782Y-59445214D01*
X150023444Y-59493414D01*
X150119951Y-59682820D01*
X150244890Y-59854786D01*
X150395213Y-60005109D01*
X150567179Y-60130048D01*
X150567181Y-60130049D01*
X150567184Y-60130051D01*
X150756588Y-60226557D01*
X150958757Y-60292246D01*
X151168713Y-60325500D01*
X151168714Y-60325500D01*
X151381286Y-60325500D01*
X151381287Y-60325500D01*
X151591243Y-60292246D01*
X151793412Y-60226557D01*
X151982816Y-60130051D01*
X152049936Y-60081286D01*
X152154786Y-60005109D01*
X152154788Y-60005106D01*
X152154792Y-60005104D01*
X152305104Y-59854792D01*
X152305106Y-59854788D01*
X152305109Y-59854786D01*
X152430048Y-59682820D01*
X152430047Y-59682820D01*
X152430051Y-59682816D01*
X152526557Y-59493412D01*
X152592246Y-59291243D01*
X152625500Y-59081287D01*
X152625500Y-58868713D01*
X152592246Y-58658757D01*
X152526557Y-58456588D01*
X152430051Y-58267184D01*
X152430049Y-58267181D01*
X152430048Y-58267179D01*
X152305109Y-58095213D01*
X152154786Y-57944890D01*
X151982820Y-57819951D01*
X151793414Y-57723444D01*
X151793413Y-57723443D01*
X151793412Y-57723443D01*
X151591243Y-57657754D01*
X151591241Y-57657753D01*
X151591240Y-57657753D01*
X151429957Y-57632208D01*
X151381287Y-57624500D01*
X151168713Y-57624500D01*
X151120042Y-57632208D01*
X150958760Y-57657753D01*
X150756585Y-57723444D01*
X150567179Y-57819951D01*
X150395213Y-57944890D01*
X150244890Y-58095213D01*
X150119951Y-58267179D01*
X150023444Y-58456585D01*
X149957753Y-58658760D01*
X149933268Y-58813352D01*
X149924500Y-58868713D01*
X149250500Y-58868713D01*
X149250500Y-57074234D01*
X149270185Y-57007195D01*
X149322989Y-56961440D01*
X149374420Y-56950234D01*
X228125424Y-56900891D01*
X228192474Y-56920534D01*
G37*
%TD.AperFunction*%
%TA.AperFunction,Conductor*%
G36*
X219142240Y-81435234D02*
G01*
X219168329Y-81465339D01*
X219170181Y-81468341D01*
X219170183Y-81468344D01*
X219294154Y-81592315D01*
X219443375Y-81684356D01*
X219443382Y-81684359D01*
X219494441Y-81701278D01*
X219551886Y-81741050D01*
X219578710Y-81805565D01*
X219566395Y-81874341D01*
X219558548Y-81887863D01*
X219555964Y-81891731D01*
X219555955Y-81891747D01*
X219476504Y-82083558D01*
X219476502Y-82083566D01*
X219436000Y-82287185D01*
X219436000Y-82695000D01*
X220323012Y-82695000D01*
X220305795Y-82704940D01*
X220249940Y-82760795D01*
X220210444Y-82829204D01*
X220190000Y-82905504D01*
X220190000Y-82984496D01*
X220210444Y-83060796D01*
X220249940Y-83129205D01*
X220305795Y-83185060D01*
X220323012Y-83195000D01*
X219436000Y-83195000D01*
X219436000Y-83602814D01*
X219476502Y-83806433D01*
X219476503Y-83806437D01*
X219485454Y-83828046D01*
X219492923Y-83897515D01*
X219461649Y-83959995D01*
X219401560Y-83995648D01*
X219370893Y-83999500D01*
X219069647Y-83999500D01*
X219002608Y-83979815D01*
X218956853Y-83927011D01*
X218946909Y-83857853D01*
X218955083Y-83828053D01*
X218963976Y-83806586D01*
X219004500Y-83602859D01*
X219004500Y-82287141D01*
X219004500Y-82287138D01*
X219004499Y-82287136D01*
X218991244Y-82220500D01*
X218963976Y-82083414D01*
X218955237Y-82062315D01*
X218884939Y-81892600D01*
X218883312Y-81884423D01*
X218880523Y-81880083D01*
X218875500Y-81845148D01*
X218875500Y-81599730D01*
X218895185Y-81532691D01*
X218911819Y-81512049D01*
X218931578Y-81492290D01*
X218955212Y-81468656D01*
X218957252Y-81465347D01*
X218959245Y-81463555D01*
X218959693Y-81462989D01*
X218959789Y-81463065D01*
X219009194Y-81418623D01*
X219078156Y-81407395D01*
X219142240Y-81435234D01*
G37*
%TD.AperFunction*%
%TA.AperFunction,Conductor*%
G36*
X219089007Y-70812109D02*
G01*
X219100833Y-70812419D01*
X219120462Y-70825773D01*
X219142240Y-70835234D01*
X219153547Y-70848281D01*
X219158601Y-70851720D01*
X219160600Y-70856421D01*
X219168329Y-70865339D01*
X219170181Y-70868341D01*
X219170183Y-70868344D01*
X219294154Y-70992315D01*
X219443375Y-71084356D01*
X219443380Y-71084358D01*
X219609802Y-71139505D01*
X219609810Y-71139506D01*
X219706876Y-71149423D01*
X219771568Y-71175819D01*
X219811719Y-71233000D01*
X219814583Y-71302811D01*
X219781956Y-71360462D01*
X219671304Y-71471114D01*
X219555960Y-71643737D01*
X219555955Y-71643747D01*
X219476504Y-71835558D01*
X219476502Y-71835566D01*
X219436000Y-72039185D01*
X219436000Y-72447000D01*
X220323012Y-72447000D01*
X220305795Y-72456940D01*
X220249940Y-72512795D01*
X220210444Y-72581204D01*
X220190000Y-72657504D01*
X220190000Y-72736496D01*
X220210444Y-72812796D01*
X220249940Y-72881205D01*
X220305795Y-72937060D01*
X220323012Y-72947000D01*
X219436000Y-72947000D01*
X219436000Y-73354814D01*
X219476502Y-73558433D01*
X219476504Y-73558441D01*
X219555955Y-73750252D01*
X219555960Y-73750262D01*
X219671304Y-73922885D01*
X219671307Y-73922889D01*
X219671384Y-73922966D01*
X219671411Y-73923015D01*
X219675170Y-73927596D01*
X219674301Y-73928308D01*
X219704869Y-73984289D01*
X219699885Y-74053981D01*
X219674342Y-74093725D01*
X219674782Y-74094086D01*
X219671684Y-74097860D01*
X219671384Y-74098328D01*
X219670919Y-74098792D01*
X219670916Y-74098796D01*
X219555512Y-74271509D01*
X219555511Y-74271511D01*
X219503139Y-74397952D01*
X219459299Y-74452356D01*
X219393005Y-74474421D01*
X219388578Y-74474500D01*
X219051422Y-74474500D01*
X218984383Y-74454815D01*
X218938628Y-74402011D01*
X218936861Y-74397952D01*
X218884488Y-74271511D01*
X218884487Y-74271509D01*
X218848366Y-74217451D01*
X218769083Y-74098796D01*
X218768978Y-74098691D01*
X218768939Y-74098621D01*
X218765218Y-74094086D01*
X218766077Y-74093380D01*
X218735486Y-74037372D01*
X218740462Y-73967680D01*
X218765742Y-73928344D01*
X218765218Y-73927914D01*
X218768908Y-73923416D01*
X218768978Y-73923309D01*
X218769083Y-73923204D01*
X218884486Y-73750493D01*
X218963976Y-73558586D01*
X219004500Y-73354859D01*
X219004500Y-72039141D01*
X219004500Y-72039138D01*
X219004499Y-72039136D01*
X218995374Y-71993260D01*
X218963976Y-71835414D01*
X218961619Y-71829724D01*
X218884939Y-71644600D01*
X218875500Y-71597148D01*
X218875500Y-70999730D01*
X218883385Y-70972873D01*
X218888094Y-70945281D01*
X218893859Y-70937205D01*
X218895185Y-70932691D01*
X218907946Y-70916100D01*
X218909824Y-70914043D01*
X218955212Y-70868656D01*
X218963379Y-70855413D01*
X218971239Y-70846810D01*
X218991543Y-70834500D01*
X219009194Y-70818623D01*
X219020870Y-70816721D01*
X219030987Y-70810589D01*
X219054719Y-70811210D01*
X219078156Y-70807395D01*
X219089007Y-70812109D01*
G37*
%TD.AperFunction*%
%TA.AperFunction,Conductor*%
G36*
X190671028Y-63320185D02*
G01*
X190716783Y-63372989D01*
X190726727Y-63442147D01*
X190721695Y-63463505D01*
X190710494Y-63497305D01*
X190710493Y-63497309D01*
X190700000Y-63600013D01*
X190700000Y-63725000D01*
X195144695Y-63725000D01*
X195173638Y-63709195D01*
X195243329Y-63714178D01*
X195260169Y-63725000D01*
X198476000Y-63725000D01*
X198543039Y-63744685D01*
X198588794Y-63797489D01*
X198600000Y-63849000D01*
X198600000Y-64101000D01*
X198580315Y-64168039D01*
X198527511Y-64213794D01*
X198476000Y-64225000D01*
X195255302Y-64225000D01*
X195226355Y-64240805D01*
X195156663Y-64235819D01*
X195139829Y-64225000D01*
X190700001Y-64225000D01*
X190700001Y-64349986D01*
X190710494Y-64452697D01*
X190765641Y-64619119D01*
X190765643Y-64619124D01*
X190857684Y-64768345D01*
X190981655Y-64892316D01*
X190981659Y-64892319D01*
X190984656Y-64894168D01*
X190986279Y-64895972D01*
X190987323Y-64896798D01*
X190987181Y-64896976D01*
X191031381Y-64946116D01*
X191042602Y-65015079D01*
X191014759Y-65079161D01*
X190984661Y-65105241D01*
X190981349Y-65107283D01*
X190981343Y-65107288D01*
X190857289Y-65231342D01*
X190765187Y-65380663D01*
X190765185Y-65380668D01*
X190737349Y-65464670D01*
X190710001Y-65547203D01*
X190710001Y-65547204D01*
X190710000Y-65547204D01*
X190699500Y-65649983D01*
X190699500Y-66400001D01*
X190699501Y-66400019D01*
X190710000Y-66502796D01*
X190710001Y-66502799D01*
X190765185Y-66669331D01*
X190768240Y-66675882D01*
X190766307Y-66676783D01*
X190781975Y-66734058D01*
X190761048Y-66800720D01*
X190707403Y-66845486D01*
X190644740Y-66855043D01*
X190597844Y-66850000D01*
X190050000Y-66850000D01*
X190050000Y-67976000D01*
X190030315Y-68043039D01*
X189977511Y-68088794D01*
X189926000Y-68100000D01*
X189800000Y-68100000D01*
X189800000Y-68226000D01*
X189780315Y-68293039D01*
X189727511Y-68338794D01*
X189676000Y-68350000D01*
X188550000Y-68350000D01*
X188550000Y-68897844D01*
X188556401Y-68957372D01*
X188556403Y-68957379D01*
X188606645Y-69092086D01*
X188606647Y-69092089D01*
X188650889Y-69151188D01*
X188675307Y-69216652D01*
X188660456Y-69284926D01*
X188611051Y-69334331D01*
X188551623Y-69349500D01*
X183249001Y-69349500D01*
X183181962Y-69329815D01*
X183136207Y-69277011D01*
X183126263Y-69207853D01*
X183149734Y-69151189D01*
X183193796Y-69092331D01*
X183244091Y-68957483D01*
X183250500Y-68897873D01*
X183250499Y-67302155D01*
X188550000Y-67302155D01*
X188550000Y-67850000D01*
X189550000Y-67850000D01*
X189550000Y-66850000D01*
X189002155Y-66850000D01*
X188942627Y-66856401D01*
X188942620Y-66856403D01*
X188807913Y-66906645D01*
X188807906Y-66906649D01*
X188692812Y-66992809D01*
X188692809Y-66992812D01*
X188606649Y-67107906D01*
X188606645Y-67107913D01*
X188556403Y-67242620D01*
X188556401Y-67242627D01*
X188550000Y-67302155D01*
X183250499Y-67302155D01*
X183250499Y-67302128D01*
X183244091Y-67242517D01*
X183230347Y-67205668D01*
X183193797Y-67107671D01*
X183193793Y-67107664D01*
X183107547Y-66992455D01*
X183107544Y-66992452D01*
X182992335Y-66906206D01*
X182992328Y-66906202D01*
X182857482Y-66855908D01*
X182857483Y-66855908D01*
X182797883Y-66849501D01*
X182797881Y-66849500D01*
X182797873Y-66849500D01*
X182797865Y-66849500D01*
X182724500Y-66849500D01*
X182657461Y-66829815D01*
X182611706Y-66777011D01*
X182600500Y-66725500D01*
X182600500Y-66394168D01*
X182620185Y-66327129D01*
X182672989Y-66281374D01*
X182742147Y-66271430D01*
X182793392Y-66291067D01*
X182820812Y-66309389D01*
X182820827Y-66309397D01*
X182966498Y-66369735D01*
X182966503Y-66369737D01*
X183116126Y-66399499D01*
X183121153Y-66400499D01*
X183121156Y-66400500D01*
X183121158Y-66400500D01*
X183278844Y-66400500D01*
X183278845Y-66400499D01*
X183433497Y-66369737D01*
X183579179Y-66309394D01*
X183710289Y-66221789D01*
X183821789Y-66110289D01*
X183909394Y-65979179D01*
X183969737Y-65833497D01*
X184000500Y-65678842D01*
X184000500Y-65521158D01*
X184000500Y-65521155D01*
X184000499Y-65521153D01*
X183972984Y-65382828D01*
X183969737Y-65366503D01*
X183964252Y-65353261D01*
X183909397Y-65220827D01*
X183909390Y-65220814D01*
X183821789Y-65089711D01*
X183821786Y-65089707D01*
X183710292Y-64978213D01*
X183710288Y-64978210D01*
X183579185Y-64890609D01*
X183579172Y-64890602D01*
X183433501Y-64830264D01*
X183433489Y-64830261D01*
X183278845Y-64799500D01*
X183278842Y-64799500D01*
X183121158Y-64799500D01*
X183121155Y-64799500D01*
X182966510Y-64830261D01*
X182966498Y-64830264D01*
X182820827Y-64890602D01*
X182820816Y-64890608D01*
X182793390Y-64908934D01*
X182726712Y-64929811D01*
X182659332Y-64911326D01*
X182612643Y-64859346D01*
X182600500Y-64805831D01*
X182600500Y-64420946D01*
X182600499Y-64420939D01*
X182589669Y-64380520D01*
X182559577Y-64268215D01*
X182511777Y-64185423D01*
X182480520Y-64131284D01*
X182368716Y-64019480D01*
X182368715Y-64019479D01*
X182364385Y-64015149D01*
X182364374Y-64015139D01*
X181887590Y-63538355D01*
X181880521Y-63531286D01*
X181880520Y-63531284D01*
X181861413Y-63512177D01*
X181827931Y-63450856D01*
X181830780Y-63411026D01*
X181832916Y-63381166D01*
X181846520Y-63362994D01*
X181874789Y-63325231D01*
X181919674Y-63308491D01*
X181940252Y-63300816D01*
X181949098Y-63300500D01*
X190603989Y-63300500D01*
X190671028Y-63320185D01*
G37*
%TD.AperFunction*%
%TA.AperFunction,Conductor*%
G36*
X173154912Y-59795185D02*
G01*
X173200667Y-59847989D01*
X173210611Y-59917147D01*
X173205805Y-59937813D01*
X173184080Y-60004673D01*
X173182753Y-60008760D01*
X173149500Y-60218713D01*
X173149500Y-60681286D01*
X173182753Y-60891240D01*
X173245444Y-61084182D01*
X173247439Y-61154023D01*
X173211359Y-61213856D01*
X173148658Y-61244684D01*
X173127513Y-61246500D01*
X170360808Y-61246500D01*
X170360792Y-61246499D01*
X170353196Y-61246499D01*
X170195082Y-61246499D01*
X170106092Y-61270343D01*
X170036244Y-61268681D01*
X169978381Y-61229519D01*
X169950877Y-61165290D01*
X169950000Y-61150569D01*
X169950000Y-60700000D01*
X169004146Y-60700000D01*
X169042630Y-60633343D01*
X169075000Y-60512535D01*
X169075000Y-60387465D01*
X169042630Y-60266657D01*
X169004146Y-60200000D01*
X169949999Y-60200000D01*
X169949999Y-59899500D01*
X169969684Y-59832461D01*
X170022488Y-59786706D01*
X170073999Y-59775500D01*
X173087873Y-59775500D01*
X173154912Y-59795185D01*
G37*
%TD.AperFunction*%
%TD*%
M02*
