%TF.GenerationSoftware,KiCad,Pcbnew,9.0.1*%
%TF.CreationDate,2025-10-10T15:40:48-03:00*%
%TF.ProjectId,minisumo,6d696e69-7375-46d6-9f2e-6b696361645f,rev?*%
%TF.SameCoordinates,Original*%
%TF.FileFunction,Legend,Bot*%
%TF.FilePolarity,Positive*%
%FSLAX46Y46*%
G04 Gerber Fmt 4.6, Leading zero omitted, Abs format (unit mm)*
G04 Created by KiCad (PCBNEW 9.0.1) date 2025-10-10 15:40:48*
%MOMM*%
%LPD*%
G01*
G04 APERTURE LIST*
%ADD10C,0.125000*%
%ADD11C,0.150000*%
%ADD12C,0.152400*%
%ADD13C,0.120000*%
G04 APERTURE END LIST*
D10*
X197460621Y-77104119D02*
X197496335Y-77139834D01*
X197496335Y-77139834D02*
X197603478Y-77175548D01*
X197603478Y-77175548D02*
X197674906Y-77175548D01*
X197674906Y-77175548D02*
X197782049Y-77139834D01*
X197782049Y-77139834D02*
X197853478Y-77068405D01*
X197853478Y-77068405D02*
X197889192Y-76996976D01*
X197889192Y-76996976D02*
X197924906Y-76854119D01*
X197924906Y-76854119D02*
X197924906Y-76746976D01*
X197924906Y-76746976D02*
X197889192Y-76604119D01*
X197889192Y-76604119D02*
X197853478Y-76532691D01*
X197853478Y-76532691D02*
X197782049Y-76461262D01*
X197782049Y-76461262D02*
X197674906Y-76425548D01*
X197674906Y-76425548D02*
X197603478Y-76425548D01*
X197603478Y-76425548D02*
X197496335Y-76461262D01*
X197496335Y-76461262D02*
X197460621Y-76496976D01*
X197139192Y-76782691D02*
X196889192Y-76782691D01*
X196782049Y-77175548D02*
X197139192Y-77175548D01*
X197139192Y-77175548D02*
X197139192Y-76425548D01*
X197139192Y-76425548D02*
X196782049Y-76425548D01*
X196496335Y-76496976D02*
X196460621Y-76461262D01*
X196460621Y-76461262D02*
X196389193Y-76425548D01*
X196389193Y-76425548D02*
X196210621Y-76425548D01*
X196210621Y-76425548D02*
X196139193Y-76461262D01*
X196139193Y-76461262D02*
X196103478Y-76496976D01*
X196103478Y-76496976D02*
X196067764Y-76568405D01*
X196067764Y-76568405D02*
X196067764Y-76639834D01*
X196067764Y-76639834D02*
X196103478Y-76746976D01*
X196103478Y-76746976D02*
X196532050Y-77175548D01*
X196532050Y-77175548D02*
X196067764Y-77175548D01*
X195746335Y-76782691D02*
X195174907Y-76782691D01*
X195174907Y-76996976D02*
X195746335Y-76996976D01*
X194424907Y-77175548D02*
X194853478Y-77175548D01*
X194639193Y-77175548D02*
X194639193Y-76425548D01*
X194639193Y-76425548D02*
X194710621Y-76532691D01*
X194710621Y-76532691D02*
X194782050Y-76604119D01*
X194782050Y-76604119D02*
X194853478Y-76639834D01*
X193960621Y-76425548D02*
X193889192Y-76425548D01*
X193889192Y-76425548D02*
X193817764Y-76461262D01*
X193817764Y-76461262D02*
X193782050Y-76496976D01*
X193782050Y-76496976D02*
X193746335Y-76568405D01*
X193746335Y-76568405D02*
X193710621Y-76711262D01*
X193710621Y-76711262D02*
X193710621Y-76889834D01*
X193710621Y-76889834D02*
X193746335Y-77032691D01*
X193746335Y-77032691D02*
X193782050Y-77104119D01*
X193782050Y-77104119D02*
X193817764Y-77139834D01*
X193817764Y-77139834D02*
X193889192Y-77175548D01*
X193889192Y-77175548D02*
X193960621Y-77175548D01*
X193960621Y-77175548D02*
X194032050Y-77139834D01*
X194032050Y-77139834D02*
X194067764Y-77104119D01*
X194067764Y-77104119D02*
X194103478Y-77032691D01*
X194103478Y-77032691D02*
X194139192Y-76889834D01*
X194139192Y-76889834D02*
X194139192Y-76711262D01*
X194139192Y-76711262D02*
X194103478Y-76568405D01*
X194103478Y-76568405D02*
X194067764Y-76496976D01*
X194067764Y-76496976D02*
X194032050Y-76461262D01*
X194032050Y-76461262D02*
X193960621Y-76425548D01*
X193246335Y-76425548D02*
X193174906Y-76425548D01*
X193174906Y-76425548D02*
X193103478Y-76461262D01*
X193103478Y-76461262D02*
X193067764Y-76496976D01*
X193067764Y-76496976D02*
X193032049Y-76568405D01*
X193032049Y-76568405D02*
X192996335Y-76711262D01*
X192996335Y-76711262D02*
X192996335Y-76889834D01*
X192996335Y-76889834D02*
X193032049Y-77032691D01*
X193032049Y-77032691D02*
X193067764Y-77104119D01*
X193067764Y-77104119D02*
X193103478Y-77139834D01*
X193103478Y-77139834D02*
X193174906Y-77175548D01*
X193174906Y-77175548D02*
X193246335Y-77175548D01*
X193246335Y-77175548D02*
X193317764Y-77139834D01*
X193317764Y-77139834D02*
X193353478Y-77104119D01*
X193353478Y-77104119D02*
X193389192Y-77032691D01*
X193389192Y-77032691D02*
X193424906Y-76889834D01*
X193424906Y-76889834D02*
X193424906Y-76711262D01*
X193424906Y-76711262D02*
X193389192Y-76568405D01*
X193389192Y-76568405D02*
X193353478Y-76496976D01*
X193353478Y-76496976D02*
X193317764Y-76461262D01*
X193317764Y-76461262D02*
X193246335Y-76425548D01*
X192353478Y-76675548D02*
X192353478Y-77175548D01*
X192674906Y-76675548D02*
X192674906Y-77068405D01*
X192674906Y-77068405D02*
X192639192Y-77139834D01*
X192639192Y-77139834D02*
X192567763Y-77175548D01*
X192567763Y-77175548D02*
X192460620Y-77175548D01*
X192460620Y-77175548D02*
X192389192Y-77139834D01*
X192389192Y-77139834D02*
X192353478Y-77104119D01*
X191746335Y-76782691D02*
X191996335Y-76782691D01*
X191996335Y-77175548D02*
X191996335Y-76425548D01*
X191996335Y-76425548D02*
X191639192Y-76425548D01*
X197460621Y-78311577D02*
X197496335Y-78347292D01*
X197496335Y-78347292D02*
X197603478Y-78383006D01*
X197603478Y-78383006D02*
X197674906Y-78383006D01*
X197674906Y-78383006D02*
X197782049Y-78347292D01*
X197782049Y-78347292D02*
X197853478Y-78275863D01*
X197853478Y-78275863D02*
X197889192Y-78204434D01*
X197889192Y-78204434D02*
X197924906Y-78061577D01*
X197924906Y-78061577D02*
X197924906Y-77954434D01*
X197924906Y-77954434D02*
X197889192Y-77811577D01*
X197889192Y-77811577D02*
X197853478Y-77740149D01*
X197853478Y-77740149D02*
X197782049Y-77668720D01*
X197782049Y-77668720D02*
X197674906Y-77633006D01*
X197674906Y-77633006D02*
X197603478Y-77633006D01*
X197603478Y-77633006D02*
X197496335Y-77668720D01*
X197496335Y-77668720D02*
X197460621Y-77704434D01*
X197139192Y-77990149D02*
X196889192Y-77990149D01*
X196782049Y-78383006D02*
X197139192Y-78383006D01*
X197139192Y-78383006D02*
X197139192Y-77633006D01*
X197139192Y-77633006D02*
X196782049Y-77633006D01*
X196532050Y-77633006D02*
X196067764Y-77633006D01*
X196067764Y-77633006D02*
X196317764Y-77918720D01*
X196317764Y-77918720D02*
X196210621Y-77918720D01*
X196210621Y-77918720D02*
X196139193Y-77954434D01*
X196139193Y-77954434D02*
X196103478Y-77990149D01*
X196103478Y-77990149D02*
X196067764Y-78061577D01*
X196067764Y-78061577D02*
X196067764Y-78240149D01*
X196067764Y-78240149D02*
X196103478Y-78311577D01*
X196103478Y-78311577D02*
X196139193Y-78347292D01*
X196139193Y-78347292D02*
X196210621Y-78383006D01*
X196210621Y-78383006D02*
X196424907Y-78383006D01*
X196424907Y-78383006D02*
X196496335Y-78347292D01*
X196496335Y-78347292D02*
X196532050Y-78311577D01*
X195746335Y-78097292D02*
X195174907Y-78097292D01*
X194496336Y-77883006D02*
X194496336Y-78383006D01*
X194674907Y-77597292D02*
X194853478Y-78133006D01*
X194853478Y-78133006D02*
X194389193Y-78133006D01*
X194103478Y-77990149D02*
X193532050Y-77990149D01*
X193532050Y-78204434D02*
X194103478Y-78204434D01*
X192782050Y-78383006D02*
X193210621Y-78383006D01*
X192996336Y-78383006D02*
X192996336Y-77633006D01*
X192996336Y-77633006D02*
X193067764Y-77740149D01*
X193067764Y-77740149D02*
X193139193Y-77811577D01*
X193139193Y-77811577D02*
X193210621Y-77847292D01*
X192139193Y-77883006D02*
X192139193Y-78383006D01*
X192460621Y-77883006D02*
X192460621Y-78275863D01*
X192460621Y-78275863D02*
X192424907Y-78347292D01*
X192424907Y-78347292D02*
X192353478Y-78383006D01*
X192353478Y-78383006D02*
X192246335Y-78383006D01*
X192246335Y-78383006D02*
X192174907Y-78347292D01*
X192174907Y-78347292D02*
X192139193Y-78311577D01*
X191532050Y-77990149D02*
X191782050Y-77990149D01*
X191782050Y-78383006D02*
X191782050Y-77633006D01*
X191782050Y-77633006D02*
X191424907Y-77633006D01*
X197460621Y-79519035D02*
X197496335Y-79554750D01*
X197496335Y-79554750D02*
X197603478Y-79590464D01*
X197603478Y-79590464D02*
X197674906Y-79590464D01*
X197674906Y-79590464D02*
X197782049Y-79554750D01*
X197782049Y-79554750D02*
X197853478Y-79483321D01*
X197853478Y-79483321D02*
X197889192Y-79411892D01*
X197889192Y-79411892D02*
X197924906Y-79269035D01*
X197924906Y-79269035D02*
X197924906Y-79161892D01*
X197924906Y-79161892D02*
X197889192Y-79019035D01*
X197889192Y-79019035D02*
X197853478Y-78947607D01*
X197853478Y-78947607D02*
X197782049Y-78876178D01*
X197782049Y-78876178D02*
X197674906Y-78840464D01*
X197674906Y-78840464D02*
X197603478Y-78840464D01*
X197603478Y-78840464D02*
X197496335Y-78876178D01*
X197496335Y-78876178D02*
X197460621Y-78911892D01*
X197139192Y-79197607D02*
X196567764Y-79197607D01*
X196567764Y-79411892D02*
X197139192Y-79411892D01*
X195817764Y-79590464D02*
X196246335Y-79590464D01*
X196032050Y-79590464D02*
X196032050Y-78840464D01*
X196032050Y-78840464D02*
X196103478Y-78947607D01*
X196103478Y-78947607D02*
X196174907Y-79019035D01*
X196174907Y-79019035D02*
X196246335Y-79054750D01*
X195353478Y-78840464D02*
X195282049Y-78840464D01*
X195282049Y-78840464D02*
X195210621Y-78876178D01*
X195210621Y-78876178D02*
X195174907Y-78911892D01*
X195174907Y-78911892D02*
X195139192Y-78983321D01*
X195139192Y-78983321D02*
X195103478Y-79126178D01*
X195103478Y-79126178D02*
X195103478Y-79304750D01*
X195103478Y-79304750D02*
X195139192Y-79447607D01*
X195139192Y-79447607D02*
X195174907Y-79519035D01*
X195174907Y-79519035D02*
X195210621Y-79554750D01*
X195210621Y-79554750D02*
X195282049Y-79590464D01*
X195282049Y-79590464D02*
X195353478Y-79590464D01*
X195353478Y-79590464D02*
X195424907Y-79554750D01*
X195424907Y-79554750D02*
X195460621Y-79519035D01*
X195460621Y-79519035D02*
X195496335Y-79447607D01*
X195496335Y-79447607D02*
X195532049Y-79304750D01*
X195532049Y-79304750D02*
X195532049Y-79126178D01*
X195532049Y-79126178D02*
X195496335Y-78983321D01*
X195496335Y-78983321D02*
X195460621Y-78911892D01*
X195460621Y-78911892D02*
X195424907Y-78876178D01*
X195424907Y-78876178D02*
X195353478Y-78840464D01*
X194639192Y-78840464D02*
X194567763Y-78840464D01*
X194567763Y-78840464D02*
X194496335Y-78876178D01*
X194496335Y-78876178D02*
X194460621Y-78911892D01*
X194460621Y-78911892D02*
X194424906Y-78983321D01*
X194424906Y-78983321D02*
X194389192Y-79126178D01*
X194389192Y-79126178D02*
X194389192Y-79304750D01*
X194389192Y-79304750D02*
X194424906Y-79447607D01*
X194424906Y-79447607D02*
X194460621Y-79519035D01*
X194460621Y-79519035D02*
X194496335Y-79554750D01*
X194496335Y-79554750D02*
X194567763Y-79590464D01*
X194567763Y-79590464D02*
X194639192Y-79590464D01*
X194639192Y-79590464D02*
X194710621Y-79554750D01*
X194710621Y-79554750D02*
X194746335Y-79519035D01*
X194746335Y-79519035D02*
X194782049Y-79447607D01*
X194782049Y-79447607D02*
X194817763Y-79304750D01*
X194817763Y-79304750D02*
X194817763Y-79126178D01*
X194817763Y-79126178D02*
X194782049Y-78983321D01*
X194782049Y-78983321D02*
X194746335Y-78911892D01*
X194746335Y-78911892D02*
X194710621Y-78876178D01*
X194710621Y-78876178D02*
X194639192Y-78840464D01*
X194067763Y-79090464D02*
X194067763Y-79590464D01*
X194067763Y-79161892D02*
X194032049Y-79126178D01*
X194032049Y-79126178D02*
X193960620Y-79090464D01*
X193960620Y-79090464D02*
X193853477Y-79090464D01*
X193853477Y-79090464D02*
X193782049Y-79126178D01*
X193782049Y-79126178D02*
X193746335Y-79197607D01*
X193746335Y-79197607D02*
X193746335Y-79590464D01*
X193139192Y-79197607D02*
X193389192Y-79197607D01*
X193389192Y-79590464D02*
X193389192Y-78840464D01*
X193389192Y-78840464D02*
X193032049Y-78840464D01*
X197460621Y-80797922D02*
X197710621Y-80440779D01*
X197889192Y-80797922D02*
X197889192Y-80047922D01*
X197889192Y-80047922D02*
X197603478Y-80047922D01*
X197603478Y-80047922D02*
X197532049Y-80083636D01*
X197532049Y-80083636D02*
X197496335Y-80119350D01*
X197496335Y-80119350D02*
X197460621Y-80190779D01*
X197460621Y-80190779D02*
X197460621Y-80297922D01*
X197460621Y-80297922D02*
X197496335Y-80369350D01*
X197496335Y-80369350D02*
X197532049Y-80405065D01*
X197532049Y-80405065D02*
X197603478Y-80440779D01*
X197603478Y-80440779D02*
X197889192Y-80440779D01*
X196746335Y-80797922D02*
X197174906Y-80797922D01*
X196960621Y-80797922D02*
X196960621Y-80047922D01*
X196960621Y-80047922D02*
X197032049Y-80155065D01*
X197032049Y-80155065D02*
X197103478Y-80226493D01*
X197103478Y-80226493D02*
X197174906Y-80262208D01*
X196424906Y-80512208D02*
X195853478Y-80512208D01*
X195567764Y-80047922D02*
X195067764Y-80047922D01*
X195067764Y-80047922D02*
X195389192Y-80797922D01*
X194782049Y-80405065D02*
X194210621Y-80405065D01*
X194210621Y-80619350D02*
X194782049Y-80619350D01*
X193924907Y-80047922D02*
X193460621Y-80047922D01*
X193460621Y-80047922D02*
X193710621Y-80333636D01*
X193710621Y-80333636D02*
X193603478Y-80333636D01*
X193603478Y-80333636D02*
X193532050Y-80369350D01*
X193532050Y-80369350D02*
X193496335Y-80405065D01*
X193496335Y-80405065D02*
X193460621Y-80476493D01*
X193460621Y-80476493D02*
X193460621Y-80655065D01*
X193460621Y-80655065D02*
X193496335Y-80726493D01*
X193496335Y-80726493D02*
X193532050Y-80762208D01*
X193532050Y-80762208D02*
X193603478Y-80797922D01*
X193603478Y-80797922D02*
X193817764Y-80797922D01*
X193817764Y-80797922D02*
X193889192Y-80762208D01*
X193889192Y-80762208D02*
X193924907Y-80726493D01*
X193210621Y-80047922D02*
X192746335Y-80047922D01*
X192746335Y-80047922D02*
X192996335Y-80333636D01*
X192996335Y-80333636D02*
X192889192Y-80333636D01*
X192889192Y-80333636D02*
X192817764Y-80369350D01*
X192817764Y-80369350D02*
X192782049Y-80405065D01*
X192782049Y-80405065D02*
X192746335Y-80476493D01*
X192746335Y-80476493D02*
X192746335Y-80655065D01*
X192746335Y-80655065D02*
X192782049Y-80726493D01*
X192782049Y-80726493D02*
X192817764Y-80762208D01*
X192817764Y-80762208D02*
X192889192Y-80797922D01*
X192889192Y-80797922D02*
X193103478Y-80797922D01*
X193103478Y-80797922D02*
X193174906Y-80762208D01*
X193174906Y-80762208D02*
X193210621Y-80726493D01*
X192282049Y-80047922D02*
X192210620Y-80047922D01*
X192210620Y-80047922D02*
X192139192Y-80083636D01*
X192139192Y-80083636D02*
X192103478Y-80119350D01*
X192103478Y-80119350D02*
X192067763Y-80190779D01*
X192067763Y-80190779D02*
X192032049Y-80333636D01*
X192032049Y-80333636D02*
X192032049Y-80512208D01*
X192032049Y-80512208D02*
X192067763Y-80655065D01*
X192067763Y-80655065D02*
X192103478Y-80726493D01*
X192103478Y-80726493D02*
X192139192Y-80762208D01*
X192139192Y-80762208D02*
X192210620Y-80797922D01*
X192210620Y-80797922D02*
X192282049Y-80797922D01*
X192282049Y-80797922D02*
X192353478Y-80762208D01*
X192353478Y-80762208D02*
X192389192Y-80726493D01*
X192389192Y-80726493D02*
X192424906Y-80655065D01*
X192424906Y-80655065D02*
X192460620Y-80512208D01*
X192460620Y-80512208D02*
X192460620Y-80333636D01*
X192460620Y-80333636D02*
X192424906Y-80190779D01*
X192424906Y-80190779D02*
X192389192Y-80119350D01*
X192389192Y-80119350D02*
X192353478Y-80083636D01*
X192353478Y-80083636D02*
X192282049Y-80047922D01*
X197460621Y-82005380D02*
X197710621Y-81648237D01*
X197889192Y-82005380D02*
X197889192Y-81255380D01*
X197889192Y-81255380D02*
X197603478Y-81255380D01*
X197603478Y-81255380D02*
X197532049Y-81291094D01*
X197532049Y-81291094D02*
X197496335Y-81326808D01*
X197496335Y-81326808D02*
X197460621Y-81398237D01*
X197460621Y-81398237D02*
X197460621Y-81505380D01*
X197460621Y-81505380D02*
X197496335Y-81576808D01*
X197496335Y-81576808D02*
X197532049Y-81612523D01*
X197532049Y-81612523D02*
X197603478Y-81648237D01*
X197603478Y-81648237D02*
X197889192Y-81648237D01*
X197032049Y-81576808D02*
X197103478Y-81541094D01*
X197103478Y-81541094D02*
X197139192Y-81505380D01*
X197139192Y-81505380D02*
X197174906Y-81433951D01*
X197174906Y-81433951D02*
X197174906Y-81398237D01*
X197174906Y-81398237D02*
X197139192Y-81326808D01*
X197139192Y-81326808D02*
X197103478Y-81291094D01*
X197103478Y-81291094D02*
X197032049Y-81255380D01*
X197032049Y-81255380D02*
X196889192Y-81255380D01*
X196889192Y-81255380D02*
X196817764Y-81291094D01*
X196817764Y-81291094D02*
X196782049Y-81326808D01*
X196782049Y-81326808D02*
X196746335Y-81398237D01*
X196746335Y-81398237D02*
X196746335Y-81433951D01*
X196746335Y-81433951D02*
X196782049Y-81505380D01*
X196782049Y-81505380D02*
X196817764Y-81541094D01*
X196817764Y-81541094D02*
X196889192Y-81576808D01*
X196889192Y-81576808D02*
X197032049Y-81576808D01*
X197032049Y-81576808D02*
X197103478Y-81612523D01*
X197103478Y-81612523D02*
X197139192Y-81648237D01*
X197139192Y-81648237D02*
X197174906Y-81719666D01*
X197174906Y-81719666D02*
X197174906Y-81862523D01*
X197174906Y-81862523D02*
X197139192Y-81933951D01*
X197139192Y-81933951D02*
X197103478Y-81969666D01*
X197103478Y-81969666D02*
X197032049Y-82005380D01*
X197032049Y-82005380D02*
X196889192Y-82005380D01*
X196889192Y-82005380D02*
X196817764Y-81969666D01*
X196817764Y-81969666D02*
X196782049Y-81933951D01*
X196782049Y-81933951D02*
X196746335Y-81862523D01*
X196746335Y-81862523D02*
X196746335Y-81719666D01*
X196746335Y-81719666D02*
X196782049Y-81648237D01*
X196782049Y-81648237D02*
X196817764Y-81612523D01*
X196817764Y-81612523D02*
X196889192Y-81576808D01*
X196424906Y-81719666D02*
X195853478Y-81719666D01*
X195103478Y-82005380D02*
X195532049Y-82005380D01*
X195317764Y-82005380D02*
X195317764Y-81255380D01*
X195317764Y-81255380D02*
X195389192Y-81362523D01*
X195389192Y-81362523D02*
X195460621Y-81433951D01*
X195460621Y-81433951D02*
X195532049Y-81469666D01*
X194389192Y-82005380D02*
X194817763Y-82005380D01*
X194603478Y-82005380D02*
X194603478Y-81255380D01*
X194603478Y-81255380D02*
X194674906Y-81362523D01*
X194674906Y-81362523D02*
X194746335Y-81433951D01*
X194746335Y-81433951D02*
X194817763Y-81469666D01*
X194067763Y-81612523D02*
X193496335Y-81612523D01*
X193496335Y-81826808D02*
X194067763Y-81826808D01*
X192746335Y-82005380D02*
X193174906Y-82005380D01*
X192960621Y-82005380D02*
X192960621Y-81255380D01*
X192960621Y-81255380D02*
X193032049Y-81362523D01*
X193032049Y-81362523D02*
X193103478Y-81433951D01*
X193103478Y-81433951D02*
X193174906Y-81469666D01*
X192282049Y-81255380D02*
X192210620Y-81255380D01*
X192210620Y-81255380D02*
X192139192Y-81291094D01*
X192139192Y-81291094D02*
X192103478Y-81326808D01*
X192103478Y-81326808D02*
X192067763Y-81398237D01*
X192067763Y-81398237D02*
X192032049Y-81541094D01*
X192032049Y-81541094D02*
X192032049Y-81719666D01*
X192032049Y-81719666D02*
X192067763Y-81862523D01*
X192067763Y-81862523D02*
X192103478Y-81933951D01*
X192103478Y-81933951D02*
X192139192Y-81969666D01*
X192139192Y-81969666D02*
X192210620Y-82005380D01*
X192210620Y-82005380D02*
X192282049Y-82005380D01*
X192282049Y-82005380D02*
X192353478Y-81969666D01*
X192353478Y-81969666D02*
X192389192Y-81933951D01*
X192389192Y-81933951D02*
X192424906Y-81862523D01*
X192424906Y-81862523D02*
X192460620Y-81719666D01*
X192460620Y-81719666D02*
X192460620Y-81541094D01*
X192460620Y-81541094D02*
X192424906Y-81398237D01*
X192424906Y-81398237D02*
X192389192Y-81326808D01*
X192389192Y-81326808D02*
X192353478Y-81291094D01*
X192353478Y-81291094D02*
X192282049Y-81255380D01*
X191710620Y-82005380D02*
X191710620Y-81255380D01*
X191282049Y-82005380D02*
X191603477Y-81576808D01*
X191282049Y-81255380D02*
X191710620Y-81683951D01*
X186221428Y-76302190D02*
X186245237Y-76326000D01*
X186245237Y-76326000D02*
X186316666Y-76349809D01*
X186316666Y-76349809D02*
X186364285Y-76349809D01*
X186364285Y-76349809D02*
X186435713Y-76326000D01*
X186435713Y-76326000D02*
X186483332Y-76278380D01*
X186483332Y-76278380D02*
X186507142Y-76230761D01*
X186507142Y-76230761D02*
X186530951Y-76135523D01*
X186530951Y-76135523D02*
X186530951Y-76064095D01*
X186530951Y-76064095D02*
X186507142Y-75968857D01*
X186507142Y-75968857D02*
X186483332Y-75921238D01*
X186483332Y-75921238D02*
X186435713Y-75873619D01*
X186435713Y-75873619D02*
X186364285Y-75849809D01*
X186364285Y-75849809D02*
X186316666Y-75849809D01*
X186316666Y-75849809D02*
X186245237Y-75873619D01*
X186245237Y-75873619D02*
X186221428Y-75897428D01*
X185745237Y-76349809D02*
X186030951Y-76349809D01*
X185888094Y-76349809D02*
X185888094Y-75849809D01*
X185888094Y-75849809D02*
X185935713Y-75921238D01*
X185935713Y-75921238D02*
X185983332Y-75968857D01*
X185983332Y-75968857D02*
X186030951Y-75992666D01*
X185435714Y-75849809D02*
X185388095Y-75849809D01*
X185388095Y-75849809D02*
X185340476Y-75873619D01*
X185340476Y-75873619D02*
X185316666Y-75897428D01*
X185316666Y-75897428D02*
X185292857Y-75945047D01*
X185292857Y-75945047D02*
X185269047Y-76040285D01*
X185269047Y-76040285D02*
X185269047Y-76159333D01*
X185269047Y-76159333D02*
X185292857Y-76254571D01*
X185292857Y-76254571D02*
X185316666Y-76302190D01*
X185316666Y-76302190D02*
X185340476Y-76326000D01*
X185340476Y-76326000D02*
X185388095Y-76349809D01*
X185388095Y-76349809D02*
X185435714Y-76349809D01*
X185435714Y-76349809D02*
X185483333Y-76326000D01*
X185483333Y-76326000D02*
X185507142Y-76302190D01*
X185507142Y-76302190D02*
X185530952Y-76254571D01*
X185530952Y-76254571D02*
X185554761Y-76159333D01*
X185554761Y-76159333D02*
X185554761Y-76040285D01*
X185554761Y-76040285D02*
X185530952Y-75945047D01*
X185530952Y-75945047D02*
X185507142Y-75897428D01*
X185507142Y-75897428D02*
X185483333Y-75873619D01*
X185483333Y-75873619D02*
X185435714Y-75849809D01*
X186221428Y-71674809D02*
X186388094Y-71436714D01*
X186507142Y-71674809D02*
X186507142Y-71174809D01*
X186507142Y-71174809D02*
X186316666Y-71174809D01*
X186316666Y-71174809D02*
X186269047Y-71198619D01*
X186269047Y-71198619D02*
X186245237Y-71222428D01*
X186245237Y-71222428D02*
X186221428Y-71270047D01*
X186221428Y-71270047D02*
X186221428Y-71341476D01*
X186221428Y-71341476D02*
X186245237Y-71389095D01*
X186245237Y-71389095D02*
X186269047Y-71412904D01*
X186269047Y-71412904D02*
X186316666Y-71436714D01*
X186316666Y-71436714D02*
X186507142Y-71436714D01*
X185745237Y-71674809D02*
X186030951Y-71674809D01*
X185888094Y-71674809D02*
X185888094Y-71174809D01*
X185888094Y-71174809D02*
X185935713Y-71246238D01*
X185935713Y-71246238D02*
X185983332Y-71293857D01*
X185983332Y-71293857D02*
X186030951Y-71317666D01*
X185435714Y-71174809D02*
X185388095Y-71174809D01*
X185388095Y-71174809D02*
X185340476Y-71198619D01*
X185340476Y-71198619D02*
X185316666Y-71222428D01*
X185316666Y-71222428D02*
X185292857Y-71270047D01*
X185292857Y-71270047D02*
X185269047Y-71365285D01*
X185269047Y-71365285D02*
X185269047Y-71484333D01*
X185269047Y-71484333D02*
X185292857Y-71579571D01*
X185292857Y-71579571D02*
X185316666Y-71627190D01*
X185316666Y-71627190D02*
X185340476Y-71651000D01*
X185340476Y-71651000D02*
X185388095Y-71674809D01*
X185388095Y-71674809D02*
X185435714Y-71674809D01*
X185435714Y-71674809D02*
X185483333Y-71651000D01*
X185483333Y-71651000D02*
X185507142Y-71627190D01*
X185507142Y-71627190D02*
X185530952Y-71579571D01*
X185530952Y-71579571D02*
X185554761Y-71484333D01*
X185554761Y-71484333D02*
X185554761Y-71365285D01*
X185554761Y-71365285D02*
X185530952Y-71270047D01*
X185530952Y-71270047D02*
X185507142Y-71222428D01*
X185507142Y-71222428D02*
X185483333Y-71198619D01*
X185483333Y-71198619D02*
X185435714Y-71174809D01*
X186221428Y-67027190D02*
X186245237Y-67051000D01*
X186245237Y-67051000D02*
X186316666Y-67074809D01*
X186316666Y-67074809D02*
X186364285Y-67074809D01*
X186364285Y-67074809D02*
X186435713Y-67051000D01*
X186435713Y-67051000D02*
X186483332Y-67003380D01*
X186483332Y-67003380D02*
X186507142Y-66955761D01*
X186507142Y-66955761D02*
X186530951Y-66860523D01*
X186530951Y-66860523D02*
X186530951Y-66789095D01*
X186530951Y-66789095D02*
X186507142Y-66693857D01*
X186507142Y-66693857D02*
X186483332Y-66646238D01*
X186483332Y-66646238D02*
X186435713Y-66598619D01*
X186435713Y-66598619D02*
X186364285Y-66574809D01*
X186364285Y-66574809D02*
X186316666Y-66574809D01*
X186316666Y-66574809D02*
X186245237Y-66598619D01*
X186245237Y-66598619D02*
X186221428Y-66622428D01*
X185745237Y-67074809D02*
X186030951Y-67074809D01*
X185888094Y-67074809D02*
X185888094Y-66574809D01*
X185888094Y-66574809D02*
X185935713Y-66646238D01*
X185935713Y-66646238D02*
X185983332Y-66693857D01*
X185983332Y-66693857D02*
X186030951Y-66717666D01*
X185269047Y-67074809D02*
X185554761Y-67074809D01*
X185411904Y-67074809D02*
X185411904Y-66574809D01*
X185411904Y-66574809D02*
X185459523Y-66646238D01*
X185459523Y-66646238D02*
X185507142Y-66693857D01*
X185507142Y-66693857D02*
X185554761Y-66717666D01*
D11*
X189566666Y-58907200D02*
X189423809Y-58954819D01*
X189423809Y-58954819D02*
X189185714Y-58954819D01*
X189185714Y-58954819D02*
X189090476Y-58907200D01*
X189090476Y-58907200D02*
X189042857Y-58859580D01*
X189042857Y-58859580D02*
X188995238Y-58764342D01*
X188995238Y-58764342D02*
X188995238Y-58669104D01*
X188995238Y-58669104D02*
X189042857Y-58573866D01*
X189042857Y-58573866D02*
X189090476Y-58526247D01*
X189090476Y-58526247D02*
X189185714Y-58478628D01*
X189185714Y-58478628D02*
X189376190Y-58431009D01*
X189376190Y-58431009D02*
X189471428Y-58383390D01*
X189471428Y-58383390D02*
X189519047Y-58335771D01*
X189519047Y-58335771D02*
X189566666Y-58240533D01*
X189566666Y-58240533D02*
X189566666Y-58145295D01*
X189566666Y-58145295D02*
X189519047Y-58050057D01*
X189519047Y-58050057D02*
X189471428Y-58002438D01*
X189471428Y-58002438D02*
X189376190Y-57954819D01*
X189376190Y-57954819D02*
X189138095Y-57954819D01*
X189138095Y-57954819D02*
X188995238Y-58002438D01*
X188233333Y-58431009D02*
X188566666Y-58431009D01*
X188566666Y-58954819D02*
X188566666Y-57954819D01*
X188566666Y-57954819D02*
X188090476Y-57954819D01*
X187138095Y-58954819D02*
X187471428Y-58478628D01*
X187709523Y-58954819D02*
X187709523Y-57954819D01*
X187709523Y-57954819D02*
X187328571Y-57954819D01*
X187328571Y-57954819D02*
X187233333Y-58002438D01*
X187233333Y-58002438D02*
X187185714Y-58050057D01*
X187185714Y-58050057D02*
X187138095Y-58145295D01*
X187138095Y-58145295D02*
X187138095Y-58288152D01*
X187138095Y-58288152D02*
X187185714Y-58383390D01*
X187185714Y-58383390D02*
X187233333Y-58431009D01*
X187233333Y-58431009D02*
X187328571Y-58478628D01*
X187328571Y-58478628D02*
X187709523Y-58478628D01*
X186709523Y-58431009D02*
X186376190Y-58431009D01*
X186233333Y-58954819D02*
X186709523Y-58954819D01*
X186709523Y-58954819D02*
X186709523Y-57954819D01*
X186709523Y-57954819D02*
X186233333Y-57954819D01*
X211364285Y-58854819D02*
X211364285Y-57854819D01*
X211364285Y-57854819D02*
X210983333Y-57854819D01*
X210983333Y-57854819D02*
X210888095Y-57902438D01*
X210888095Y-57902438D02*
X210840476Y-57950057D01*
X210840476Y-57950057D02*
X210792857Y-58045295D01*
X210792857Y-58045295D02*
X210792857Y-58188152D01*
X210792857Y-58188152D02*
X210840476Y-58283390D01*
X210840476Y-58283390D02*
X210888095Y-58331009D01*
X210888095Y-58331009D02*
X210983333Y-58378628D01*
X210983333Y-58378628D02*
X211364285Y-58378628D01*
X210364285Y-58854819D02*
X210364285Y-57854819D01*
X210364285Y-57854819D02*
X210126190Y-57854819D01*
X210126190Y-57854819D02*
X209983333Y-57902438D01*
X209983333Y-57902438D02*
X209888095Y-57997676D01*
X209888095Y-57997676D02*
X209840476Y-58092914D01*
X209840476Y-58092914D02*
X209792857Y-58283390D01*
X209792857Y-58283390D02*
X209792857Y-58426247D01*
X209792857Y-58426247D02*
X209840476Y-58616723D01*
X209840476Y-58616723D02*
X209888095Y-58711961D01*
X209888095Y-58711961D02*
X209983333Y-58807200D01*
X209983333Y-58807200D02*
X210126190Y-58854819D01*
X210126190Y-58854819D02*
X210364285Y-58854819D01*
X209364285Y-58331009D02*
X209030952Y-58331009D01*
X208888095Y-58854819D02*
X209364285Y-58854819D01*
X209364285Y-58854819D02*
X209364285Y-57854819D01*
X209364285Y-57854819D02*
X208888095Y-57854819D01*
X207888095Y-58854819D02*
X208221428Y-58378628D01*
X208459523Y-58854819D02*
X208459523Y-57854819D01*
X208459523Y-57854819D02*
X208078571Y-57854819D01*
X208078571Y-57854819D02*
X207983333Y-57902438D01*
X207983333Y-57902438D02*
X207935714Y-57950057D01*
X207935714Y-57950057D02*
X207888095Y-58045295D01*
X207888095Y-58045295D02*
X207888095Y-58188152D01*
X207888095Y-58188152D02*
X207935714Y-58283390D01*
X207935714Y-58283390D02*
X207983333Y-58331009D01*
X207983333Y-58331009D02*
X208078571Y-58378628D01*
X208078571Y-58378628D02*
X208459523Y-58378628D01*
D10*
X214352190Y-72690476D02*
X214376000Y-72666667D01*
X214376000Y-72666667D02*
X214399809Y-72595238D01*
X214399809Y-72595238D02*
X214399809Y-72547619D01*
X214399809Y-72547619D02*
X214376000Y-72476191D01*
X214376000Y-72476191D02*
X214328380Y-72428572D01*
X214328380Y-72428572D02*
X214280761Y-72404762D01*
X214280761Y-72404762D02*
X214185523Y-72380953D01*
X214185523Y-72380953D02*
X214114095Y-72380953D01*
X214114095Y-72380953D02*
X214018857Y-72404762D01*
X214018857Y-72404762D02*
X213971238Y-72428572D01*
X213971238Y-72428572D02*
X213923619Y-72476191D01*
X213923619Y-72476191D02*
X213899809Y-72547619D01*
X213899809Y-72547619D02*
X213899809Y-72595238D01*
X213899809Y-72595238D02*
X213923619Y-72666667D01*
X213923619Y-72666667D02*
X213947428Y-72690476D01*
X214137904Y-72904762D02*
X214137904Y-73071429D01*
X214399809Y-73142857D02*
X214399809Y-72904762D01*
X214399809Y-72904762D02*
X213899809Y-72904762D01*
X213899809Y-72904762D02*
X213899809Y-73142857D01*
X213947428Y-73333334D02*
X213923619Y-73357143D01*
X213923619Y-73357143D02*
X213899809Y-73404762D01*
X213899809Y-73404762D02*
X213899809Y-73523810D01*
X213899809Y-73523810D02*
X213923619Y-73571429D01*
X213923619Y-73571429D02*
X213947428Y-73595238D01*
X213947428Y-73595238D02*
X213995047Y-73619048D01*
X213995047Y-73619048D02*
X214042666Y-73619048D01*
X214042666Y-73619048D02*
X214114095Y-73595238D01*
X214114095Y-73595238D02*
X214399809Y-73309524D01*
X214399809Y-73309524D02*
X214399809Y-73619048D01*
X209174809Y-68716666D02*
X208936714Y-68550000D01*
X209174809Y-68430952D02*
X208674809Y-68430952D01*
X208674809Y-68430952D02*
X208674809Y-68621428D01*
X208674809Y-68621428D02*
X208698619Y-68669047D01*
X208698619Y-68669047D02*
X208722428Y-68692857D01*
X208722428Y-68692857D02*
X208770047Y-68716666D01*
X208770047Y-68716666D02*
X208841476Y-68716666D01*
X208841476Y-68716666D02*
X208889095Y-68692857D01*
X208889095Y-68692857D02*
X208912904Y-68669047D01*
X208912904Y-68669047D02*
X208936714Y-68621428D01*
X208936714Y-68621428D02*
X208936714Y-68430952D01*
X208841476Y-69145238D02*
X209174809Y-69145238D01*
X208651000Y-69026190D02*
X209008142Y-68907143D01*
X209008142Y-68907143D02*
X209008142Y-69216666D01*
X201634523Y-76427190D02*
X201658332Y-76451000D01*
X201658332Y-76451000D02*
X201729761Y-76474809D01*
X201729761Y-76474809D02*
X201777380Y-76474809D01*
X201777380Y-76474809D02*
X201848808Y-76451000D01*
X201848808Y-76451000D02*
X201896427Y-76403380D01*
X201896427Y-76403380D02*
X201920237Y-76355761D01*
X201920237Y-76355761D02*
X201944046Y-76260523D01*
X201944046Y-76260523D02*
X201944046Y-76189095D01*
X201944046Y-76189095D02*
X201920237Y-76093857D01*
X201920237Y-76093857D02*
X201896427Y-76046238D01*
X201896427Y-76046238D02*
X201848808Y-75998619D01*
X201848808Y-75998619D02*
X201777380Y-75974809D01*
X201777380Y-75974809D02*
X201729761Y-75974809D01*
X201729761Y-75974809D02*
X201658332Y-75998619D01*
X201658332Y-75998619D02*
X201634523Y-76022428D01*
X201420237Y-76212904D02*
X201253570Y-76212904D01*
X201182142Y-76474809D02*
X201420237Y-76474809D01*
X201420237Y-76474809D02*
X201420237Y-75974809D01*
X201420237Y-75974809D02*
X201182142Y-75974809D01*
X200753570Y-76141476D02*
X200753570Y-76474809D01*
X200872618Y-75951000D02*
X200991665Y-76308142D01*
X200991665Y-76308142D02*
X200682142Y-76308142D01*
X206722023Y-63902190D02*
X206745832Y-63926000D01*
X206745832Y-63926000D02*
X206817261Y-63949809D01*
X206817261Y-63949809D02*
X206864880Y-63949809D01*
X206864880Y-63949809D02*
X206936308Y-63926000D01*
X206936308Y-63926000D02*
X206983927Y-63878380D01*
X206983927Y-63878380D02*
X207007737Y-63830761D01*
X207007737Y-63830761D02*
X207031546Y-63735523D01*
X207031546Y-63735523D02*
X207031546Y-63664095D01*
X207031546Y-63664095D02*
X207007737Y-63568857D01*
X207007737Y-63568857D02*
X206983927Y-63521238D01*
X206983927Y-63521238D02*
X206936308Y-63473619D01*
X206936308Y-63473619D02*
X206864880Y-63449809D01*
X206864880Y-63449809D02*
X206817261Y-63449809D01*
X206817261Y-63449809D02*
X206745832Y-63473619D01*
X206745832Y-63473619D02*
X206722023Y-63497428D01*
X206507737Y-63687904D02*
X206341070Y-63687904D01*
X206269642Y-63949809D02*
X206507737Y-63949809D01*
X206507737Y-63949809D02*
X206507737Y-63449809D01*
X206507737Y-63449809D02*
X206269642Y-63449809D01*
X206102975Y-63449809D02*
X205793451Y-63449809D01*
X205793451Y-63449809D02*
X205960118Y-63640285D01*
X205960118Y-63640285D02*
X205888689Y-63640285D01*
X205888689Y-63640285D02*
X205841070Y-63664095D01*
X205841070Y-63664095D02*
X205817261Y-63687904D01*
X205817261Y-63687904D02*
X205793451Y-63735523D01*
X205793451Y-63735523D02*
X205793451Y-63854571D01*
X205793451Y-63854571D02*
X205817261Y-63902190D01*
X205817261Y-63902190D02*
X205841070Y-63926000D01*
X205841070Y-63926000D02*
X205888689Y-63949809D01*
X205888689Y-63949809D02*
X206031546Y-63949809D01*
X206031546Y-63949809D02*
X206079165Y-63926000D01*
X206079165Y-63926000D02*
X206102975Y-63902190D01*
X197849809Y-72766666D02*
X197611714Y-72600000D01*
X197849809Y-72480952D02*
X197349809Y-72480952D01*
X197349809Y-72480952D02*
X197349809Y-72671428D01*
X197349809Y-72671428D02*
X197373619Y-72719047D01*
X197373619Y-72719047D02*
X197397428Y-72742857D01*
X197397428Y-72742857D02*
X197445047Y-72766666D01*
X197445047Y-72766666D02*
X197516476Y-72766666D01*
X197516476Y-72766666D02*
X197564095Y-72742857D01*
X197564095Y-72742857D02*
X197587904Y-72719047D01*
X197587904Y-72719047D02*
X197611714Y-72671428D01*
X197611714Y-72671428D02*
X197611714Y-72480952D01*
X197349809Y-72933333D02*
X197349809Y-73266666D01*
X197349809Y-73266666D02*
X197849809Y-73052381D01*
X186183928Y-81199809D02*
X186350594Y-80961714D01*
X186469642Y-81199809D02*
X186469642Y-80699809D01*
X186469642Y-80699809D02*
X186279166Y-80699809D01*
X186279166Y-80699809D02*
X186231547Y-80723619D01*
X186231547Y-80723619D02*
X186207737Y-80747428D01*
X186207737Y-80747428D02*
X186183928Y-80795047D01*
X186183928Y-80795047D02*
X186183928Y-80866476D01*
X186183928Y-80866476D02*
X186207737Y-80914095D01*
X186207737Y-80914095D02*
X186231547Y-80937904D01*
X186231547Y-80937904D02*
X186279166Y-80961714D01*
X186279166Y-80961714D02*
X186469642Y-80961714D01*
X185707737Y-81199809D02*
X185993451Y-81199809D01*
X185850594Y-81199809D02*
X185850594Y-80699809D01*
X185850594Y-80699809D02*
X185898213Y-80771238D01*
X185898213Y-80771238D02*
X185945832Y-80818857D01*
X185945832Y-80818857D02*
X185993451Y-80842666D01*
X185231547Y-81199809D02*
X185517261Y-81199809D01*
X185374404Y-81199809D02*
X185374404Y-80699809D01*
X185374404Y-80699809D02*
X185422023Y-80771238D01*
X185422023Y-80771238D02*
X185469642Y-80818857D01*
X185469642Y-80818857D02*
X185517261Y-80842666D01*
X195374809Y-72766666D02*
X195136714Y-72600000D01*
X195374809Y-72480952D02*
X194874809Y-72480952D01*
X194874809Y-72480952D02*
X194874809Y-72671428D01*
X194874809Y-72671428D02*
X194898619Y-72719047D01*
X194898619Y-72719047D02*
X194922428Y-72742857D01*
X194922428Y-72742857D02*
X194970047Y-72766666D01*
X194970047Y-72766666D02*
X195041476Y-72766666D01*
X195041476Y-72766666D02*
X195089095Y-72742857D01*
X195089095Y-72742857D02*
X195112904Y-72719047D01*
X195112904Y-72719047D02*
X195136714Y-72671428D01*
X195136714Y-72671428D02*
X195136714Y-72480952D01*
X194874809Y-73195238D02*
X194874809Y-73100000D01*
X194874809Y-73100000D02*
X194898619Y-73052381D01*
X194898619Y-73052381D02*
X194922428Y-73028571D01*
X194922428Y-73028571D02*
X194993857Y-72980952D01*
X194993857Y-72980952D02*
X195089095Y-72957143D01*
X195089095Y-72957143D02*
X195279571Y-72957143D01*
X195279571Y-72957143D02*
X195327190Y-72980952D01*
X195327190Y-72980952D02*
X195351000Y-73004762D01*
X195351000Y-73004762D02*
X195374809Y-73052381D01*
X195374809Y-73052381D02*
X195374809Y-73147619D01*
X195374809Y-73147619D02*
X195351000Y-73195238D01*
X195351000Y-73195238D02*
X195327190Y-73219047D01*
X195327190Y-73219047D02*
X195279571Y-73242857D01*
X195279571Y-73242857D02*
X195160523Y-73242857D01*
X195160523Y-73242857D02*
X195112904Y-73219047D01*
X195112904Y-73219047D02*
X195089095Y-73195238D01*
X195089095Y-73195238D02*
X195065285Y-73147619D01*
X195065285Y-73147619D02*
X195065285Y-73052381D01*
X195065285Y-73052381D02*
X195089095Y-73004762D01*
X195089095Y-73004762D02*
X195112904Y-72980952D01*
X195112904Y-72980952D02*
X195160523Y-72957143D01*
D11*
X161691666Y-92629819D02*
X161691666Y-91629819D01*
X161691666Y-91629819D02*
X161358333Y-92344104D01*
X161358333Y-92344104D02*
X161025000Y-91629819D01*
X161025000Y-91629819D02*
X161025000Y-92629819D01*
X160786905Y-92725057D02*
X160025000Y-92725057D01*
X159786904Y-92629819D02*
X159786904Y-91629819D01*
X159786904Y-91629819D02*
X159548809Y-91629819D01*
X159548809Y-91629819D02*
X159405952Y-91677438D01*
X159405952Y-91677438D02*
X159310714Y-91772676D01*
X159310714Y-91772676D02*
X159263095Y-91867914D01*
X159263095Y-91867914D02*
X159215476Y-92058390D01*
X159215476Y-92058390D02*
X159215476Y-92201247D01*
X159215476Y-92201247D02*
X159263095Y-92391723D01*
X159263095Y-92391723D02*
X159310714Y-92486961D01*
X159310714Y-92486961D02*
X159405952Y-92582200D01*
X159405952Y-92582200D02*
X159548809Y-92629819D01*
X159548809Y-92629819D02*
X159786904Y-92629819D01*
X158786904Y-92106009D02*
X158453571Y-92106009D01*
X158310714Y-92629819D02*
X158786904Y-92629819D01*
X158786904Y-92629819D02*
X158786904Y-91629819D01*
X158786904Y-91629819D02*
X158310714Y-91629819D01*
X157310714Y-92629819D02*
X157644047Y-92153628D01*
X157882142Y-92629819D02*
X157882142Y-91629819D01*
X157882142Y-91629819D02*
X157501190Y-91629819D01*
X157501190Y-91629819D02*
X157405952Y-91677438D01*
X157405952Y-91677438D02*
X157358333Y-91725057D01*
X157358333Y-91725057D02*
X157310714Y-91820295D01*
X157310714Y-91820295D02*
X157310714Y-91963152D01*
X157310714Y-91963152D02*
X157358333Y-92058390D01*
X157358333Y-92058390D02*
X157405952Y-92106009D01*
X157405952Y-92106009D02*
X157501190Y-92153628D01*
X157501190Y-92153628D02*
X157882142Y-92153628D01*
X219478570Y-92629819D02*
X219478570Y-91629819D01*
X219478570Y-91629819D02*
X219145237Y-92344104D01*
X219145237Y-92344104D02*
X218811904Y-91629819D01*
X218811904Y-91629819D02*
X218811904Y-92629819D01*
X218573809Y-92725057D02*
X217811904Y-92725057D01*
X217573808Y-92629819D02*
X217573808Y-91629819D01*
X217192856Y-91629819D02*
X216526190Y-91629819D01*
X216526190Y-91629819D02*
X217192856Y-92629819D01*
X217192856Y-92629819D02*
X216526190Y-92629819D01*
D10*
X206508333Y-68652190D02*
X206532142Y-68676000D01*
X206532142Y-68676000D02*
X206603571Y-68699809D01*
X206603571Y-68699809D02*
X206651190Y-68699809D01*
X206651190Y-68699809D02*
X206722618Y-68676000D01*
X206722618Y-68676000D02*
X206770237Y-68628380D01*
X206770237Y-68628380D02*
X206794047Y-68580761D01*
X206794047Y-68580761D02*
X206817856Y-68485523D01*
X206817856Y-68485523D02*
X206817856Y-68414095D01*
X206817856Y-68414095D02*
X206794047Y-68318857D01*
X206794047Y-68318857D02*
X206770237Y-68271238D01*
X206770237Y-68271238D02*
X206722618Y-68223619D01*
X206722618Y-68223619D02*
X206651190Y-68199809D01*
X206651190Y-68199809D02*
X206603571Y-68199809D01*
X206603571Y-68199809D02*
X206532142Y-68223619D01*
X206532142Y-68223619D02*
X206508333Y-68247428D01*
X206055952Y-68199809D02*
X206294047Y-68199809D01*
X206294047Y-68199809D02*
X206317856Y-68437904D01*
X206317856Y-68437904D02*
X206294047Y-68414095D01*
X206294047Y-68414095D02*
X206246428Y-68390285D01*
X206246428Y-68390285D02*
X206127380Y-68390285D01*
X206127380Y-68390285D02*
X206079761Y-68414095D01*
X206079761Y-68414095D02*
X206055952Y-68437904D01*
X206055952Y-68437904D02*
X206032142Y-68485523D01*
X206032142Y-68485523D02*
X206032142Y-68604571D01*
X206032142Y-68604571D02*
X206055952Y-68652190D01*
X206055952Y-68652190D02*
X206079761Y-68676000D01*
X206079761Y-68676000D02*
X206127380Y-68699809D01*
X206127380Y-68699809D02*
X206246428Y-68699809D01*
X206246428Y-68699809D02*
X206294047Y-68676000D01*
X206294047Y-68676000D02*
X206317856Y-68652190D01*
D11*
X178573808Y-58807200D02*
X178430951Y-58854819D01*
X178430951Y-58854819D02*
X178192856Y-58854819D01*
X178192856Y-58854819D02*
X178097618Y-58807200D01*
X178097618Y-58807200D02*
X178049999Y-58759580D01*
X178049999Y-58759580D02*
X178002380Y-58664342D01*
X178002380Y-58664342D02*
X178002380Y-58569104D01*
X178002380Y-58569104D02*
X178049999Y-58473866D01*
X178049999Y-58473866D02*
X178097618Y-58426247D01*
X178097618Y-58426247D02*
X178192856Y-58378628D01*
X178192856Y-58378628D02*
X178383332Y-58331009D01*
X178383332Y-58331009D02*
X178478570Y-58283390D01*
X178478570Y-58283390D02*
X178526189Y-58235771D01*
X178526189Y-58235771D02*
X178573808Y-58140533D01*
X178573808Y-58140533D02*
X178573808Y-58045295D01*
X178573808Y-58045295D02*
X178526189Y-57950057D01*
X178526189Y-57950057D02*
X178478570Y-57902438D01*
X178478570Y-57902438D02*
X178383332Y-57854819D01*
X178383332Y-57854819D02*
X178145237Y-57854819D01*
X178145237Y-57854819D02*
X178002380Y-57902438D01*
X177573808Y-58854819D02*
X177573808Y-57854819D01*
X177192856Y-57854819D02*
X176526190Y-57854819D01*
X176526190Y-57854819D02*
X177192856Y-58854819D01*
X177192856Y-58854819D02*
X176526190Y-58854819D01*
X175478571Y-58950057D02*
X175573809Y-58902438D01*
X175573809Y-58902438D02*
X175669047Y-58807200D01*
X175669047Y-58807200D02*
X175811904Y-58664342D01*
X175811904Y-58664342D02*
X175907142Y-58616723D01*
X175907142Y-58616723D02*
X176002380Y-58616723D01*
X175954761Y-58854819D02*
X176049999Y-58807200D01*
X176049999Y-58807200D02*
X176145237Y-58711961D01*
X176145237Y-58711961D02*
X176192856Y-58521485D01*
X176192856Y-58521485D02*
X176192856Y-58188152D01*
X176192856Y-58188152D02*
X176145237Y-57997676D01*
X176145237Y-57997676D02*
X176049999Y-57902438D01*
X176049999Y-57902438D02*
X175954761Y-57854819D01*
X175954761Y-57854819D02*
X175764285Y-57854819D01*
X175764285Y-57854819D02*
X175669047Y-57902438D01*
X175669047Y-57902438D02*
X175573809Y-57997676D01*
X175573809Y-57997676D02*
X175526190Y-58188152D01*
X175526190Y-58188152D02*
X175526190Y-58521485D01*
X175526190Y-58521485D02*
X175573809Y-58711961D01*
X175573809Y-58711961D02*
X175669047Y-58807200D01*
X175669047Y-58807200D02*
X175764285Y-58854819D01*
X175764285Y-58854819D02*
X175954761Y-58854819D01*
X167599999Y-58854819D02*
X167599999Y-57854819D01*
X167599999Y-57854819D02*
X167219047Y-57854819D01*
X167219047Y-57854819D02*
X167123809Y-57902438D01*
X167123809Y-57902438D02*
X167076190Y-57950057D01*
X167076190Y-57950057D02*
X167028571Y-58045295D01*
X167028571Y-58045295D02*
X167028571Y-58188152D01*
X167028571Y-58188152D02*
X167076190Y-58283390D01*
X167076190Y-58283390D02*
X167123809Y-58331009D01*
X167123809Y-58331009D02*
X167219047Y-58378628D01*
X167219047Y-58378628D02*
X167599999Y-58378628D01*
X166599999Y-58854819D02*
X166599999Y-57854819D01*
X166219047Y-57854819D02*
X165552381Y-57854819D01*
X165552381Y-57854819D02*
X166219047Y-58854819D01*
X166219047Y-58854819D02*
X165552381Y-58854819D01*
X164504762Y-58950057D02*
X164600000Y-58902438D01*
X164600000Y-58902438D02*
X164695238Y-58807200D01*
X164695238Y-58807200D02*
X164838095Y-58664342D01*
X164838095Y-58664342D02*
X164933333Y-58616723D01*
X164933333Y-58616723D02*
X165028571Y-58616723D01*
X164980952Y-58854819D02*
X165076190Y-58807200D01*
X165076190Y-58807200D02*
X165171428Y-58711961D01*
X165171428Y-58711961D02*
X165219047Y-58521485D01*
X165219047Y-58521485D02*
X165219047Y-58188152D01*
X165219047Y-58188152D02*
X165171428Y-57997676D01*
X165171428Y-57997676D02*
X165076190Y-57902438D01*
X165076190Y-57902438D02*
X164980952Y-57854819D01*
X164980952Y-57854819D02*
X164790476Y-57854819D01*
X164790476Y-57854819D02*
X164695238Y-57902438D01*
X164695238Y-57902438D02*
X164600000Y-57997676D01*
X164600000Y-57997676D02*
X164552381Y-58188152D01*
X164552381Y-58188152D02*
X164552381Y-58521485D01*
X164552381Y-58521485D02*
X164600000Y-58711961D01*
X164600000Y-58711961D02*
X164695238Y-58807200D01*
X164695238Y-58807200D02*
X164790476Y-58854819D01*
X164790476Y-58854819D02*
X164980952Y-58854819D01*
D10*
X186146428Y-64724809D02*
X186313094Y-64486714D01*
X186432142Y-64724809D02*
X186432142Y-64224809D01*
X186432142Y-64224809D02*
X186241666Y-64224809D01*
X186241666Y-64224809D02*
X186194047Y-64248619D01*
X186194047Y-64248619D02*
X186170237Y-64272428D01*
X186170237Y-64272428D02*
X186146428Y-64320047D01*
X186146428Y-64320047D02*
X186146428Y-64391476D01*
X186146428Y-64391476D02*
X186170237Y-64439095D01*
X186170237Y-64439095D02*
X186194047Y-64462904D01*
X186194047Y-64462904D02*
X186241666Y-64486714D01*
X186241666Y-64486714D02*
X186432142Y-64486714D01*
X185670237Y-64724809D02*
X185955951Y-64724809D01*
X185813094Y-64724809D02*
X185813094Y-64224809D01*
X185813094Y-64224809D02*
X185860713Y-64296238D01*
X185860713Y-64296238D02*
X185908332Y-64343857D01*
X185908332Y-64343857D02*
X185955951Y-64367666D01*
X185479761Y-64272428D02*
X185455952Y-64248619D01*
X185455952Y-64248619D02*
X185408333Y-64224809D01*
X185408333Y-64224809D02*
X185289285Y-64224809D01*
X185289285Y-64224809D02*
X185241666Y-64248619D01*
X185241666Y-64248619D02*
X185217857Y-64272428D01*
X185217857Y-64272428D02*
X185194047Y-64320047D01*
X185194047Y-64320047D02*
X185194047Y-64367666D01*
X185194047Y-64367666D02*
X185217857Y-64439095D01*
X185217857Y-64439095D02*
X185503571Y-64724809D01*
X185503571Y-64724809D02*
X185194047Y-64724809D01*
D11*
X200538094Y-58807200D02*
X200395237Y-58854819D01*
X200395237Y-58854819D02*
X200157142Y-58854819D01*
X200157142Y-58854819D02*
X200061904Y-58807200D01*
X200061904Y-58807200D02*
X200014285Y-58759580D01*
X200014285Y-58759580D02*
X199966666Y-58664342D01*
X199966666Y-58664342D02*
X199966666Y-58569104D01*
X199966666Y-58569104D02*
X200014285Y-58473866D01*
X200014285Y-58473866D02*
X200061904Y-58426247D01*
X200061904Y-58426247D02*
X200157142Y-58378628D01*
X200157142Y-58378628D02*
X200347618Y-58331009D01*
X200347618Y-58331009D02*
X200442856Y-58283390D01*
X200442856Y-58283390D02*
X200490475Y-58235771D01*
X200490475Y-58235771D02*
X200538094Y-58140533D01*
X200538094Y-58140533D02*
X200538094Y-58045295D01*
X200538094Y-58045295D02*
X200490475Y-57950057D01*
X200490475Y-57950057D02*
X200442856Y-57902438D01*
X200442856Y-57902438D02*
X200347618Y-57854819D01*
X200347618Y-57854819D02*
X200109523Y-57854819D01*
X200109523Y-57854819D02*
X199966666Y-57902438D01*
X199538094Y-58854819D02*
X199538094Y-57854819D01*
X199538094Y-57854819D02*
X199299999Y-57854819D01*
X199299999Y-57854819D02*
X199157142Y-57902438D01*
X199157142Y-57902438D02*
X199061904Y-57997676D01*
X199061904Y-57997676D02*
X199014285Y-58092914D01*
X199014285Y-58092914D02*
X198966666Y-58283390D01*
X198966666Y-58283390D02*
X198966666Y-58426247D01*
X198966666Y-58426247D02*
X199014285Y-58616723D01*
X199014285Y-58616723D02*
X199061904Y-58711961D01*
X199061904Y-58711961D02*
X199157142Y-58807200D01*
X199157142Y-58807200D02*
X199299999Y-58854819D01*
X199299999Y-58854819D02*
X199538094Y-58854819D01*
X198538094Y-58331009D02*
X198204761Y-58331009D01*
X198061904Y-58854819D02*
X198538094Y-58854819D01*
X198538094Y-58854819D02*
X198538094Y-57854819D01*
X198538094Y-57854819D02*
X198061904Y-57854819D01*
X197061904Y-58854819D02*
X197395237Y-58378628D01*
X197633332Y-58854819D02*
X197633332Y-57854819D01*
X197633332Y-57854819D02*
X197252380Y-57854819D01*
X197252380Y-57854819D02*
X197157142Y-57902438D01*
X197157142Y-57902438D02*
X197109523Y-57950057D01*
X197109523Y-57950057D02*
X197061904Y-58045295D01*
X197061904Y-58045295D02*
X197061904Y-58188152D01*
X197061904Y-58188152D02*
X197109523Y-58283390D01*
X197109523Y-58283390D02*
X197157142Y-58331009D01*
X197157142Y-58331009D02*
X197252380Y-58378628D01*
X197252380Y-58378628D02*
X197633332Y-58378628D01*
D10*
X210494809Y-73916666D02*
X210256714Y-73750000D01*
X210494809Y-73630952D02*
X209994809Y-73630952D01*
X209994809Y-73630952D02*
X209994809Y-73821428D01*
X209994809Y-73821428D02*
X210018619Y-73869047D01*
X210018619Y-73869047D02*
X210042428Y-73892857D01*
X210042428Y-73892857D02*
X210090047Y-73916666D01*
X210090047Y-73916666D02*
X210161476Y-73916666D01*
X210161476Y-73916666D02*
X210209095Y-73892857D01*
X210209095Y-73892857D02*
X210232904Y-73869047D01*
X210232904Y-73869047D02*
X210256714Y-73821428D01*
X210256714Y-73821428D02*
X210256714Y-73630952D01*
X209994809Y-74369047D02*
X209994809Y-74130952D01*
X209994809Y-74130952D02*
X210232904Y-74107143D01*
X210232904Y-74107143D02*
X210209095Y-74130952D01*
X210209095Y-74130952D02*
X210185285Y-74178571D01*
X210185285Y-74178571D02*
X210185285Y-74297619D01*
X210185285Y-74297619D02*
X210209095Y-74345238D01*
X210209095Y-74345238D02*
X210232904Y-74369047D01*
X210232904Y-74369047D02*
X210280523Y-74392857D01*
X210280523Y-74392857D02*
X210399571Y-74392857D01*
X210399571Y-74392857D02*
X210447190Y-74369047D01*
X210447190Y-74369047D02*
X210471000Y-74345238D01*
X210471000Y-74345238D02*
X210494809Y-74297619D01*
X210494809Y-74297619D02*
X210494809Y-74178571D01*
X210494809Y-74178571D02*
X210471000Y-74130952D01*
X210471000Y-74130952D02*
X210447190Y-74107143D01*
D12*
%TO.C,U3*%
X216680000Y-72697000D02*
X216680000Y-65077000D01*
X226840000Y-67617000D02*
X226840000Y-65077000D01*
X226840000Y-72697000D02*
X226840000Y-70157000D01*
X225570000Y-68887000D02*
G75*
G02*
X226840000Y-67617000I1269999J1D01*
G01*
X226840000Y-70157000D02*
G75*
G02*
X225570000Y-68887000I-1J1269999D01*
G01*
D13*
%TO.C,C10*%
X185638748Y-76765000D02*
X186161252Y-76765000D01*
X185638748Y-78235000D02*
X186161252Y-78235000D01*
%TO.C,R10*%
X185672936Y-72065000D02*
X186127064Y-72065000D01*
X185672936Y-73535000D02*
X186127064Y-73535000D01*
%TO.C,C11*%
X185601248Y-67365000D02*
X186123752Y-67365000D01*
X185601248Y-68835000D02*
X186123752Y-68835000D01*
%TO.C,J8*%
X182550000Y-63200000D02*
X182550000Y-61950000D01*
X182840000Y-56940000D02*
X192960000Y-56940000D01*
X182840000Y-62910000D02*
X182840000Y-56940000D01*
X182850000Y-60650000D02*
X183600000Y-60650000D01*
X182850000Y-62150000D02*
X184650000Y-62150000D01*
X182850000Y-62900000D02*
X182850000Y-62150000D01*
X183600000Y-57700000D02*
X187900000Y-57700000D01*
X183600000Y-60650000D02*
X183600000Y-57700000D01*
X183800000Y-63200000D02*
X182550000Y-63200000D01*
X184650000Y-62150000D02*
X184650000Y-62900000D01*
X184650000Y-62900000D02*
X182850000Y-62900000D01*
X186150000Y-62150000D02*
X189650000Y-62150000D01*
X186150000Y-62900000D02*
X186150000Y-62150000D01*
X189650000Y-62150000D02*
X189650000Y-62900000D01*
X189650000Y-62900000D02*
X186150000Y-62900000D01*
X191150000Y-62150000D02*
X192950000Y-62150000D01*
X191150000Y-62900000D02*
X191150000Y-62150000D01*
X192200000Y-57700000D02*
X187900000Y-57700000D01*
X192200000Y-60650000D02*
X192200000Y-57700000D01*
X192950000Y-60650000D02*
X192200000Y-60650000D01*
X192950000Y-62150000D02*
X192950000Y-62900000D01*
X192950000Y-62900000D02*
X191150000Y-62900000D01*
X192960000Y-56940000D02*
X192960000Y-62910000D01*
X192960000Y-62910000D02*
X182840000Y-62910000D01*
%TO.C,J11*%
X204350000Y-63200000D02*
X204350000Y-61950000D01*
X204640000Y-56940000D02*
X214760000Y-56940000D01*
X204640000Y-62910000D02*
X204640000Y-56940000D01*
X204650000Y-60650000D02*
X205400000Y-60650000D01*
X204650000Y-62150000D02*
X206450000Y-62150000D01*
X204650000Y-62900000D02*
X204650000Y-62150000D01*
X205400000Y-57700000D02*
X209700000Y-57700000D01*
X205400000Y-60650000D02*
X205400000Y-57700000D01*
X205600000Y-63200000D02*
X204350000Y-63200000D01*
X206450000Y-62150000D02*
X206450000Y-62900000D01*
X206450000Y-62900000D02*
X204650000Y-62900000D01*
X207950000Y-62150000D02*
X211450000Y-62150000D01*
X207950000Y-62900000D02*
X207950000Y-62150000D01*
X211450000Y-62150000D02*
X211450000Y-62900000D01*
X211450000Y-62900000D02*
X207950000Y-62900000D01*
X212950000Y-62150000D02*
X214750000Y-62150000D01*
X212950000Y-62900000D02*
X212950000Y-62150000D01*
X214000000Y-57700000D02*
X209700000Y-57700000D01*
X214000000Y-60650000D02*
X214000000Y-57700000D01*
X214750000Y-60650000D02*
X214000000Y-60650000D01*
X214750000Y-62150000D02*
X214750000Y-62900000D01*
X214750000Y-62900000D02*
X212950000Y-62900000D01*
X214760000Y-56940000D02*
X214760000Y-62910000D01*
X214760000Y-62910000D02*
X204640000Y-62910000D01*
%TO.C,CE2*%
X211915000Y-77590000D02*
X211915000Y-69350000D01*
X216435000Y-69350000D02*
X216435000Y-77590000D01*
X216435000Y-77590000D02*
X211915000Y-77590000D01*
%TO.C,R4*%
X209310000Y-66940000D02*
X211230000Y-66940000D01*
X209310000Y-69800000D02*
X209310000Y-66940000D01*
X211230000Y-66940000D02*
X211230000Y-69800000D01*
%TO.C,CE4*%
X201876248Y-76965000D02*
X202398752Y-76965000D01*
X201876248Y-78435000D02*
X202398752Y-78435000D01*
%TO.C,CE3*%
X206673752Y-64540000D02*
X206151248Y-64540000D01*
X206673752Y-66010000D02*
X206151248Y-66010000D01*
%TO.C,R7*%
X195735000Y-72622936D02*
X195735000Y-73077064D01*
X197205000Y-72622936D02*
X197205000Y-73077064D01*
D12*
%TO.C,U5*%
X216680000Y-82945000D02*
X216680000Y-75325000D01*
X226840000Y-77865000D02*
X226840000Y-75325000D01*
X226840000Y-82945000D02*
X226840000Y-80405000D01*
X225570000Y-79135000D02*
G75*
G02*
X226840000Y-77865000I1269999J1D01*
G01*
X226840000Y-80405000D02*
G75*
G02*
X225570000Y-79135000I-1J1269999D01*
G01*
D13*
%TO.C,R11*%
X185635436Y-78915000D02*
X186089564Y-78915000D01*
X185635436Y-80385000D02*
X186089564Y-80385000D01*
%TO.C,R6*%
X193195000Y-72622936D02*
X193195000Y-73077064D01*
X194665000Y-72622936D02*
X194665000Y-73077064D01*
%TO.C,J2*%
X155665000Y-85515000D02*
X163285000Y-85515000D01*
X155665000Y-91485000D02*
X155665000Y-85515000D01*
X155675000Y-85525000D02*
X157475000Y-85525000D01*
X155675000Y-86275000D02*
X155675000Y-85525000D01*
X155675000Y-87775000D02*
X156425000Y-87775000D01*
X156425000Y-87775000D02*
X156425000Y-90725000D01*
X156425000Y-90725000D02*
X159475000Y-90725000D01*
X157475000Y-85525000D02*
X157475000Y-86275000D01*
X157475000Y-86275000D02*
X155675000Y-86275000D01*
X158975000Y-85525000D02*
X159975000Y-85525000D01*
X158975000Y-86275000D02*
X158975000Y-85525000D01*
X159975000Y-85525000D02*
X159975000Y-86275000D01*
X159975000Y-86275000D02*
X158975000Y-86275000D01*
X161475000Y-85525000D02*
X163275000Y-85525000D01*
X161475000Y-86275000D02*
X161475000Y-85525000D01*
X162325000Y-85225000D02*
X163575000Y-85225000D01*
X162525000Y-87775000D02*
X162525000Y-90725000D01*
X162525000Y-90725000D02*
X159475000Y-90725000D01*
X163275000Y-85525000D02*
X163275000Y-86275000D01*
X163275000Y-86275000D02*
X161475000Y-86275000D01*
X163275000Y-87775000D02*
X162525000Y-87775000D01*
X163285000Y-85515000D02*
X163285000Y-91485000D01*
X163285000Y-91485000D02*
X155665000Y-91485000D01*
X163575000Y-85225000D02*
X163575000Y-86475000D01*
%TO.C,J4*%
X214140000Y-85515000D02*
X221760000Y-85515000D01*
X214140000Y-91485000D02*
X214140000Y-85515000D01*
X214150000Y-85525000D02*
X215950000Y-85525000D01*
X214150000Y-86275000D02*
X214150000Y-85525000D01*
X214150000Y-87775000D02*
X214900000Y-87775000D01*
X214900000Y-87775000D02*
X214900000Y-90725000D01*
X214900000Y-90725000D02*
X217950000Y-90725000D01*
X215950000Y-85525000D02*
X215950000Y-86275000D01*
X215950000Y-86275000D02*
X214150000Y-86275000D01*
X217450000Y-85525000D02*
X218450000Y-85525000D01*
X217450000Y-86275000D02*
X217450000Y-85525000D01*
X218450000Y-85525000D02*
X218450000Y-86275000D01*
X218450000Y-86275000D02*
X217450000Y-86275000D01*
X219950000Y-85525000D02*
X221750000Y-85525000D01*
X219950000Y-86275000D02*
X219950000Y-85525000D01*
X220800000Y-85225000D02*
X222050000Y-85225000D01*
X221000000Y-87775000D02*
X221000000Y-90725000D01*
X221000000Y-90725000D02*
X217950000Y-90725000D01*
X221750000Y-85525000D02*
X221750000Y-86275000D01*
X221750000Y-86275000D02*
X219950000Y-86275000D01*
X221750000Y-87775000D02*
X221000000Y-87775000D01*
X221760000Y-85515000D02*
X221760000Y-91485000D01*
X221760000Y-91485000D02*
X214140000Y-91485000D01*
X222050000Y-85225000D02*
X222050000Y-86475000D01*
%TO.C,C5*%
X206673752Y-66565000D02*
X206151248Y-66565000D01*
X206673752Y-68035000D02*
X206151248Y-68035000D01*
%TO.C,J7*%
X171650000Y-63200000D02*
X171650000Y-61950000D01*
X171940000Y-56940000D02*
X182060000Y-56940000D01*
X171940000Y-62910000D02*
X171940000Y-56940000D01*
X171950000Y-60650000D02*
X172700000Y-60650000D01*
X171950000Y-62150000D02*
X173750000Y-62150000D01*
X171950000Y-62900000D02*
X171950000Y-62150000D01*
X172700000Y-57700000D02*
X177000000Y-57700000D01*
X172700000Y-60650000D02*
X172700000Y-57700000D01*
X172900000Y-63200000D02*
X171650000Y-63200000D01*
X173750000Y-62150000D02*
X173750000Y-62900000D01*
X173750000Y-62900000D02*
X171950000Y-62900000D01*
X175250000Y-62150000D02*
X178750000Y-62150000D01*
X175250000Y-62900000D02*
X175250000Y-62150000D01*
X178750000Y-62150000D02*
X178750000Y-62900000D01*
X178750000Y-62900000D02*
X175250000Y-62900000D01*
X180250000Y-62150000D02*
X182050000Y-62150000D01*
X180250000Y-62900000D02*
X180250000Y-62150000D01*
X181300000Y-57700000D02*
X177000000Y-57700000D01*
X181300000Y-60650000D02*
X181300000Y-57700000D01*
X182050000Y-60650000D02*
X181300000Y-60650000D01*
X182050000Y-62150000D02*
X182050000Y-62900000D01*
X182050000Y-62900000D02*
X180250000Y-62900000D01*
X182060000Y-56940000D02*
X182060000Y-62910000D01*
X182060000Y-62910000D02*
X171940000Y-62910000D01*
%TO.C,BAT1*%
X202540000Y-85465000D02*
X202540000Y-90885000D01*
X211260000Y-85465000D02*
X202540000Y-85465000D01*
X211260000Y-90885000D02*
X202540000Y-90885000D01*
X212960000Y-86765000D02*
X211260000Y-85465000D01*
X212960000Y-86765000D02*
X212960000Y-89585000D01*
X212960000Y-89585000D02*
X211260000Y-90885000D01*
%TO.C,J9*%
X160750000Y-63200000D02*
X160750000Y-61950000D01*
X161040000Y-56940000D02*
X171160000Y-56940000D01*
X161040000Y-62910000D02*
X161040000Y-56940000D01*
X161050000Y-60650000D02*
X161800000Y-60650000D01*
X161050000Y-62150000D02*
X162850000Y-62150000D01*
X161050000Y-62900000D02*
X161050000Y-62150000D01*
X161800000Y-57700000D02*
X166100000Y-57700000D01*
X161800000Y-60650000D02*
X161800000Y-57700000D01*
X162000000Y-63200000D02*
X160750000Y-63200000D01*
X162850000Y-62150000D02*
X162850000Y-62900000D01*
X162850000Y-62900000D02*
X161050000Y-62900000D01*
X164350000Y-62150000D02*
X167850000Y-62150000D01*
X164350000Y-62900000D02*
X164350000Y-62150000D01*
X167850000Y-62150000D02*
X167850000Y-62900000D01*
X167850000Y-62900000D02*
X164350000Y-62900000D01*
X169350000Y-62150000D02*
X171150000Y-62150000D01*
X169350000Y-62900000D02*
X169350000Y-62150000D01*
X170400000Y-57700000D02*
X166100000Y-57700000D01*
X170400000Y-60650000D02*
X170400000Y-57700000D01*
X171150000Y-60650000D02*
X170400000Y-60650000D01*
X171150000Y-62150000D02*
X171150000Y-62900000D01*
X171150000Y-62900000D02*
X169350000Y-62900000D01*
X171160000Y-56940000D02*
X171160000Y-62910000D01*
X171160000Y-62910000D02*
X161040000Y-62910000D01*
%TO.C,R12*%
X185597936Y-64865000D02*
X186052064Y-64865000D01*
X185597936Y-66335000D02*
X186052064Y-66335000D01*
%TO.C,J10*%
X193450000Y-63200000D02*
X193450000Y-61950000D01*
X193740000Y-56940000D02*
X203860000Y-56940000D01*
X193740000Y-62910000D02*
X193740000Y-56940000D01*
X193750000Y-60650000D02*
X194500000Y-60650000D01*
X193750000Y-62150000D02*
X195550000Y-62150000D01*
X193750000Y-62900000D02*
X193750000Y-62150000D01*
X194500000Y-57700000D02*
X198800000Y-57700000D01*
X194500000Y-60650000D02*
X194500000Y-57700000D01*
X194700000Y-63200000D02*
X193450000Y-63200000D01*
X195550000Y-62150000D02*
X195550000Y-62900000D01*
X195550000Y-62900000D02*
X193750000Y-62900000D01*
X197050000Y-62150000D02*
X200550000Y-62150000D01*
X197050000Y-62900000D02*
X197050000Y-62150000D01*
X200550000Y-62150000D02*
X200550000Y-62900000D01*
X200550000Y-62900000D02*
X197050000Y-62900000D01*
X202050000Y-62150000D02*
X203850000Y-62150000D01*
X202050000Y-62900000D02*
X202050000Y-62150000D01*
X203100000Y-57700000D02*
X198800000Y-57700000D01*
X203100000Y-60650000D02*
X203100000Y-57700000D01*
X203850000Y-60650000D02*
X203100000Y-60650000D01*
X203850000Y-62150000D02*
X203850000Y-62900000D01*
X203850000Y-62900000D02*
X202050000Y-62900000D01*
X203860000Y-56940000D02*
X203860000Y-62910000D01*
X203860000Y-62910000D02*
X193740000Y-62910000D01*
%TO.C,U2*%
X202390000Y-69590000D02*
X202390000Y-70850000D01*
X202390000Y-76410000D02*
X202390000Y-75150000D01*
X206150000Y-69590000D02*
X202390000Y-69590000D01*
X206150000Y-76410000D02*
X202390000Y-76410000D01*
X207430000Y-69690000D02*
X207190000Y-69360000D01*
X207670000Y-69360000D01*
X207430000Y-69690000D01*
G36*
X207430000Y-69690000D02*
G01*
X207190000Y-69360000D01*
X207670000Y-69360000D01*
X207430000Y-69690000D01*
G37*
%TO.C,R5*%
X209535000Y-73772936D02*
X209535000Y-74227064D01*
X211005000Y-73772936D02*
X211005000Y-74227064D01*
%TD*%
M02*
