%TF.GenerationSoftware,KiCad,Pcbnew,9.0.1*%
%TF.CreationDate,2025-10-10T15:40:47-03:00*%
%TF.ProjectId,minisumo,6d696e69-7375-46d6-9f2e-6b696361645f,rev?*%
%TF.SameCoordinates,Original*%
%TF.FileFunction,Paste,Top*%
%TF.FilePolarity,Positive*%
%FSLAX46Y46*%
G04 Gerber Fmt 4.6, Leading zero omitted, Abs format (unit mm)*
G04 Created by KiCad (PCBNEW 9.0.1) date 2025-10-10 15:40:47*
%MOMM*%
%LPD*%
G01*
G04 APERTURE LIST*
G04 Aperture macros list*
%AMRoundRect*
0 Rectangle with rounded corners*
0 $1 Rounding radius*
0 $2 $3 $4 $5 $6 $7 $8 $9 X,Y pos of 4 corners*
0 Add a 4 corners polygon primitive as box body*
4,1,4,$2,$3,$4,$5,$6,$7,$8,$9,$2,$3,0*
0 Add four circle primitives for the rounded corners*
1,1,$1+$1,$2,$3*
1,1,$1+$1,$4,$5*
1,1,$1+$1,$6,$7*
1,1,$1+$1,$8,$9*
0 Add four rect primitives between the rounded corners*
20,1,$1+$1,$2,$3,$4,$5,0*
20,1,$1+$1,$4,$5,$6,$7,0*
20,1,$1+$1,$6,$7,$8,$9,0*
20,1,$1+$1,$8,$9,$2,$3,0*%
G04 Aperture macros list end*
%ADD10RoundRect,0.250000X-0.337500X-0.475000X0.337500X-0.475000X0.337500X0.475000X-0.337500X0.475000X0*%
%ADD11RoundRect,0.250000X-0.450000X0.325000X-0.450000X-0.325000X0.450000X-0.325000X0.450000X0.325000X0*%
%ADD12R,1.500000X1.500000*%
%ADD13RoundRect,0.250000X0.310000X-0.970000X0.310000X0.970000X-0.310000X0.970000X-0.310000X-0.970000X0*%
%ADD14RoundRect,0.250000X0.337500X0.475000X-0.337500X0.475000X-0.337500X-0.475000X0.337500X-0.475000X0*%
%ADD15RoundRect,0.099000X0.351000X-0.751000X0.351000X0.751000X-0.351000X0.751000X-0.351000X-0.751000X0*%
%ADD16R,4.000000X4.000000*%
%ADD17RoundRect,0.099000X0.751000X-0.351000X0.751000X0.351000X-0.751000X0.351000X-0.751000X-0.351000X0*%
%ADD18RoundRect,0.090000X-0.660000X-0.360000X0.660000X-0.360000X0.660000X0.360000X-0.660000X0.360000X0*%
%ADD19RoundRect,0.250000X0.350000X0.450000X-0.350000X0.450000X-0.350000X-0.450000X0.350000X-0.450000X0*%
%ADD20RoundRect,0.250000X0.450000X-0.350000X0.450000X0.350000X-0.450000X0.350000X-0.450000X-0.350000X0*%
G04 APERTURE END LIST*
D10*
%TO.C,C6*%
X193925000Y-79650000D03*
X196000000Y-79650000D03*
%TD*%
D11*
%TO.C,D2*%
X213350000Y-72950000D03*
X213350000Y-75000000D03*
%TD*%
D12*
%TO.C,SW1*%
X189800000Y-72800000D03*
X182000000Y-72800000D03*
%TD*%
D13*
%TO.C,SW2*%
X193930000Y-77105000D03*
X196470000Y-77105000D03*
X196470000Y-68495000D03*
X193930000Y-68495000D03*
%TD*%
D14*
%TO.C,C1*%
X220100000Y-69925000D03*
X218025000Y-69925000D03*
%TD*%
D10*
%TO.C,C7*%
X171775000Y-89075000D03*
X173850000Y-89075000D03*
%TD*%
D12*
%TO.C,SW3*%
X189800000Y-77500000D03*
X182000000Y-77500000D03*
%TD*%
D10*
%TO.C,C8*%
X183175000Y-89075000D03*
X185250000Y-89075000D03*
%TD*%
D14*
%TO.C,C2*%
X223105000Y-67525000D03*
X221030000Y-67525000D03*
%TD*%
D15*
%TO.C,U4*%
X160645000Y-81900000D03*
D16*
X168055000Y-73600000D03*
D15*
X161915000Y-81900000D03*
X163185000Y-81900000D03*
X164455000Y-81900000D03*
X165725000Y-81900000D03*
X166995000Y-81900000D03*
X168265000Y-81900000D03*
X169535000Y-81900000D03*
X170805000Y-81900000D03*
X172075000Y-81900000D03*
X173345000Y-81900000D03*
X174615000Y-81900000D03*
X175885000Y-81900000D03*
X177155000Y-81900000D03*
D17*
X178655000Y-78615000D03*
X178655000Y-77345000D03*
X178655000Y-76075000D03*
X178655000Y-74805000D03*
X178655000Y-73535000D03*
X178655000Y-72265000D03*
X178655000Y-70995000D03*
X178655000Y-69725000D03*
X178655000Y-68455000D03*
X178655000Y-67185000D03*
D15*
X177155000Y-63900000D03*
X175885000Y-63900000D03*
X174615000Y-63900000D03*
X173345000Y-63900000D03*
X172075000Y-63900000D03*
X170805000Y-63900000D03*
X169535000Y-63900000D03*
X168265000Y-63900000D03*
X166995000Y-63900000D03*
X165725000Y-63900000D03*
X164455000Y-63900000D03*
X163185000Y-63900000D03*
X161915000Y-63900000D03*
X160645000Y-63900000D03*
%TD*%
D11*
%TO.C,D9*%
X198600000Y-63975000D03*
X198600000Y-66025000D03*
%TD*%
D18*
%TO.C,LED3*%
X187475000Y-86625000D03*
X187475000Y-89925000D03*
X192375000Y-89925000D03*
X192375000Y-86625000D03*
%TD*%
D14*
%TO.C,C4*%
X223105000Y-77625000D03*
X221030000Y-77625000D03*
%TD*%
D19*
%TO.C,R3*%
X196575000Y-86625000D03*
X194575000Y-86625000D03*
%TD*%
D12*
%TO.C,SW4*%
X189800000Y-68100000D03*
X182000000Y-68100000D03*
%TD*%
D10*
%TO.C,C9*%
X194575000Y-89075000D03*
X196650000Y-89075000D03*
%TD*%
D11*
%TO.C,D8*%
X191900000Y-63975000D03*
X191900000Y-66025000D03*
%TD*%
D20*
%TO.C,R8*%
X193930000Y-65975000D03*
X193930000Y-63975000D03*
%TD*%
D14*
%TO.C,C3*%
X220100000Y-80525000D03*
X218025000Y-80525000D03*
%TD*%
D19*
%TO.C,R2*%
X185175000Y-86625000D03*
X183175000Y-86625000D03*
%TD*%
D11*
%TO.C,D1*%
X213350000Y-67950000D03*
X213350000Y-70000000D03*
%TD*%
D18*
%TO.C,LED1*%
X164875000Y-86625000D03*
X164875000Y-89925000D03*
X169775000Y-89925000D03*
X169775000Y-86625000D03*
%TD*%
%TO.C,LED2*%
X176075000Y-86625000D03*
X176075000Y-89925000D03*
X180975000Y-89925000D03*
X180975000Y-86625000D03*
%TD*%
D20*
%TO.C,R9*%
X196470000Y-65975000D03*
X196470000Y-63975000D03*
%TD*%
D19*
%TO.C,R1*%
X173875000Y-86575000D03*
X171875000Y-86575000D03*
%TD*%
M02*
